<mxfile host="app.diagrams.net" agent="Mozilla/5.0 (Windows NT 10.0; Win64; x64) AppleWebKit/537.36 (KHTML, like Gecko) Chrome/127.0.0.0 Safari/537.36 Edg/127.0.0.0" version="24.7.7" pages="2">
  <diagram name="Page-1" id="52tk7GtCc63mQF1dNhDz">
    <mxGraphModel dx="744" dy="775" grid="1" gridSize="10" guides="1" tooltips="1" connect="1" arrows="1" fold="1" page="1" pageScale="1" pageWidth="850" pageHeight="1100" math="0" shadow="0">
      <root>
        <mxCell id="0" />
        <mxCell id="1" parent="0" />
        <mxCell id="kYoeIwyWDaKB8z9w35wY-1" value="&lt;b&gt;ACRONIMO&lt;/b&gt;" style="text;html=1;align=center;verticalAlign=middle;whiteSpace=wrap;rounded=0;" vertex="1" parent="1">
          <mxGeometry x="80" y="80" width="80" height="40" as="geometry" />
        </mxCell>
        <mxCell id="kYoeIwyWDaKB8z9w35wY-2" value="" style="shape=image;verticalLabelPosition=bottom;labelBackgroundColor=default;verticalAlign=top;aspect=fixed;imageAspect=0;image=data:image/png,iVBORw0KGgoAAAANSUhEUgAAAagAAAEMCAYAAACRPyI4AAAAAXNSR0IArs4c6QAAAARnQU1BAACxjwv8YQUAAAAJcEhZcwAADsMAAA7DAcdvqGQAAP+lSURBVHhe7P3ncx1JkieKOoCDA621JgRJUGtVFCVYWnSp7tKixfT0zu6da9fuh2e2H3Zt/4T36ZqtvZl5uyNblCCLLGoWtVYgtNZaa3UOgPv7eWQCByBYRVaXAKvSyUDmyYzw8PDwcBERmek3MOmdEQcccMABBxxYYuBvHR1wwAEHHHBgSYFjoBxwwAEHHFiS4BgoBxxwwAEHliQ4BsoBBxxwwIElCY6BcsABBxxwYEmCY6AccMABBxxYkuAYKAcccMABB5YkOAbKAQcccMCBJQmOgXLAAQcccGBJgmOgHHDAAQccWJLgGCgHHHDAAQeWJDgGygEHHHDAgSUJjoFywAEHHHBgSYJjoBxwwAEHHFiS4BgoBxxwwAEHliQ4BsoBBxxwwIElCY6BcsABBxxwYEmCY6AccMCBnx34zfiJ/4w/jlCBTJYqnJl5kA+MM8+0dZwDPz8/68yB7wqcT7474IADPyugceI/wjQM0pxR4hG/eYrbNDj3Gh2TxwDu4VSLmz96lde1HIt+ndGaZt04Wlk179dk9wWleXraohXG1v/eWGNmBveR/JDJzw/3kQ9ValnTNl56wAp/JHAMlAMOOPCzAhooQaLypsKmmp+amtLk7+8nAQGIrKjA+Q+/ec0AVeWcutSyCKSg7mUKP1geWCWAOCyDQTwsv9AQEMsUyk4RAX754z7L8fh1wLpom1jfNOgnItbkcgWowTGYrXykifl4Df9hnjSP3TbbUCmtX1/tjwaOgXLAAQd+XgDjROPi9U7J4NCI1De2SF1DgwyNDElgYIAkJcRJ7rJlkpKUJMHBQbAA1OpU5lpYFT+VJk3L8PC4tLZ1Ko6u7h6ZhtWJiY6UrKw0yUhNkqjwMAkMcKlBUARqKEQmgaOhtV3qm5pkYnJCYqMiJCczUxJiY2brWWjUCDAxMjY5JQ1NrdLc2iHTXq/ERkZIbnaGxMZGGqOFPFNTftLW3iV1oGt0fFzplxmvuF3+Eh4WLvFxsRKHusJDQ8St9LFFTAb0173V/+DgGCgHHHDgZwM6MwbNOzbhkcrqWvnq7AW5eadAevsGZApqmfFGKIxSXnaWPP3EPtm5favEwHhoZIP/nBJk8sAwtHZ0ysXL15BuSHNLh0x6gAEGAsGMJMRHy44tG2X/43slb1mWBLndMDj+iLhgeBCwDI9NyqFTZ+TzQ19KX1+frMhZJu+88ars3LpJXIhotLoFBmoa0ZYforvu/mH502dH5NjpMzI5OiYb8pfLu2+9LuvXrdIW+PkFyOiEV46dOi+fHDgsHTCc/jBQ/n4eRFr+anQT4uJkw/q1sm/XTlmRnS0hgYHGDiPZpmopGCgThzrggAMO/MSB+pbGxQsjUt/SIp8dPiZfnjwtTe2dMsEpPmjlSfzpGhyWizdvy7/9+RO5fv2WTMKYqbGwXHlGMZ29/XLi1Fn59PNDUl5RJSMwFJziowEaHZ9ERNYsBw4fgYH4QhqaW1Ev6+Zkm1k3mgY6z5RXhsfHZBBlh8fGZXJy0lhQpq8B4vF4JmUCkdH4xDgiQe8sbXM2xQ/4pxFteWTCOy0TMG5jiBhZD2kvLCuXTz4/KP/6xz9KUUmxjE+CfuA11C0dcAyUAw448NMH6n1YCX/8Gxoel5sFxVJQWiqjUO7BYaGyfuMG+eVbv5Rnn39OUjMyxB0aJm09PXLl5k1pbW8XPxiNmekpRTUJhV9YXCHnL1+X/qFRCQkLk7zcZfLKi8/Kr974hWzevEEioqNlEnXeLCiSC1euSf/gkIYntD1mBQj/ZgJAjQsYoYY1XLHMy5yVWRR0ipHt4TmTCbesH4ig1MBx0g4RG45c5woFjWvXrZM9+/bKuvXrJDEpGfcC5PrtQjl84pTUtbTCcM+okabxXArRE8ExUA444MDPArgpgP8GhgalGRHU6NiYBAa6JDcnS9587SX58O3Xkd6Up/bskojQII1M2mCcWlvaZQaam4o/AOUH+/uluKRC2jq6oUEDJDMjXd755evytx+/L795/2356P13ZN26tRIUEiYjiL7KK6qlra3DIgKmA8kfFoBb3PkvAIaKButhgO3wwvB4kBgRMjKkSQoAXmIL0DqmJABG1W/KI/FRkfLiM/vl//ovfyf/n//7/5I3X39NUlPTgcNPSsqqpLAIxhr8II4Z4Fwq4BgoBxxw4GcFUzA8Xq9Hpqe9+DUt0VHhEhcTIX74HREcJGtX5sm2Detk/ep8GJ80cQciEoER0DUkqPDO7h5pbWsTr2dKQoKCJT8vT1avyJEQN+Ihv2lZvixTNq5dIxHh4TI56ZGOrm7p7u1VA6kWiriUkrlQRbeC69mDg+7GswvdU9gYVO7c88e5CxWAPAkOEElNiJZd27cg6lsuAQFBiO5GdUqyr3/AKkvjSQNn6PoxwTFQDjjgwE8foMDtTQdhYWESHR0jAa5AXQeqb2qUwpJSRFYjusV87coV8oePP5T/+n/+PY4fybq1qxEozVmCwaFh6R8Y1AgrxO2WpPgYCQsJgU3gRgQRN3DEx0RLZEQkNGyADI2MqFGb9Hj1vhopGhA1IvwNIH0PYBC0JPLq5nT80KTX+c+AHoFoBsZy2jr64ejCHTcKuBENxoVHSnJikgQGhcroxLS0dvRK38CwGmBFqlhQyzcR9D2DY6AccMCBnweogfKTyPAIWZaVKbGxsTLj75Lmjm45ePSEfHb4iFTW1KpSTkmMl6zUVElPTJRoREIuP4QeBChv79QUIqMJXdvx8/eXQBgptztQjRHXfbhNzx2Ia64gfVsFt7OPjY4gcptE7dyGMKOGgwaAxsM2Lout/TAbI5nZZF/Xvyy1ONDQTDHiQ5tNvDYjtLHcjUhDHehyKc18RmtqBvRNTIgHBpTt40YO5ld6FNuPB46BcsABB34eoAp3WoKCXLJ21QrZunG9RISGCvc+NLV0yCcHD8v/9//5n/K//v3PcuNuqfQOjsjY+JR4J2FENKoQ4aO4E5MeNVJU9oyIXAEBsE3GgFG984FbbuemWSBM06B5PDI1RYNk8hDM+cODrlcROQ0ujxbolJx1Trw0M7qaNJvHvgozqjSbB5LZNEaDXkSTxKn4FWgefCr4EcAxUA444MDPBhgxUOmlJSfJ6y+/IG++/KJkZ2RIcFAoIqIAqaprkgOHjsn//Kf/JV+eOiWd/T3ihUKfmqJp4wO+iDh4BA5jXIw6n1PqAJxyvYpvoVAjYt/Tc6vc3J9vCfNqBMz/dV+waCDYU56kw7wWCfSoIeb1pWEaHAPlgAMO/GzAxAdm00Bueqq89/or8n/87tfy4lNPSG5mpsTFxEmgO0Qqqurk04MH5eK1azI0Ni5TUOb63j5FAgz+ATBSZtMEn3Gigp8DW8EbA6BG0YpWeMlMuqE0yhl6CObvPfCNl31K3yevAd4ETdYcou5onN2tZ153RHtKYzULPqc/FjgGygEHHPhZAV89R9PinZyU0ECXbFu/Sn73/lvy93/7W3n+qSclMT5R3IiounoH5Nqt29LS3opoiFEGCluWwDY2vKj/VJlz44Me7D8Keg9Ji/A1ElzPYrLeGKHA+0g0GhrNgD57Os4gNUBUBo95b9/sLT3xyQiY/TVLwNxPUy+n90AzcQUE6AaROYJ4F+eWQfuxwDFQDjjgwM8GuA7U0dkjN24VyoVLV+T6zdvS3NAswQgfNuXnyC9fflZ2bd0iwUHB4kVoxNcEdXZ3a/REC0KFGRTor++04844vnthctI7u8GAhmBqekrGxidkwjOp29NdyB8SEiwuf9fsotAUynLq0GyMYDm+JskYuin8saM1C6XCwhiNxeyNE6BGr5nMxlAy2Qqe+PiWC+Ij5vGJSdA4putjATBOISEhutnD4DCguwwV348HjoFywAEHfqIAdWt/7wlpBtbA652Wiqoa+eMnn8n/8w//JP/wL/8mt4oKZcI7CSPjkcjwcElPS5agoAAYMxoej4yNjqGsiTRolGIiIyQ2JkYCXQGq5Ds622VoaAB1TCFNywQis46uTukf4HNFMxIeHibx8XESGBhoGTpDnc6pAScNk74NnUYEl2kGjSlkYh4e7EL3ghoqzedn7Q5cmIDVwu3BT6au3j5pbesQj9ej7+ZL4m7FqGjkWFrgGCgHHHDgZwFU8fwsRRiMkB+OvUPD0tTeIRW1ddI90I+oZlqGx0akb7Bfd93xpauugECUQeTDwjA+nBpMjo+XZWkZEhoUKuOjE2rwSquqpX94TIZGx6W6rkFKyytkYHBAZ/Li4mIlMTFeAgK5Dd3EJdxsoYkGBIaFW9ZHxidlcGxC17wGgIuvURoaGZNJRDmMemxzQzAP4Vom7B7bhVygVfMgcSqQ62QjoG1geFQaW7rlyvU7Uo1280HiiLBQyVmWqW8312lDGE7O7C227f2HhoD/+t/++/+wzh1wwAEHfkJA7eqjYal8VQH7S2dPr37qYgTGoA+GpLt3QDp6BuT23RK5frNAOru6aQUkOytTdu3YLsmJCdDWUPb63FOIDA6OSR0M0eDQEKKnIWmFoetGVFJZWy9fnb8kRSXl+mxRZGio7N6+VXZu2yxhIcHW28z99X1+VdX1UlpWIaOjo2pphkdH9LMfBYUlcreoRAoKiqW8shp0BOgzW3yTOZewxsY8UlJaKVU1dbo9PBW0bdqwFlFQPBoJw4Q8xF9RUytFZeUyAiNHmzUyPIQ6a+TcxUswUDekp6dH3DC+mzet07euJyegDmQkfUsFHAPlgAMO/ERhgYECcIotKDhEgpF6+/qkq7tThodGpLa+Ue4UFkOhV0hXb78WS05IkKef3CfbNm2UkKAgCaDmn/HXKCwiMkKjj7b2NkRdo9Ld14+oqVIKYVhaWtvUcIQHB8uOrZvlxWefkoyU5NnnlLha5KGBqqmXEkRao4iaxoGrCQazBAalGNfKKqr02NDULElJSbJ8eY64EYExwhkf90hxWbXUIALiNCQfKt6wbq0kJ8FAMXJCHn5FicaypKxS367Oz4O0NTergeJnQvgsVygM5taN6+TVl56VVcuzJRAG0Mw6zufZjwmOgXLAAQd+omDMwXzw023fMTHRkpScpAp/gpsFpqd0OosfLORH/HIz0+W5/U/IU3t3S2x0lCruAEZfOHJyLTQsRFKTEyUUeccmxnXzBXfouQJcEhYWqs9Z7d65TV55/lnJz8kWN6ISPspLanTKbWpGGhoapaaaRmYGBjNYQpBCQ8M0hYeHS3hImE67bVi7Wt+WzjUvlqeBqka55pY2/U061iNPYkIcfoE64PeCHhq32ro6NU5cZ+J3rvgWjfiEeFmWmSb7dm2X1156RtauzJbgAL5klrTpapaB2ZMfD5wPFjrggAM/UYCGXbiIgp+6iRuRFNPAwJDUwlA0NrfI0MgwjFeAREVFyLKMTCjxDERBIcItC3w7BKe/qCz5eQvu8ENxGUN00tTSKvUNTdKHKIo7+CIiwiU9NVWyUD42KlJcCLz0NUMsTwQozym4xrYOqWtsltGJSVyDYUD0QwNjGxnSHhLkVmOSlpoM42emKGmg6htbpRnlvR6PxMVE6gcPY6IjUAY4UNSDA7+4W0v84xPAicuo3IUoiZ/eSIyPk5SkRBjjIF1XI21aEIl/TTvx50cGx0A54IADPzvgzjndUUeFjOiGEY39qh/dFKGZzHSZ/Z5YbpCbVd5I9rZthle6E4+bGXDktm0m4tffMFC6+YB5CWoHzGYJXyOg9/HbN5v9g/VwS4UBRTCXjz/1h33fgNkJuDhw04R+oRe5Amj4FKeNcemAY6AccMCBny9Q+0H70xDZKppGhYmGRyMZC2wD5Qt2fgKnAfWruczH9Sr85h1fHDbwmtZjvc3BNiUGk6kHd80Zyy/AoXXab4LAvYUbG0irjV+L8tzGZdfGcjZetY527UsHHAPlgAMO/CxhvuFQLW4U/31gMQNFUNWOGyy7mDFaDB40nw1fR9dicH9aTeR2DzgGygEHHHBg6YId1dwPvslALSX4qRio+09SOuCAAw78jOBhoxQHvn9wDJQDDjjgwLeEpRg9EXTK0TqfD0szUrofOFN8DjjggAMOLElwIigHHHDAAQeWJDgGygEHHHDAgSUJjoFywAEHHHBgSYJjoBxwwAEHHFiS4BgoBxxwwAEHliQ4BsoBBxxwwIElCY6BcsABBxxwYEmCY6AccMABBxxYkuAYKAcccMABB5YkOAbKAQcccMCBJQmOgXLAAQcccGBJgmOgHHDAAQccWJLgGCgHHHDAAQeWJDgGygEHHHDAgSUJjoFywAEHHHBgSYJjoBxwwAEHHFiS4BgoBxxwwAEHliQ4BsoBBxxwwIElCY6BcsABBxxwYEmCY6AccMABBxxYkuAYKAcccMABB5YkOAbKAQcccMCBJQmOgXLAAQcccGBJgmOgHHDAAQccWJLgGCgHHHDAAQeWJDgGygEHHHDAgSUJjoFywAEHHHBgSYJjoBxwwAEHHFiS4BgoBxxwwAEHliQ4BmoBzMzMaHLAAQe+Z8Aw06H2g4w3Pys58PXwIHz64fjoNzDp/dG0sR8E0w9SOoP24u+snPrhnz/+qex+r7xgxXMVsP6p6Snxg9n2DzC2m8aKOR6WDNvQ+fmhNVZyDN+jBXZvzfY/LvD4/cvljwt+djstedX28hwX9QpkmT/sf1pgllv3BzuXKQ2Yxu9pXMEPf3+98j3wFQgXIgW9RvfMB6WP2a1zG5jPN689tskSm26Ob4Jv2YXlFgOjAZkLpZQmHGdxzWHSfyBO78xM6z29iwt23X8dAIfyiYk0EDuTfd0HeMlqP6v207zfDyyRCMowYwYSOzMzZf0yQNbogLHS9wNaC2uXKXT+NGlgB1hU8C/G0ixNDwLsPBsc4/RoAqWCA2RW/njxZ9CN1EdTPCJNqyIyjeaB53pN/xlQxTmjnDIXvgFYzsY9Nc0xr5e/BwA9C5UrgPTy3sNWO6uDeORvoicvLJ48tI6wktICmmisoX7M+SK8NFTzD513o1N8++e7AQuXzSP9uQA/f/KGIda6zT8Py4FvhiURQU2zo/HbMzUl0x6vBAQGisvfZZQDEu8tImffAbBi0xGspW9gQGpqa8QV6JKcnGyJiAiX6anpWQ/Fzvl1YHfoFNoyOTEuge4gCUR7KETfjafjwA8Fs0bJBvxWtUyH4yfalTrW0GoGNtNTXpn2eiyDBNA2++nsgn+ASwL8AvSSP/jBcWzAPt4LBrc5g12Snu4+aW1tk6ioSMlITxW3K0DvEr4b/gLJfRCpYUEH2zqGSeljEevcBsVg3SQnvN5JmZicUOMaCD5wjJMfHN72EOfBOv1aIK+nmKanZMozibMZcbncEhBAXlDhEzR+En8lyjjSk8jrnfIggguQQFegBCCS++v1C8ov4Jdt/GZx8zfOyQOmANTtcpm2szWKQ9N3AwH/9b/99/9hnf+g4NuMKbRuYmpGyiqr5PKN62i4V+Lj4sB0nwDvPm22+DcrGN8EFn8toDiYoTUyNiIXL16SI0e+lJCQYDVQNCyayyrAv77VLKybv6chtEyVFZVy/vwFCJC/JCYmmgwAXyHS4qSHRx/ENl7Cg7TrYXmwKPjUOa+R94FvqvOhaNK8doHZP98JPAwdC/PyYBejkvZ4PKoYoJG1X+8LFh6Fb9uUh8TxUPwGMP99+w4VTmAMVtbWYTzelJLKapzXS0VNg1TVNUhjc6uMDI/CkQuUwKBAneaiXBPfPSgtumy9N8PpKVzzwPG7U1QiBw8fltGxUcnFeAsCLs3PvN/YEJoKZia1hEXyzypbKwcOpJNKdxKG14M28uI3TS+SXi8s9sjYuDSg7bfuFsnVm7eV/ur6JunrHwQOF+gPhs4KsAw25OM++GxQI4kjqJBGGOort25LRXUdcLgkKjISxo94ZhliWgvcvYNDcruwWG7cKpBBnEdHRkhIcLDi89UvWsCGb6CFQGrmisMQQo9R3nn0R9Rm3yLfysor5NatO/jlL7GxMdpmpdSnPPmmZw9Q9/3gRzFQtmdq000Pon9oRP74yWfy508+hYHyyLrVqyQsJETDXmX6gkZq51pJWavMMIPEF6YZNluMMse5TqRoa2iOQVONwfjlkSOSkBAvzz//nMTFxWoe3w73o1uJ/6R/LrSew0/g+SS8q+s3bsjxEyeAJ05WrFhp8tj5rKOWRzJ4lHpis2g2Bcyte9tFYB47zSIFzBPS+4ApxxPTHsVhJ8BCHLP5Z8/vzWfnse8z8fZi9LCNs2DxVXFqfl70KaO4rCsLcNl4FqfXJEWu8M18ZGIe9oXJSvlAn2Kg1tbXSUlZiSqhqKgoveuL0xcH/mgytxTh14OWQzaSqkXncBDu16fz6pxt5735zX0DvnnvzYeEayMwGmcvXJY///kTqamplc7OLqmrb5BqnJdAMZeUlEj/4IA6khGIgFiQ8ZRiU/RExANos+kCXv2FTB4wtaqmTm7cviMx4OW6NaslyO1GfkQNFk2KTc/NbwOmrXYyqA1+U8zKa93nL5zNnhOGR0ehYCuloaEJzmiIhIaGohj73bceAyzHsT6EMjfuFspB6IjLV69KW3uH9PUNSi0M913wo62tQyIjo1VZuxD96LrMvejmAdBqjORB9HTr7l35418+kytXr2skmZ2ZLuGgS1Hgj+ocZGb0VF5dLX/65HM5eeqkeKBrVublSjzq1TZajpOu7bECOwEMP/XUAPLoLc1i8s3lhCHs6ZWioiLp7umWiPAICQp0K4/GJ8bl6rWrcunSJYmOjpKsrGWI4hDxKQ6WN1iIU/HaWH34a+6Z88X4bsNfb6CsSqwDKrNOvgaYhYkiA0dKZuDBVNY2yJdHj0EReMU76ZVlWZmSnpZuDBQ9HB+8bBg7i5WZxtFa2xTwssms+cgI/aGXDH2zZdjh3BgxLS2t7QjV3fLsc89Kerqp1/asCMxLFFoPyuu53rEBPhPx4n5AgL8KfXpaqqxevVqFVgHCQ7lhW2xRMOc84sQUN/QrLuu6fd8XcI+3md8G/Q0kJid5oyf3BRUSHlkVkplqxR/9b8rj/yzMCRWvWve5owTnvG7SHL/nBM/QpD+ZhwfrSKBC1GTjtfKbP+wjw2/im0XJa8SheNBX1g3mm7tuAXHP/fDBgTzoEA56O7MeZvMa+aAMjY6Py6Ur1+T4yVMSDYWak52DO0YZkC4WMcn3HAn3TH/q//sCy1E2tC/wm/XaOAzB8+kmsE1aRjMBSIf+MBkN/805L8/1nwHDz/lIeZs0T2AMVlTWSEN9o+zetVNef/UV2bh+vWxYvw7jIw1KyygvRpI5OcskOMitlbCsOn0Wrrl2zNFBIN0NzS2oo1qSk5LUQAUHBeGOxT8wglEI/xo+4zpOWd5OvG7LDM81r9Ue5SeS6Q9zTXmFf53dPXLsxCkYlkId6ynJSbxheGGyKpBfbIvHOy2lMGiHjxzTdu/dvVteefkl2bd3j+SvWgmHekqKiotldHgYeisD8gGDDVjA2nuAbaDseXFS19QshcXl0g3a3NAfyzIzJCUpYZYcQzsch4lJuYrI6dqNWzIyMirpqSmyYd1aNVAGjAyQPTqmebTOZ8GHR6TBvmfLjvILeWpgfA8eOiztHZ2Sk5stMTBGvB7gckkwIrYM8G7F8uUSExONy+gL1oc/M/Z6pCI2yLU/UXaOJ6wH9VkXFsqhDQ9toLRK4KU4sFJWQOTaUDZNz83xfqA4kOj9kvH0IM5dui53EbZu2bRVLbfLFShrVq3WuVguahrxA27gZbg9jo7q7esH83qkHyG2B7+Zl3Oypm5/GZ9kngHNOwWaujo74fX0SWhYuM4ZQ+5kcmoK0duAjE5MSXxCorjhJbCbAtVbMLhoDKdQ58DgoAwOj4ofyg6NjqDuLunp7dOQl+XoOXEumIaNIXdsdLTEQHCIi4I4PDohPaCHvPJ4J6W9s1s6IJAjUH5AKv5o8yRw9fT1wEPr0vpYr8uixV4cpRDw+viER3nQ2dWNMn0yNj6BvKAB9BFspW0A5yowwIH6yZMelOW63yT43w4cHV29oBG0wFIFuYPEhfKmn0WG0O7+wSHwkecj8Kh7xOuZVkNM4SSPyAfm6ezqwUDuk9GxceVFoMuteJhIw9i4R3r6+7WtXtTd0d2N+vu0bvYx5/W5iZL1coANjY5J78CQKsMgXc8DTcg3AWemt79PJsbHoNwC1XukbHCBf2zSI93oG9LSb/GRc/UuizcGjCwNjaAvtf1d2jbKCuWPskQZHUH97ZCdkopaRFFNUKjJkpSYqPKmfcv2k6eos3dgAHi6pQsyPAYe+1EmgIs8MhIMHrAbkJ8H/U1ZHUd/oOwYHbSZKemCXHR294G2Mb1P58l0pz3GIJP4wz5nXZSjwaEh7QPKoWmnv07NTMELHBwahuyOKJ2Uq+7uXr1PRWOTRMBttIcGyiPllVWIMhpk19bN8tS+3ZIGhZmZliS5uTkSjmihHMalr69X8leuQCQVq7xiv5gxNWT40NuPaGxMZ0mo2PwhxwGUYwhSXV2jlJdXSGJ8Egx+ttLVhTaPUA7Ql4Fu9AHzgijiZaJDS3ydkK8OtGEYSpptYn/p9JrVkmHwjTIz4ZkCvlE1SuTVOCLhprZ2uVtcJn2QwTQo+OjIcMiGS6cs2X4mgips1N+NMfvVuQtSU1UtT+7bK6+/9LzkZqZJTGSkpKckwcAlSgciqJqaaknB76zMTONUK8X3B20XxzJy1TW2SHlVjU59ToN/CfGxkr0sE+MQ/YjBpcocg6IVOuf8ZURwMBqU56TEBNm4bo3ExTGCMniJY2R81MgF+mBgGOMWTFL+g6/MRp6NjE1IH8arBzI3Dh1EPTKKa8gkAyNDUo6goaCoXGU3A3wKDYFO4FimfKFvGD1FwTi5A4NQN8uMAd+w6ogJD8Yf+ofjj33EMqSXMkdNMDGBusF/Tpu7wXf282LMeigDZUetHFQqLOAIB8QIGDAOJYFadGBQUNlB9+sc+zqZRgHoGRiWQ18ehTcr8vrrr0tTYxNC5nZZv36DeqsUZnuOcwrn/ch/685dOXrslFy7fkMK4QmVVZSrJ8MpNRU05G9BGH7gwCEdaFyMPXrsmA6I5StXYoBFQCGOSVVtLSK3Ewjbr0lxSancRRjP0D0yMkoiI8JBK5Wv8aCPnz4jFy5f0/WyK9duyolTX8mtgrtSiYFK4hISYiEEAeDJlNyEl/PZF4ckAAosLSNdvBCagqJSOfDFl6pUa2pq5MTpr+TqzVswzCXShza5g0N00B85fkrpuQNaausaoHxDJC4+DnID3qIeCsAAFMBt3D9+8qROORQUFklJaZmMok1RMTEwkKHgFjfrG8VoGwcOOi8Evgre0ecHv5DG1haph/d2/NRpuXHzttLSi8EfHxsrURi4nHKZgKG/fuu2fHn8BJRCn9y4dUfOnj2vbcrJW659PYrBX6FtOi1nz1+Q2+BLEeihYggLD5eI8DAVdC8GXzW88i8OH5OGpiakZjlx8oxcuX4T7S2Cwe9XDzQyIkLlaRR1X7tZAF6flYiwMHiMyVovecD+ZZ821NdhMC8Td1CwRuDdcFhuQj7YP5wyuQPe1Dc26wCNjo5RZUbDN4l+qsX102jLqTNn0Gd30EdF0tzaqrhi4GDQRNKzPXTsJNpTAcM6KMMY1N2dXRIcEiKJMFb0gIcwCAvRvydR58XLV7RvyiorYBSGJTw8EontN2PC/kuZoVKhw1EFZX342HHwpl7rPwnZuHLtOvq1BIqmT+UxCvJIB4hAw8rrV+FJs++u3biJiKBI5WoKPIiKitY1EVZDA33uwmW5eOmKKrbLUHDXb96AjIRoNESMpEMNH5HjSOeurKJSaoFvRW6e5OfloVKvTNGrAw1TMKIVlXVQMn3w4NdIKqIQrlWMQA7KociPn6QcXFTeF5cZOQiBMxMZFiFBNJ7IW9/QrGsZ3HTR1z8k585fkmvXbug4HICx5tgPR59zRgIs0v5qAf0Xr1xH355BmzH2i0ugtKGsEX1FRIShb11wDCYgrwVyDHm4XlZYVCLnz5+Hw9KLqK1dzqH9VbV1Mowx1APnaGigD0YyFrIRbTZFoX0mmjC8oFNyHvyjgn7uqSdhpNNUJ9n954aynoBBGBjolWTwISsrUw0ejYqFRXm8EFhW9ShSLcZEBQxUdBTXc3ATjttyRC3RUeHQeVwrw9iBESgoKcPYKpQIOAguGIaw0BDZtG61xMERpj6eAI8am1rkAvr6DNp8DfqFeqQBOjUgkPIfrQ4gyS8uK5dj6CdO4ZYA70nwiw6vC87Q1Zt35Myla5DFDuVTW0sbjMq4JKckwpF2yWXoPxptP+gkRsAzoO8aeM6x1AnDVF1dL1+dPSeXrxi9Sr0UA70UijFDOeOSyuEjRzQ6S4Xx47r/YoHNwxkoK3Fwk/EUxms3C+XU2YsYkCUayUTBqoZCITGnPSDvAVxkeSpbGpLS8io5CUZt3LhRnnpin1ryopJidHSW5OZkwJAxWDf10jJfvHQVyvWgekRZy7IQEYVKS2uzFNy9I64gt2Ry+gVeAAX3M+QrLi3VCIMDIRoWP3/NGgkJCwHjyuTTTz+VWjArMzMLQpqAsHlEigoLpaurE+H6MlXS9EDHYKCOnTyLSO+qRk30AGLj4tFBAVIKRUyGZ4OWRHQWPedbdwrkKyi9TITqK2AQGakUUdEdPiKtba3qOURCGINCwqGkW1Sht7a26y5CdlRySrJGOQWFBTr/vxKhNBU3eTEKZ+AqFO+BAwdhrAclDaF2FASvs6dHhZeLuZnw4hjFabDt0w86/eJHA1WH8P0Q6IbXBq8yHMovNDQc7e6SQiiVSdCXk5eDge+WEQ540PclFGg9jMooPFj2cWpaumTn5MBjnpYK4Pn0wOfqDCQmJklScgocgFEo/Lvom1bQmKYe1wQGW00DlPHR41JZXYk8IxIGYxQeEaXeVmFRsfJ2WfYy7Vc6BlQ2l65clVx4lJxv93oZefsjyuzUqZohKLMtmzdrZNw3MKJrJ5yKo6OQCt4wMq2oqpJqKFsa+sSkRJWlZni9X3zJNYVrEgFlmArFQ++zBAOqHpFDKjzjJOTv1igVkRgGKqOUpAREEhkZyJ+KqDtO++PW7TvyBfjZ3t4uKbhOR6kHBuQueDkIA8Hp6gjwTF07n0Go4wADoaa+QY4eP6mySmcvDMo8IiJSeqFUC4uLZAw851RaGHhCfvcjIjoDBXHsxEkom2lJhxPEiKOxsVFKykoh/n6ShvbQWWNUdx4K6ywUVltnh24QiIT3nw0ecxqaXjVJIl1KD46MoMpgaDg2VuevkDVIfqiHY4ibmhj93y4oUKO0bctmePzxKq8cCwcPHtJyVNbxCfEyBJ6VlJZIN8Y1I4w4OAnsw8aWFu3vDjga7PMIOI2Uw06MvVLwYRI0cPxERITqmGhFf588fVYuXb6sjiD7i3SWlpdLB9qVjH6NRSRH+b9++7ac/OorqYPBHwGvOAWZApmkrHEWpK9/AMyflhREIFkZaejPdDhF9tQc+UBOcLwY/cT+pWHauXWrcbasfISAAD+MP/ATTtIy6CzyVnnKPFZaDNAkSoNG/HUYE6UwGBzLlJOOtjZ1xtg/Ghgg8uwfHlPZZlS0YsUKnVIMRD9v3LgWyj9K5Z2G6AjG6R04aBzPxMdAoAT8bIEzmozIPwl9wg4vKoWBwviprKiQMRgQbgpLQ32Jycmq27vBoz7oumAYtvTUJFmWma4ODZivhu8GeMyxzuiXswjUEZTJRjhbo+BxOMZjGBySpuY2XfOjs5GWngrHyQ1HoQkO4S3lIXUb85IfvssqhIc2UARaaj6tdO1WofzPf/pfUCB31NsqLS+DwE7JSjBPd+RAC9B3X7SHQMwUOn98ckJOQeiqq6vk1V+8DIWXrkriJho/BY9t04ZN8EYCIChmu3czLPm//ccfMVBc8oc//F72739S1qxZrYqyAh5rJfCsX79eBYaW/A4GEaO8F198Ud5+51eyedMmXeDuB/M/+/QzqcNAevftd+SN116VzTCQa1bno7NGoRAvwtsLk1UYmBQizskXl1VKU0srPMZ18uF7b8nevXtl7do1OrVzp+COTvusWbsaAoEooaYO0U+dLF+xUlbm54P501JT1wSjWIKOzpS333pL9j/1tEaJMTGxMIpF0gnl9tjOnfLeu2/Jtu3bUTYXXl+PlEG4cmAsaTDJXwrhp599qsbqww8/lOeeeUbWb9ggectXIKrokgK0OSkpQbJRj8tnoBjA0EOXtGCwk2ZGCe++/bY8/8yzsnHTBhiGLDUo5RBazs+nQxFzR1c1hI6KIAdK7f0P3kOdT0tObg4ijUAMnAE5cvSklKJtv3j5RXnzjdeVz6tWr4YDMiM3EB1xQKxYCSXHaQoY3LvIGw0v/1dvvCkvvfiCbIaByc7JhkfVLpVVlag7Q5UuFVBNbYM0YACvW7NKVsBowtYDb4BO3zLiDYMh3rZ1s273LUaUc/z4cXWUPvzgfXnqySdl/bq1MNZBumYyMjos+ZBPer2l6M+z587rfP/H4OPevbtl9apVyqXmxgadZslDfYkwSCvzV8JIjEs7FMdTTz0hv3jlJdyPo2OLAdikxn5kaFDe/tUv5WXI2sb1G2FQctSZKUa9XPDOA78CAwJU2aqXbvUKFRQVPpVIMOh8HePglReel61bNqkR6ejslCoY2ATQQaeNkUQBooKjaGc8aHj/vXflySee0DWiBCjc2rpayEgDFG8GHIVkRNsj6jh0wGHbtGkjZO+XaOseXUPgOOW4wn8FVcv4QZnmrtrq2lrJgeOVlZkmozAiI/CiOZ145fotGJESOAw5MFBb1DPu6OjQjUFNcGJeBP1vvP6abNu8BQpoBSKMcZVxTsPl5ebq1GdtIwwUnIGoqAh5/VW0+eUX0ObN6Pc0aYHx4qaUtNRU0Im6xybkKuToIozTypXLdfzs3rMbMrZKp4nLodyD0afZMOKMtuohLzSSGeDBL994TV56/nntWyr2NMhWF/hNA/UK5PWpx/fBEY0wRgXJ8EE5oY5MZTUjjFLl56ZN69FWRKboOypTwzs/dSgS4OCqcaJQaA7fcbc40PVmqoVjwUiDbc1BBNbUUKd6bzn4yxkUykpNQxOcjEs6blbB6W2EUxOAujdtXK/RiRfjlOO2sqJK1kFHvf7a67J792OyGvqR0+2liGRpXJdTDgPdMIqMYMslAUb99ddewdh9CfprjToWy2E0GIWzjgwYyrd/9Sb04wbdVALxkyrwpBm6kGM2Ly9bo6oqjNMK1J8KPfiLl16UZ6Ejtm3bpo5jJeRX4BgvX54DvJFqhLNh2NZARyTBseDMm68c2mA4+YDAjjfGSaR/ZFxOwVpWQRC8QD6N1I0w/fS5i1IPBcrOpne1OJjBSYvZ0dGDKOGuDub8lXkgKEAyYKlzIdRkXkNTo/Ha4AXotALC4ObmFtm+fRuMRy5yz6h3lIvGvvTCi1BgyzXchlMjAcDvBxoy4BXs2b0biiYOFp3TAAHSgLC9FB7EmjVr5XEM1lCEtYHgRkpinDwOgaWw0cIzKnS5cIPyihQbHStPQpHlZSRKcIBIQnQIojwIESKh/sFh8XoQsEMp03hwypHeLZpqioP7AQjLc/PyNHwPCvKX8PBg3WJLbz0ZCvExDPaUOIThyJ+IY86ybBT3Q6Q0oMZpetojVVAc5MEOeHNbIJxcfwkJcsGApcrj+/ZqZ1Nxj8LQ+pMRAN/OZ6+wH0kP+c4dkxFQjBFBQZKPAbF9xw41yPV1DXQh0Zc44Mj1pi1QIJvWrZFoeLoRYcGqoDs6ezEwKpXWfY89JnHwUoPQZ0lxMfI4BkhmRhaUb4Wu8dDz5TQtZFWyMzJlAwZPVGiQhLtdqHsZDPQu9N8kjFKdeCa86F/UDYeFz5WBCGuamf/AT5x7PNO6zsD2jI9DEUNm6HysQ5ScmBAD770fDsoElF6qJGAgcFqxvbMddHMhHxEB+pZ9RMM1gfKREWFq1Gjc1oAv5FmAy0/cyOdCY7kuxyPXp6igqBTq6xulBf2xfu1a2Q6jEoH2BLsD4FFnyJ7H9mAwRsHJKEdE1aOywDTbH/jDftD+wM8sRPLrQXsU6AhBf1CZ79i+Qz15KkpOvY0i6mSkMgIPeuf2rbIGCjsYfI0IDQYNq+HcbJPhEfACCskDo8K6WD4mJk620nFYnidxUD5hULQ2L+cDaAE9vD6BqOh2YYn88bMv5d8/+UL++T8+k3/8X/8m5y+cB63pMIz7IKfxMo2IiJ4yd/lR8ezasV2iwiPUIHP80fGiMaWi6uzuhIEC79CvnG5dsWK5bFiPNmMshIYEQonlyjooQzon1XX1MoY29w/0IjIs0yniVatWwqCEov2DUOKQYRhQOgBUpgP9/boGx3xu8G8dFC6nIBMwlsJCgnTrdgCFiGYBDdR1SSTqq3mgcmaSdgxOONXIR1/MdVzkdSsfx8kUxvu015bRBwP2DTNrP0AOya+8vFxEmika/TU1t+oU4BAMdBkiuZEROFjQk3GImPicmjGSxMN1OIwhGK5333lXntn/NJwyt/R0dyESHdfI0j/ALQPUUYigSR/1M9u/etVq2bxhHSKrOPAxRIICA5AEMs/ZXIwRjJVAyH8AEqfpCVTtHJdsPzkSiPHA51qDYfjWrcmXtWvyYKzRn2GIdDOSJBr850zDOOSRG5M4XZ8PHU9nPQg6cTHjRFjQK98MHEZUDFx47McA8QsMEQ9ccs8MF/mDdHprZGRMGWDnXwi8wsRpr1IoW07V0FPEGINX3IuyU/DOc3X+vuDuXQxexGtgjAdc4eIxIYVWlx2Df24wJwiM3rpps7z71tuSkZKmCpDRA/8FudyqWIBA/NA5U1C+XR3dMj42idA1XcLoRYJpFA6GF9yVQgFh9NIDelyBEEfc94OBcEP6giGoZII/cPmjnkDg1kVp9hetOFs/TdPJBUkr8RL/QKBcGCQz017tZebm2KDiDsWACoMX6I9bbl5H/kB/0IZzr8ejeCehtLn46O/n0ikcN2iDK6ChPp+fSIQSiIXwdsGbHYWS8ge9VDY22Lw3y64oi0jED7rfZbWDfEyMj0eE4daNDhMTqBdtZ3uRU+8HsO2gfQb9NwUedHX1oK4x9EmSxMKDVKcBvKRxiYDAJyYkyeDAkE7xsC0qQMSHH37AEYD6A3EpyC9QEhBNUjEPcgEV3joFVB/oJv+Rh+VVORANEjnIdhAlp3w7e7rhKAxIKQzmgS+OyeefH9Z05swFyE63Tl1yyzA8BV0bZFRH4/KXv3wqXxw6Jtdu3JYhKD56hVmIrLigb79ixrzShUSY+kkJ1wf6rQ0cqSnJoN0NWtkf/ipPNJL0bjlVR+VJ0VGlBFD6cWqwUkGxL7U1ps2Q+yDgSIABCA0NU2eJURynY/ogA+EhoZKKqCoYOLglAj4oHK1g3cRBehjtjcOYKZ8pS8DFBWnlJWjkg5+zTZkF3wtmg0UnHIuKykpEcTVSXFyqO9YYeb/ywgswjit1XYwGoReOwaRnBpFesq6Z0eGj9NJR5FbyhLhEOAwjus6hbSYf8J/rNbpxgnKGxEX3WBhTbgyhQuWaEqeLib8XPLx56658fvCoHPziSzl48Ihcu3JDBhBNky9jkHkVBh3/Ri9QhiirOkWJBjPq4Jq2dgNJYAYLrEtahsnImg5sVejG6eY1grbCnBIn9Y3itZO5xbK+Y3Ax0LqYb8ojSYnxshJGe2BgUKfGRuGwdWCMVeA8MixSp7mD4ZByhskXuNwQGxur08AV5TVy9MtT8vlnR+STTw7L5Su3lHdcf1bng7ThSJrdkFluYjDtBo/QJo5dJnStARA42x4L0ELVUSYQwB+MY8oa7Bv6njiMs86yXuCdxFihzmcfUz9rKAb5YrtJy2JAvjwwKApQycaEYcBkwgOmcJpNDAZVUmKSPkNkmGDSbCcqHVZnoSGcC+ZUBb3CRiiJTw5AmRw8JIe+PCH1tbXiwfXCoiIowH4wEl4RhJ8KhhEQBxrRaMcCF+ngNtXY6BgM3DAoPgohLT7rBDforSF/sBoS8yQ2w3nueKPMEY/iApHQ8zoVZUeA2i/aPArplJYlsLwtjBwA9GhsRWpKoZCl3LSzyQAqZNBlDJoRBHpB5AmV3Qzwa0kSjuoVN+4ZWugJm40p9OaC4CExL2lWunHOZyh0gZYCgzIUO+axQfPjFl9NY+5wl6K1SwhleNUN5e2GUac3SBwaBFq0BuAHcVIB0+jTUHk9E4qU61WUDZ1Hxn8qCDoI9FAJXg/4w3oA/Evl7AU+3SzD/2gby3Lnkhc8Vl6QRHY0jhppICMjH075MrFelTPQw6kv7kbiTq1Wa6qwtrZGGiBLHa2tEgGFvgwyGxEWrkoqOSFRXnjmWXl6/1PKT04HHzhwQP75X/9dN2W0IbrnWpeyUmkm9YZWAqcv0eu6psORTA+W92Y5y3PUYxwf8tL0LRWljcTCqMAz7Te0l/JMOeFNynEg+mQKkSIjdBoNeq/6FgNrHBgFQQoNHbqTk9eZtFaVPgXyVPmqP3jVvmMB7mkfAriRglHx//GHP8h//sPfyvtvv6WeL6NIet+MKPh6Mr4ejEaKb2HhWpii1LrRVrYHPOAmFc4qcCMLrYI9nWZmBmhADL94nTLDt8lMQ9apiFmO+BnRtbS0SnVVtdShX+vrauCwtUt0VKikpSbp+gbHHGdiyD/iY99SEc8ZDvKJdFnujdJp0jwmEfCbRo7yzmlKrrPpWER7jROBUxy5dt3Z2alrlJRL7Utc12QwzQP2ifkHmM0A2UYbORuSl8ut+yFSUVUrbZ1d0tjUrI5CBpyq5ORkslRJZDdpz+I/Z204DfjJ5wegR7l8USkz3gmd+nSjXyhH/EewWqf1kb+kErcNf3CduE0eEmcnX7CuIRPYbX4pP6l3wVUSiKTyjaPqGEu2TUn8JfHMS3T3AUPtQ4ASDUIiEY5TcLdu2ACvN1LidJEwS5579llJTU1VpcPG+oISTZLZwSCrqaVFpwS4GDwEr5fzvOXwEirKKqS/t1/iYuM0D+eiuRBJBUUlSNxjCBfZXu6golWmouAcObcWU4gDOIUDIeI/CiTHgioO5KfAhoaHwRAF6HZMChSneexplolxj26K4C4tDhTqaTZc39GnoRnEG7+ngBR2UOmaQX1GGFEv7+Ea/AObYWw16p4yAgXFzSFk3dSjepMcRKCNgqLvJNRrSDwyAQfDbO6G4jodt9LSYM3g3OwqmtENDJza4/ZheqD373zgg/LVLdtKK5/HgBJA34xOTqjSdcMA6mttVHCZwD8kVANge2jQwEvko0vEt3FwEwS3GZNXHpyPQxnxTQF0KkJDOXcPQF7ya5rtBH7yigvzU7g+OokIQevmllYoWc2v3NO+Zl+QVvPORNxS/jAPt+MHSDC8x4SkBHnuuaflD3/zG/m7v/mt/Off/1b+C45///u/kY/efluWQ05paAXOTkJ0lDz/zNPyt7/7jXz04Xuyd89j4oFMnDp5Uu5ywwY60Ys2UgQsJuCcsoW/bD86i+s4VLCceuNA5H17KpzTU6PAxzUvVZ64RwYa3hkFqV2BO6pMKQMsTx4SFxI3EPDhSG7t5Vw/Nz4EhwRrHw0jouKOPlUCKEcvlTum0Kk69+9yByluA2SUfWC9vDN3dx6wqTi4wN/YqAjJTk+RvKw02bJ+tWxYvVp3v92+c0d3L6r8A1cQ+oytGkckS2WpY4F8wj+OSY4pjl/uLuQ07zQNKsqaxxRMXraXU2WTNATgAR8OdcPYBkHBMqrnzMZrr7wsf/e3v5Pf/+7XSB+jn38tf/v738hLLz2vi/bTMxhfNNBsAekAbtN1rItHNtC0G2wz8ow0Gynz3LrHPuF0GnfTcXaHW6N1oxHpZf+AZk4x30Vk+SmcGz5bNeE1Rkx5YOWdBbseO+GfRrLWbdZNRzo9JVXSs5bp4w8FRWVSUlapdXFNlGvoilL7z9RBDHzsgrtQiyrKZOXalfLee2/LRx+8Kx+//648uW+fREdGW7So1JmkDZ777Qu8RS3FO6rbtB6T0KrZvxyPBg9RaYuQxZTkZcq0zkTob81kxrCWZwuQnTcXAYPlAUErA3KqV3pQa1fmyh9++778+v235O03fyG/+/WH8vRTj+uaCBtBYucBftLKkqAJeLmV5RUyjA5//pn98p//09/IH373W/lPSH/47W/kb37zkbzy8sv60C7n23W/fJC/7gpi2+ubm2SMkQzOaf95fhvCcfj4UWmDp2GmTmjNoUJBhxonHLlfn8oyMTFBB3ltfYN09Q1AWVIBQqjwj1tx29vaJQEeNrdsMxLVpkAguHZBUMbiGg0UFS0qAV3GcLFe7mqhZufgtTuBeXTOGCiMYJpzFud7zVgJy7PTtS6ca4crHipmRIFQUlTAfjBUdQ0NUBDjqDdAy01iYDQ3t+rUAAdyeHgEaF+kHxTICz/1ZtWgkHbUMwpFyEX/cRgKLrhzyyk3sxglZNo2ewQWGrDExDgM4DBpaYOX19Op7SQ97Jfu/l5paW+V6NgoXYNQStA2SsEE6tD3idHhRvMpE62cmoQii0MbXVB4VOGkgW+MHBodl0lWCm+chwnPOIwgohfwggaBRpk79Njf0zAMmSmJsjwnS3f/5WanS1JCtMREhuh2Ya7NcI3m9KlT6OtWeKWJsnHjenkRSu7Jp56C0p/SDQLcPq/9onSzaZAk7Vv8wHU+F8IdbDSmnAXgc2CkeRptpHFqamnX59rIyxhE9/RvlAfaAvzlwZzquXmdEtrEOpFGyZPOdqs/4iUsPAQOSojEAR/vNbe1qeyr3CFxWre5sUk8kx7dUWqMBtBR7oCPeLX/mEy1i8KsjPIvM0Kx0bGMiIiQjZvWAXeCbmsnjyivbH98PMYUvP7mlg59nsmDcl7wahLjqq2rUzq7u/ShdT4zRfZxwwTH4/DIhIxNeEAT5Bw3GAW3t3coL+LiYyUI4zQYThl3qnF0uDAGs9LQt7lZkpezDFFxmqSgD2KionXdiQyepZ3/rHZru+zEPsSY077CbzOxBdB2M/EvnTN/lQ3ubuvp7ZKqmko4tWPWWDcKtquvT67dvq2zQZQXtotAhc5njGho2bdGwS8CShvptOVKJBp6hxtzSN/5S5ekuLREdylyV7Obc2haDoYdZem4UQfRAWiBPHApJHd5nmRmZ0k4+ssFh5ozEh7oAvLYbjPrNXxQLrHaObBI5X2V+dn7vMHRr8U08QplgBrBXDM6lwaY6pLU2tOqLEjZY0ZGxBxnNHT34YzqxgcGEsBuZLcyhQT6yerlWfLK8/vltReflR2b10tEGB/K1CDD5vUsUFBowUloT1evlJcUqwf75O7dsm55rqxZkadGb83KHKRs2blti6SmJEkJBkIrDAYHAR8SJPNv3inQ7cddEJqOni7dXn3o8GFdrA+AEueApZdtT1UY5oBpnG6BYKamp8ra9Wuh5Ovk7MXzUIxtUK4QwOpqOXfunHrDW7ds0R0nNKosRlymTVYHET+Z6+eFoYKSZ8I1Cq4fNJHxHpEb3NcS+E9Pk1EYhdXgQOehxzhdxkhP/7EsjvxvOpdxCvIijyuAi8h5sjwvV7eSXrx8FV4WDGpPjxSVl8ula9c08uOW/SAMVvVSUdYGCoIZkMbbrqmr0+ckuCW/tbMHRr5Ebty6CUUSLfn5y2GA2FrSzQEJ4caAZXlbyGigOGfOnY2dHe1y6quv4Dy0oE96pRq4z1+8KoOIjjduWA+DH2/6n60BXVSkhXfvSltrqxomPqpw89Zt3TKfB1ngcxvsL24NZzRYUW0elKUDUV5VBRm4o69hAVlqvAODQ2QF+BKNQXnp4hUM7BtS19gqDTASd4rL5LMvT8jJ85dlYHhMDVpnb498deG8HDt1WkoqqjG423WAd+D6NNoVyudqIOPsR7aV64QcUPSkexFBjCN64YI8t5znLMs2snPxojSiPdwKzNciXb9+Vft1zZpVcBjCMShVNSiQrxQOE03BOMETqgNP+CxaC/jR3t2jnvkd8IhbsPPzV0A5uWGgwmTV6nwo7FjdQXsTst8OPvC5sDsFd4WvIeKO0vz8fJ1uo2rxldtvAsokidMpLJZD8seApiz4ITBJz0qXDVs2wzkakRs3b+oaHB8m5xpcHmSTdPBZo9qmVm0D15kvX72ukT0fvqexVvkGXk6XV9bUyDW0oxbOVTPK3iookMIitDkakVvuMp0ajIiMktVQ2FR459C3V24VSX1TO/jVJldv8hVEJ1Cu0Bh3MJPjTBvChHYon03zdHo9MJDr5R5p6+RD1T1KB3NogIEj86phw286Fhsgv5y54OMOfGaP787j1FtNY6NcuHxFKqtqJDsnD/oJY4aGD6F+K+SO29ObmpvVuNv120cFkoiDzWcmRmiUNe6YpXGsq62RoaEB3cGaBENMWWFiQZJLY8kjx2JkeKROA5dX1Ehpea1UNzSDtxjTt4vQT/2I6uCCwzCwsHKEg2eWItNugxV8At85Vcw3VnBNe6C/T6daDRh+quwiO9ehTPBiMFs3rTYRr4XZoJZ+BCaFhYVSVVmJ6Hp8tpsWwkNvM7eRQFz1B5U3mwh+ohIaLjq0IAz35sgC4MQuywO3/F44f1EVG3fR6ev6cYNz6XwYkEzklE0fPPC7GHTLsrL1OQN6j1wErKmukbt3i/RBvNKSUrl69YoaoRdffAGCvErD+t7ePrkDzyYcimvXzp36XBCroahwYZCL1/TU7kCIuBOrqrIWeG5IE4Ru544d8vyzT5sHy0A439xbWFgML6pHdmzfqq8h4ZoRmd8EhcSt3XzaejO8cCqDmpp6qQTzuR109coVqJTbw5vVa8/LgQFevQp8Ixf99Enrgtt8psQrO3Zs0223ZBYHC5+2r6mqkJVQ2KuhcMhPRgqki+srfGaJD6GWVVTJxSvXdGfX/ieekMe2bZMgCJhuFCFBFlD4Gdk0tLbL9Rs3dUqwHx4gd1fxgUoOQG6XfvpJ4NixXcszyuGuOg6UtaB7JZwJFUwVPFGlGQ0F0gfeFKCv6urqkb9erl67qQ8Bcqfhs/ufRPQSpQLe2t4tt+4UyujwCBR9D+quhYdYJldBPx+C5TTbYzu3g36uI0CegJ9bpEvh0PDNBtziyh2WjRopjOtux62bNkokX5oZGo72upQG7tJsxACl03Ljxm19WJvbjvncBo04lRR3/HH7LZ+Rqkaf3YbR57NISYg+ngYfucVWZRx8IG8r4ARwt1g/ZCsUsshINSQ0WHeHMnotKi6RpibzAOr1azfA217Z+9gu2bNrp25PZiRDXMo49AP/sZ/5LrcC8IRTSIPDg6Y/QD8fNOazbruBYzd4EhIUqDzRh6ihXPhoRVlZOfjSpHXfgrxzOvGZp/fLutVroWQChO/V47M8VApr162R9LRklS9VHiRjAdAZYWRNPjc01EPulkv+yuUc4HqfO1H5IDM3lzSAF3xQMy0lFdFTsISEhFqvQSrWxyyqYbSvw4i1trTIlvUbZP/j+3SbtAfhVTOucZ2Qz+H1QnbIMz6byPdYMrp+fM9ufXwgKAgGBe3gtmcacT7uwMdaGpradHdoARyVYThB2VmZ+mwenQ9utW9patRlB06L6ZovGkutRHeANPLZOL4UYHRkWBLiYiSWryhCZ6jOBnBss8VcV+X28QBEy3V1DVIMPleDN3xM4RqMFflPh+CZZ56G45in42IMPOcD9EeOfqk85k5fvmtQ16jJeKWDuoizMH7S2NQEOS1XvbJx3WrdKMQ3kAyi7xvRB9wJ+dS+fXACUrUsN/xQTtnXfJMEN63oOwDRNspSJWjjIzTcWMGlE77xY2JiTHfWrkVf8pmvhsYW6NFaSU9N1WfddOaLRFl8YsTFZzRr0IctMLLcqEUnkzMaFXA6+Owpt6xzRzL5Ww2dTFpzYVjpQNPAsa09fYNShH6lLK6Fo8aXAPARhc8//1zfGkRDzPGjMumjqwgP+aojMBW9p9M9bAU6kvgYRRCtC7+5hdOw3garQj3gHsviNnfjceF0584d+qAcd7ZxvpvKFI4A8Jq1IhoSCg13rKWnpqmgJickaUdxy2JfXz/GjZ9kZ2bJc888K5s2bgAe88oTGikuAPLhOW7X5QIuCabHQSnkbjeW42LzQP+gzpPHRMfKbkR0T+/fL3GIIpiVC9ZclOYOKk4z0JOLhhFhFERh9MATIw/yUUceBgTXmMZHJ1QgmTcdSow737i2xU7Lh7HJRARnWGKiSoa7SSmJwrCez+yQT6x3YsKrhiZ/xXK0P0U7kfTy2Rw+x0ITwVfE8AW1KYlJ8sxTT8i+3Y8hkg01faNt1ZoUdJMFeNvYiogFRpUDavPmTdIFj390FMoeeJ+Ew/AklAO3kquTgf7gVEUIBsNqCHcqp9HQhxr448jdY5GIDjJBT1hwqL5hmTs5I+DN0TF4FsYuBYJN54WCwGe17iBKWAbeM0odgIHkQ4d8iHAf6n0cBioO3rMLw5eReChwcvMNt7pSmVC++HzMNkTY7L9l6WkaOXGTDLespkA2UpKTNXocAi1eyEB6Woo6Qju3b9NnMNhvfCaEuzgZcXEH2NDgsPbP6lVrwMcnzWYAyKDOGuDIZ11C4Rzo7kLQlQ6Z5Hory3CaLyUlTT3OYRheLqgnxsXKE3v3aptiY2xZsqY/8E8HAgDdD6PdroOYb6bgVn5O1ZGP3Bq+97HHNCVGR4EnGEPIz+iYxpFvyuc0ON+8QHnPzs6Bc/GUeWbFmu7i1DWfa4qOjlRHJxZH28FYFJQ+Rjfoc7SXZZKS4lGzGb+cciav+bYSjjVuNuGbJLgQz4fJyReut3GL/+jYiCrPXTt2QsHuhezQOBqRpOMTEhqkz/FwjA5RjsE3vr7n8b271UmJgdOhswigKBSOZiraHAcFxz7lw6CUwxyUpfLmowXaZgCnB9lXuVCelAVuHDLjgNOyLnV0qX+otDnly2fhYmEAMRq1fQaQX8cP+A1c1Dl86wGnvOhUTmLcc/2cswP7IeMr4LhxrYwRsz66MD4i3E6fjeg6gztuSQORWXQQ1EDhnFvquVV7eU625GZlYIxzY4xZd+MW+rWr8hF9rtSt8so7tJ/ROHXiChg/bgAKVJ0Wo7sl2UYaFE4Hrka5HRgr3PnM11VlZ6RDP0RAZ0wpX3KhszIwPth/hjJywR+GiA5HmBn/cBgoN3wOLyQsHNHnuIRDxzCqS06M13KcUaDzzFmu5JQk5S+J9Xj9oIdnIK+IsNG+SDhX43CMJycnVa/TQOkrt1i38mYOHup7UMYMLTQ/5hePen4PNlMh9LA54j4FgE+JU+nxgTHucqIincPMyIyePtcZPJqXu8r0nU3oOCp0ekl8BQ8XhDnQqDxUCHGdip3X2IEM3XnOAU28FBjWQqWgc8IgjC+DJB52uio5LtAjnzESpgVe5OGiNBf/aTBoKImHifVw3pzt4Cs7uJ18HEqD7SPNbqt99P64FToQQqNGCIWZiGPSMy2eaY8EhcBDJn3AyYeRPQjXqRDdgf5q8AjkNDdJkDJuEBkZ5fvjprWNocBrL0gy5OY//QFgcz3INwHxu3SzUP7hH/4RimyTrvdBgqBUJ9ULiwoPkSC0315vYVDPejiYOQD1rcZAZis48lI3axC/0jOmmyOCgkL0bRAuP0TWzA+cXFC+eqdY/ul//4tsgDdl1823J7jdUHoYaNwQw0HOSJxIp6a5xgSvHvznhguOGD4wqLvCwGduZw2C8eRgoHdMWsgeD+7RcJNj5Hcwv9tj8YJg06wbHFA/H5EgTj7v5XZb3yNDBtKCbLM4Of3LC/T6qEB0/Qf3OY1DxUhHhzsQ2fehbI/KNnWdXTlzAxlwsxfR9XID0dM///ufodzT5Xe/+RCKyA1DN6rjQ2Wb/YFydAKt0uoowgbr4xI6DlAPB3owaLLHgCoX1DMGutlOOhlUfsSlQAYsAMWPP5RJTpnxuRiz7sG5B/AXSNFUlWe+VomRLvnP8URZoXLjexbZV9zZqv3KcWU5jgRtN8bSBPqUMka5Gx+bAO8g68DFV/iQTuWbRasZ92x3gK7v0WHkeg8f1OaY0uebUIBUckcnFTTHqcoGgL2g4x7nHLNc6xyHTPMZtwj2OWiYN16YcK6aDT/YZh65Vsr1Hgwl7X8+h0lHhnKiXcwyyEh9omvniIT4DknKE4H47ErIB+o5rhtx1zLbHGLJHg0X+UgcVPYcexyTrITjfxQGkvLJTUp07kkPdQ83EnFr/tjEqDoQ/CoEIxy+/5OzXMGkBde5AUh3RUO2GD3xeScCaScP2Y/Ue3S2PJNjuhuQa4Fc82b7+f0qPmtFw6t9A3yc+dKt68hr7DxphT6kE48mc1yxPq7LUX/TYeMMjNHKSIYts/CQHywk5/Ffe8EUM4i/LVj4zJn1Zw4fz9SI4IYu5uGKKnTkI0NoQMgEZlFlg2sclHOKAGAjZiYLvxEQnvGywW+X4V2DG1d98SjwN0vbGAzYeCjcLGJyGFCB5xUQbYTdnPOq+asnWp7Cav1kRqt+g20+nznQODWE68hj72Qj3brVE9fm8cACCjAN+ySYePlGgfzjP/6TbN6wQf7wN7+V8CD45nYVxIv6dJszz4DK3KLY4gpp099zwPu6O5P06CBinygqHRRUnjyngbp+t0gN1LrV+fL7334s4fQKWSfKEgUr0CZpJSxnyprKrbrwh+2lCuNQIr28yeLkC0GVNBEBeIntJ07yy/zmOiHzmgjJqlDpJjpTlD8M2HTYOBXwW/mDG/xHGnibqFifkQv+Ji8tIAOZFxWRXo5AGqh//Y8/aWT4h99+BC84CoPdlDUyaurlb4JiwB+9hcq0Xfinv/FnTp5RDU5JI68wUeGbu8zKHIvDXC6WM/nMX+s6fhh8BJODvFP+4YatsG2amJdOkw16mfe1APObdjC/zbcFrNb+0ju+vFBEVrtADO+b0vxrjgTit/Pqow2UM8VjciuYrAqkzRdY1hLx2fptfPyjtC4ow3v2ZfvWXBWGZ5rYdp5pfv2jQPmY7X+t2AbqAHPG2SYDpn2z/GfH8JwX8F83yphc+pcbLObkE3/0ug1mVJEAtov3eZeJNOkZyuo9/U2YO+N98pvXWIMZG/xlaFBAedM0/NGLJo8v+IyaBwEiYnVGIZiGfjsgY2ht1VaTwcrk+fhIMzuFisQ8H2TXzygJuXGNz9bQGlNyeE2tto0PyWzXxX0f/DbtFGgYc9yComI+0oPEDjeMN/mYtOy0V+9bXJ0DMhpCYAuSlgFO5p2jG90Kj1GvUXPhGtuuifWrNpvjq/LEusftqmZgspQpyb5XpY88bKM+tIe85NdixknB4gFZ5AajQuC5hMAD5MTDDDylGXi7YIJpP3HjqNvqUYfSzn4gHUA/GzVYiWBPjZDfpk+AC2Vtha7swSm9TV1X4JOcKM328dkuerWsUw0I2sDSBgPbSbxoK+g0z2eh7xQpyvAu6WFZJMqBkQ/kh3x4gduWNeZRXrNNyGNsMOWEz9t4DB8tHpA2X2ArmJTfpBX4mcdEk2Yw8VECtp14yAdV0noDeYlzFq/FR1KF8jSQ5InbzWgbd4F/Gh7vDKJqcoKPTRguGJpIh9ZJ/JZcKc9VBpjD5GX92gekhe3Cfb3Nu9ohXwPIa+O0gWVJB5ORTbQVR+Wt1md4Tx3B9ht+cqO+4RHz2P+09eCh3S6OFR2v6AutQ/P7JPw2axTIa7XX0Id2mTlnzaf3gYv3+LiGuYpr2g7TZ8o3HFmX1km55h3WaaWFQHpYD/FwrLBt+sA9+at9rNnmgDoB7dMxw59WMtQwmb/aVtBrdAv5OJcHhXEJZ/pjDpQGlGH+OSDP2DZcs+SQifhtujkDxBp0EwnlhvUqjgUVsAxycrOX9gsiUsNrXkc9ODLxtw3Eo+NsFp+V+JuhL2Ta5GebKB/kjW/ee+FH/eT70gNKpjncj2GPMhh5gjLGSKvjG5rPX9BPAzyxZ7cEuSiOyIC2G0/zO26/1m1ktK65WS5cuqzrFk/s26PTH6zPeFz3g/n0cHzNgtVfvMTEn4thYg6Ty87BhHo12bBYSRvse/NpeXgw5ZUanPIt1dyifvXaNV1D4Bocp62oGIxCtsGul9pw6YNN7ddx9MeB76ofvzugPPtStZiBfFj48fi/kK/fngLHQP0MgT4rPR0u8nJhlnP09Ly+q4FxfwByVMC3cev8M+e+EcHRLhmDs1jluKGXv1lMlX5zOovJF6MxT8zBq3N35v/64YHmkZtkuB7A+XvO9c8a4B+TMAd+MPA1UASVZafvHQP1/QOlbGmxWIUfyZoVUbAp/D4HBdfeyA8qZD4rxqmC+bzB/VkCcF1Pfe9/PSzAdA8Y42TDXI7F8jrgwA8Ns06JBY6BAk8cA/V9AiSM3FVBWzpsJiU6hTfN+WqQ5wdT8QMMBttAcdaZ60BmXcJU/H3Ubw94PfwA7furAP2h05z8h05ZOtLiwKMKs/K/1GX/a8AxUD9r8O36R1iKfyJgmyXfFTEHHPg5w6Ox2urA9wRUhHZy4McGGibHODngwBw4BsoBBxxwwIElCY6BcsABBxxwYEmCY6AccMABBxxYkuAYKAvunfn3XZ+xk/33h4AfriYHvjv4tr02J2E/bXhU2/lz6Z+lBs4uPoD9kJwyAie6UL3I3kx7CZv55t/+LllIxKyfB62JFxXM2xZ4Nq/ybwnzcfDX/OeEHg14GE58t61bUDOQ2/JhXt5iarPfjmH4uzgY+ZvDx3z6miktwD5fUNcShDkK59PqK1OmnfZvnCHr3N0lCqSZHYE+sFumNFs/ljz9jzg4BgqgdgBgv97HqBkjfPpciv40AsrE6+YlowD74mypvwaAQS0fE/DbhOGctDGZ193ZeR4eTCn8tSys1sC28IRKkb8tmNWL366q7x2MwntwYNsW8Tu+BQCJDyJbbsz73YyBonzQsPC3ne5Xv75I2G4Lymg+npuXT+mzatZdqy4mWy6/P9CarLYtBqxe24gshhS9omdzQJmyMli0a1vZzu+7AQCb/oc38ia/lsd/fV5QryzEY8bMdyNXDiyEn/EUHyXKJL7Vl59u18+3I/HFl/yrj5Tqy1It0HtW4jlGpslpwD7+9WBhMpXgxCgwJr5O39D98KCKxE78jWQEABesOvnbTszH+s0Dtg7MA1+WKDOpqIwsqYFiAv8MV78e7G62E2WQponv1ySO6Rl/9L110+q571u3sy3a/ZqMEiZNvomvYVUalV7mX0iUKa0U49SMKD4U/kMZJ+vkoYHjzUpKs9VOMyoWJPuaA98H/EwjKKN0zfAxA4xHvlXbOzkmnkmP8FMO/JaM2x0sge65z0HQo+Lg9HgmZGJyQj/oxe9AGWx/LZCQe4Wdn2Zva++Q7u5uSUtLkaSEhG9V35xhYjuQ8MML3Px6qeGAXbefvl070MV39KFtdsElBN+GJLZwEfZ+CyASg4hvtOZ3svgmd3dwKC77yfDIiH7mm5+W4Ofgw0OCIWRQ8nPF5gHfjK6fvSaOoBClkx90a2lt07f1p2ek6QchKZMeyNzUlEeCgoL121XUwqrrWYhgKX77J+FhZIUK2SSQjPHAr92yPsqMjZsHP/8A/eIrv0/ET57wzfK8a3LYQCymbnPG76RNQuY8+t01/cqtdf+7BGOY+IZ6vm9yQt9vyA8OPmgUNfd+dT/p6x+Q9rY2/XAjPzxKug3P53Dpm8G/h3Y4AHn6ORooGif+44voaZz4xdH+wQGprW/Uz3X39w3oh+n4QTp+jZNfgeRXI4P0k8gwYtNeKSgolJraGnls1y5Zlpmpr+3nQFg4BGjQHnh6YYEG0+kFlB0aG5FjJ7+Sy5cvyasvvyRP7ttr3nS9EC+yqx+/SH16Zban0W6c89tQbZ2dcvPObRmDQuTXYM23sAJ0IMbHxelXfBPjY8wHFoGEuO1pExsetI12uQfmx31gMeOkmHn9a1BrLGzdN6Q8KN36dzaviWb0VNrb2+XOnTsSEhYq23bskKDQEKmurZdPP/1UgmFA3n/3Hf0CMT8Top8docNtAfnBqcCOji65U1CgH0rcyk/1Qxm2tLTKocNf6ie/f/nmG7JiRZ6MDI9KSWmptLY0y9q1ayQnJ8fQARz8OCZ/BPJDcXCY5gB0a3owYE5V0GgjPz/P+tpgKIlTX8GE+ijnpDUpOUm/KBwdEakf02Ot5v2KxGPqJZjpThhdOH6FpeXS3NIm60h/Vib6kp90QKYHJfAbQHlKZwDH1tZWKSoq0nHMr0bzs+2LyqrVlzYNpFdfqIxUUFgsR44c1XHw2ssv6ufK+aVmHes2Gt9ZFge+U3jIT77/NEC9QSQN3SGdvfCSjp44LZ9/cViuXLshxaUVUlFVKyUVVVJaXimdiFwiIqMkLjZGBxS/0nvuwkW5cvmK5EJJZGSmayQyJ7A4gZBzMOA/wCgIDgxTs7nGM5NnLq/JT7AGGjLzS7K3C0vlLoziqlX5snJFrvB7QQYf6zIKZbY+U4He1yOuWZeQ1agNttuLVFVXL//87/8mBRjI3b390gTF2AjvvwZKtri8HOdN+jXUhLhY/Yy0RbahlfjsOhVAjV2RD9zbPlNgoaLwxTVbRs/n57XPeLTvMzGytfMuJMPGNVeGeecwLaSFYNPAEooXZ4bfvGfuNzY1yunTp/Wz+6tWr9IvjvKT9pcgG5Pjk7J961ZEP2H6PR0aJ5sKVkcc9PLrGhrk1KlTMjg0JKtXrZIQ4Oju6ZWr167rcd36dZIEI8f7165fkxs3rksComhGZ8QxNDwCea2SlrZWCYUyZn/pd3ZYFRMB9fm20LSNZ/P7bLZ9OG9F5HAQY+LMufPSAzpoqBpAayNSJeorr6iU4eFhiY6OlojwCPMdKOLlP8VtWstIjLZ5BE7Q5Ws35ebtAkmG45eRnqrjSUHzG2BZ5Tv+G9KUKmsyzT4z2O0+0vy8xgN/o86Ghno5c+aMfg4/Ly8PBirCcsA0KwAnmt/80sLWTVJFI1Xf0Ih+uKFfh96wbo1+fp3ZaKAMdVbdrFOPFo2zdTjw18AjaKAgAbNgBITgI1s+54tLiRFyE0V4pjxy7cYd+ff/+BO81jaJjoqBt7pcv5PkDnJLO7zbegg6Pw29PC8HhiocuAPgqbpVaeSvXC5REeGokx6y/dJVUy+NAQWdBoLibA8wfsCOVNNs6fDU7LyCU2Q2P81v/p2EEquoqpOaujpZu2aNGihOiuvnn4kPmXRwsNFI8142qpdNi5nXJIOX0WNbZ5dcvHRFEhOS5NVfvCKbNqyT/PxVkpmVJV4o1cK7hdLT3SXZyzIlFopIxyDq5eAl+KFVit38VDpYn10/j+aceUwy1DDhjk0b/kCnaBb9SCUuaR38r4nXDCazhsHSVAo8mt/oAM1P4MGmwtxHPSzDS3oT12jU8cOiQOswwHs2PSYfr/E2zzippdEQ/vtDK4fBAGWBXxkZmeJCJNHd2yvFRcUS5A6SbZs3SyTkg9PH+m0nIrATgHTx0/5hyJOTvUzS0tN06mwAxqgE0Qadoc0bN0LWErRQYGCgRi55ebkSFRWtvOpAFHzs5Ckpr6wAjiw4EzGqoM0XkVmHFlXQA/4oH3iK8myX3W8E3mLq6++Tm7fuqBF98YXnZM/O7bJq5UqkfElMTJTOrh6NsFzg+7KsdAnlVKYiRgKq2T7jJdDCaUEX6E9G2eW5OWowWCPZQmBfKDE8JwqcswUqYVYenjAfx659jf1jt4PAqVV+Cp6fSY9AdJcNvmZmpAs/PY9SVjJTk1rExqN/8UMRcd1PdJq1tKxCv9O1AVFfeEiIXlcDZQoo8JrhM3DO8J6F1Do48O3gETNQtkSYoxFI33MCBdV4M2bALSYhVDqIUHC/d2hYDhz6UorLyhEhxcnLLz4vryBt3rReFQa9r472dpkYH5NMKI9lmRlaWXCwW+IQVcTFRmlkQQEdHh1T5eQXEChjY+Mwbu0YxN04H9V1Krc1Z0+S1EODEE94vNLb16+GsH9gSBUZTI8qh8nJCQkKDkIENSWlFTVSU10t6zFI8jWCMu2jR+idnpLBkWEYG9TX0yOjoIMDKAB0cPAbvc1hbf6RZTqNgfLtMFA3bt7GAM6SX776sqxYliWpySmStWwZFG6GTj+VlZfqAOeUEr/uyQ/aTnpBd3+/tCFaIP0ej0fr03UFy0DSwHCaZBiecwei0PbObvBzEG2cEn/wgmsobAOVmAfXevoG4WWbtZgetKMdvBuAh87pTPKYxoCguK02jKPenr4+xd830A9HYkL8XFwfYZ8wp2ikODg6ousJU+D/2KRH2jo6was+GRlHfcBLxUlJUYUKmvhhxbHxCeDuhwHoRhv70Ff8hpVrNpJkTwXAIIVDCcYjomH0wjfDdyHauH2nQM/XrFmla1RtXV0yNDoKv2JaAtkWdgp7A3n8wbdwRCBxsbESFhqCewHKp8LiYp16pSwmw0CxNW5ER7EwQLExsaqABxG51Tc2yc3CIu2PzPR0iYSh8Pd3KS96IUdapztQ20W96UG0zyntocEhxUGjRzDjBU1Ttpn1l7tFJegrl7z8wrOyae0qnfLOwhjIhixERsVKVXWtdMFALs/LlqSEWJWDfoyZwZFRyMm09IF/OiYgE8FQ7m44drExUYi6IlEv+gj/hkbQN2jHFIgbQ390dHVKV3efjEMWlD6OG+16cBwkcnMG5W9oaFC6wFf24yjGGCXchbwutF2/LI2y4TCC8RjXYaHhypMJ9D3bxb5V+sCfDuBgdMopb7OuFqC4OD6bW1rRDyUaJW5kBBUWgjEHIoCfY28MeqET7WuDse5XHHAMlF4zBWix1IFvCY+YgWJv2z0+d+TnwkdgaAYgsBRwCgeVyP0MlPnsN0YhFBMH0pkLF6UZnlI0PNKnn3xc1q9ertMyyYlxKuz8vHN6SjKUdJqkp6eiPo9cuHAV6bx6knExcfB0vXLjzl05dPwUlOYUPMsKOXP+ghTcvaueMBVvYmKyhGCQ6ufCQcfwuAfCXyFHjp+WK9dv6nRiY1Or9EI5Xb5yTQffckRzkxhIpeVVUldTowaKEdQ0cNAAjEIJ1TY2yNkLF+TcxUtQKMXIW4GBN4j2RGp0R0+RfDD+qDEIpIAGqq2jW65cvS4x0TGya+smCXb568I/cwcHBUgnlHNxUZEsg8HKh/dMTTEAXt8tLpPT5y7KdRi3opIyqa6p03bFwmhzUwkVCVc3W2EAz168Bl5ckjsFhXAEyqS2rgl5Z8C3WFVYUxjoPb0DcuoM+FVYqrRfvHRJrt28pQqysaVF88XAi6WBYNd5UYbGq6CwBOXOgo47SkdFZbU6CmHh4XAi4O3CAIxOTOJ+gZw8ex5KZETKq2rlq3OX5FZBkZRVVGnfxIDuECh2GjXS3QMlduN2AfJdkFs4FiNSqKysgbHxqOfvhsIn/1ra2uXEya+kta1TshBBBSHqZmRxp+CujMAg+UFJ3rh9R27cuqX00SMPCwlDNBqD3kAkCkPY0NQiJ06dkk44NFlwBIJghKhEC9F2KtJNG2GgEhOgkIfl6vUbcvnyVV1X4XTT1Wu35PT5i1IHIzUAg8OpxuHhEfAqFnjbgPe0brjgWhGNMB2jHhiys+fPyV0Y0bi4OF1r9AU1UGgbDd6tO4X6ccktWzaB5gjx4pzS4+dClIJ+rq1rlubmJp1JYB2ckjx34Qr67o40tXbK5WvXpRiGNgJyGIk2X7t2A+k66A+XxPgEGH2P9sOZC5ekq7dfSqtq5Oyly3ITtJVA5sfHJyU2Nkb7hhJPozKMMV4Jw3gO8nfpylU1IGUV1eoYhISEoq4ImYGc1jQ0ycmvzkp7e4ekpKZAHkLBk3Y5hb4vQV+2tHdi3IGeGzd1irsV+WhEI+FwqJyBDc2trdr3NFCc4gsDfhpSyl9Xd49cRTu/unBZrt++izFBWW2FExGI6DYSzho3T5GV9+ogBx4MjEv6yIFRuExUGA0QxAIM5jIIdHFpGQS7Et70kHrZthd9D3BeDImRUDq8TnegW73RC5evQKEUqYfNwbFt2yb5w+9/LR99+J5s2bxRp02mYLC4oeLWrbvSB8VKNno801LX0CLnL16RY8dPSDloCAkJl7CIGGlo6ZBPDh6WgpJS3cpO4fZAmVOZ/uWTz2DECiUwKEQiomLUEzt28oycOHNeKqH0PYie9PkabYfVFhxoYDlYG5qa5XPgvnDpik5hJCYmyfDImBw9fhJ4TkPJDCI7jBI1k8J8fthDh4OIU03cvUevlVNY5O3Y+AgGmr/yh3jGcO1OYbF8duCgRnRRUeESHRMJOhrl04MH5AqMygiUKmw06h6CIrwqh788qsozAbS5YTRKy8vls88PyF14/ZxGpEc6ODQGRVYup06dlQvg4Rh4Hw0lS8N/EUrok4Oor74eFKAtaMLw8Khcv35LDhw8JDV1DVB+0VAiMTDqPXLkyHE5Dh72oP5p9BcX5+samqE4L8EZOA6HoViVSEhoMBR7vRw+elTuoA/4VVtyZxT03wZtB788gjqBG3QwUfkcOHQIxvOyOkKkg9HbXSi3isoq8UB56xoMFBhlj2s4dFAYycTCix+Hobx06bocOXoSnnkH6vJHnfDiEXEwWuK6DttrvHfTLwTWQyPO6T6uARVAeXfB8LPPOA3NHWYBcKQC/AMRcYdBlkLFPzBIJtCe0opKuQbnpxvRKB0URgVtiIqvXrsJvtUb/EhcJ1oIdDJ4j/qVEYkqWkbHUP6MRBnZ8yvAAYg4XIgCOQ6GRydgZGrlJJyNsxcv68wAoxpGMzR0dQ2NGKvFMGR9Gil7ICh0yii/xyGv5CPXe8LCIVMwul8eOw4npEhnGsgTD9pUCSP2xeEjasRoJOMSkhT3BThoR0+clKb2dvEgbyfGZiGdlppaRPHjiKQhk5DDO9AVJ786B6flpvYjZYdOzVk4qkeOndB6OWVPWVNgnyon8JfOLY7d6Pev4IAeh2PR29sDQx+jzsndwkI5BLmpqKpWx5lRlnagA98KHkEDZYSGfU4haoVHWgVhiIqKkpzcXMlIz1BlWFpWrt4ZB9ViRko/0ocBFgYB37djp6zIydXw/wIil//f//5n+be/fCLH4ZnXNtTDiAVKfHyMRHD6Bf80FvF3i7/LDUwBSgvr4fQWFUV0ZLS8+for8puPP5Lf/uZjeenFl2VoZFxKyirMQENeRiFXoHjpfT739FPyh999LB+9/668+86vJDdvuSokF4wC6VR69a8BDhBOJdCgXrpyBYO6Uh7f94T8za9/Ix+8+768/+67kg0cV+EZloM3jHr4gUBdOLcGmg061Ym6aIz6oNC7kXoGhqUFiuU2DFERjCqNHtdY/F0B8Do75CtEIh7vtLz9qzfk1x++Kx+//7a8+drLUFx+MEgXEHV1gm5R5VRQUCDR8Gg/ePtt+e0HyPvee/LyCy+CT/5SV1eHeieVPipraDE1sps3bZRff/wBcH8gHyNt2rJFPWZORdJgk+ampiZ40OdVsXKX20cffigfvP+evPfuW+rJXwFfSkqKTd+DGE5TUUlyo8svXnxBfv/rD+Wj996RZ/Y/LRMwSGWIeMegpNi3/TDqhUWlMFTj8vzzz8lHH70vH8JBeeON12BoEJnASDBaV7pnzBQdjbo2GkkVOYDR8s4d2+XXH7wnH3/AtnwkGzZs0kj5FgwipzXVLKCPiYNrNOpMaPLppdkTs7bCKUIXjuGhEbL7sV3y6qu/kGXon+SkRHkJ9L74/LOSEB8n6RkpkpWdLR3dXdLQ3Ky7VWkAm5rb1SFYsTwfZVJ02vZ+YGYbuN3cg/HhlXH0+xiO3FhER6OlpQmORyyciSjkRbsxBphciHjXrV0lvwXvPnrvXVmXn69rVTrtjLHDdVwCDTqdIXIsOSFefvH88/Jb9OXvMHaee24/nItRKa8okyFEyzQZfYMjGi23ILLZ9/heHWMfod8/ePc9WbN61ezmDRpPyhNpMdOpBigDuuaHCG7Xtm3y8btvy28+eB8y/IGsXb1WdUlRSQnaOkHi0L8sZegzssTlXxh+tP3qjRuSnJKEun8Fmt/F+PtQnty3DzzplJu3CtSJIksW0z8OPBg8YgaKvc1Esv10Z1RLSwuMR7xs3LBe0tNSJDc7S9auWS39A/3SiSiIEcHCAUhxCwAeDBUJghCvysuTX73+uuzcuVOi4ekyijl19qL86x//LP//f/5X+fL4afXyJiaMciQ2zldzmkodJINWhTk4KFh2bNksG1avlEh46HEx4Wo4GQ1wbt5eH+rtHZRqeHYpyUkQ6t2SFh8lkcEuyclMkW1bNklEeLg1yOYMFBPrp7NLxdwGD/0uPPRIGMT1GzbSuUXUNy5RkeGSn79avdMqOwqj5+szUIiLhBt807r1l+389Ivj8vnhY/Lnzw/J54e+VIP6xJNPSm5ujj6/wvWOOkSPebnLZRmUn9frQfJKWnKyLFuWo0aJUypUtdxpSN5z3W0KHq53YlRiI8Jl59Yt8vYv39ApE/8ASxmzW3HC6aZN69ZJMjzSCEQGyzLTZOf2HYguo3T79iAMOyOJWnj/7R0diGo3y9bNmyQ8xA2F7ZYVedmya+d2KHI/nZocGR6Chw/caGNYcKhsXLteNq5ZIzHgbyL6JDdrmURGRKsCpIHiAjv/cR2Ia4Yy7ZXJiWEJDPSTtVC4b7zxuuza85gE6WI51xnM1nyIgpEDZSy7zV8yUtNl+6YtkgJjERYcJNlZGbJl21ZxBQUhOq7RdUP6H+Q/p2xN9xABCbaOFphfxlioDFp9yWf1ghENMrJnO0PdAagrAO0XnWZalr1MJtBHlYwiRkZleGhIGuqa4Ey5JQdOGdfNiMs2qjYQu8o2Etffrt8ukFPnL8lpRPbHTp1BJHlETp3+CvTPyNatGyQpMU5ps0lOxJjcATlevTJXEmKiQROiPN5AFmazyAejjPyFhYbKpvVrZT3GTUxYiMRHR+jGi4jICOkf7tdHLbwYrx2dfVJT2yiJCcmQo62SFAfc7kDJxNjfu/sx2bxxvQS6XcJHQWhcud45jUTecXxoxeBtclKSrF+TL2lJcRIVFiz5y3NkB/AFwSlsamyUkZEh7RsFizecteA4Gh4dUSdjaGRMlq/IV2eA64yBYHp25jLwPQZjs0PXEX2NowMPD48c94yMmQE16YFHiKiHXq0umI9PyiQGelhYqC42Dw0OGOVkVMcsQG6BB0qInitSMAR8+9ZNGgm8jwjmuWeekXVQknwYkus53ERx4qTZSmyDKgmNZZBYB5HilxsCGQoFxIHox3sY5TxSYXLTAxU6N0L0I8obGR6RBCjkuOho4cIHZ739US7AjwvpGM4cTPPA/OZlrvf09PTpFOPg0Iicu3BZPj10Qr748qgcPnpKyhA9eCYmZLC/z0w96Wgz5cnD2UTDheMQlCW3O1dV10hFVaU+l8MF7qefeloe37tHwsFT8rqru1tGMECbWpvliyPH5S8HvpRPDn4ph0+dleamFpmCpz0yOIyq/CQJA5fPu3BA09h9DvouXLqmz6dkL1smq/JXQrkiCrV4x80t6vSCMD5a4gc++U37STSME9fIaEQG0Kd8+LK7p0e9YXqwwYHwirmRAjgYmVFhREVGIpLrgEIe1OuMHhl9BLu50wzdM8XnyFAH68SRBoxAhRKFiG9N/ip1Nk4jiv4UbTx95iIMZAOihURZAwMXFRml+YlD5Ytal0cF9rmJqClffG6GbWG/RUSE6cK9blKAseDUmd6gPGlx/J79a476kLi5qWDOtGJTLRJjUM3HI3Aycc2FG33owNTWNegaDbeL06lLBI+48cWlWhvYSIcF9pltCAf6++XOrdty7iynXy/IVUT+NYg0YqMjEa09LY/t3KEGhnVr36FMMIxEMJT9NMYoDZANxEeiZ+vAGe/SIQgKhKFlo2hcUIbXAjAOOJVNh5DTkwOQLU7LUSbCQsNoNbTtLoh3bs4yeeml5+GsroNDYUVomliLDeQPZYFH/uIl/hbdvBEOg81+GRkZ0dxanpmsxAPvd/f16uaO4tJyOfDlcfnsi2M6/i5evyV9MEyjY2NwRoFDK3Dg28IjZaAoKEbg0O84d0EIXVBwujtryotoySgEeopcwwiLiKT8Iv+ceBowIsuBwWczWjrapLOnAwIaKs888Zi8/frL8sFbb8oLzz4rKYkp0tvTr4uxnDpQIbWEzqbHFkJzzsEH7OCsTl0w4QYVJHejMTONFo0GDZW+EcCahtCEvMRLpUd8OjgUeMIE/MgnfgEaIc0A5eTohNTBsNTAsNTWVMNDrpHhwT5JT002C+Csn8lQOA/YFtabnZUpbyGq+fCDt+WXb74uGxCRcpE3ECM/FJEg88ygMk59cIqDXnVVZZVUV9dKDaIBPnPC/VXLECVEwAPG+NcBv/+JffLc0/vFHejSLcnHTp6QP33ymRzXjQXtqojYSUYZ4hxH8s1sFUZU4HKhbKDwjR5cI+LuLfJtTI2unwS53aqcAnFOZcsyukEGPOV0lllXohtBZwJEgQXcDaj22kqMApSvzIHT4JBg3Tn3wgvPSXJyKiLGBjl77rx88tln8uXRo4h8qzWapBUlzexfIwzEYyUiYltwzwUCVRZwHgCZ5c4/0uXlFDSLIhkwZ/a1ueuknP8os+wHS+XyPxJ5hRrU2FH+yRee06NPSU6U9LR06ezuler6Zmls61THLZe7NZMSFbuvcQJiBbKG44Z1cXfrnt275BevvIj0sk5f05H7+P135eknnkA0kwi+c+yZkaZsQJ/SRNDR4tQlp7XZEzA1wGmNAwol22PXBtp1Cg68UhHHbbKRNJFGRqrjkD8aPK6JMmrU9tK6oAwfLietNF50Rmwgr6xmKXHkotlfavqOuJlMP8FX9PLtGSbq0sc+tAyNL/KBZt6jvhmfHJfW9hadVqyursZ4qIDz1QL5D9WZEd05aYg3dTvw0EDJeMSAAkPBnVYDxd059Karqur0yIcVuduKryDi8xZchNbnT3yA4smdWpyTr2tqlT9/dkD+9Y9/lHPnL8skDFYCPMMNq/Pl5eeelg3rN+ggGB0ZR4TQrIOD2MxQ5NECHQH8Y4Req8SJDjA9N3QTOK0VHBKk6xaM+jgFRw+RtKpBRUZd6cI1LWqKzQN6lnyaPzg4SJ99efetX2oEyHWVX3/wjvzuo/d1TvyJfXt0XYeg3roFJEv1A+vCMQpe/cq8HFmbv1w2rlslux/bARrdiHgu6Gt7qB45erl7LRTR6a4d2+Q3H7wnv/vgffndhx+gvvfkb3/9gXz07i9l9eoVOtA5tRIeGiT7n9wnv/nYrK/t2btXF7ZPwRu/ePmy6Ct+lCwYJ2o2lUh6y1YCQ7g2yCkUtpnbrLmNnEaEuym5nZ92jVGK2n/mn5jUxDcy0BggCDMAg0Jlw3rYfht4mwaS9bFuRoFuKKutmzbKB++8Ix+++648/8yzEhcXL9du3DA77rrNJgWNCBYDm9e4zSwGM5wJGM1JGFdjdE2/EIjLUGITOx+URivRseJR+YUzPdczugi8b65QRcdERUtu7nLkDVBvv7yiWuUuD31Nx0PleUGVqpj1CICQcPMJp872PbZLDdXuXTtk0/p1kpmWKqFwEGnfzXjwpRLnihj0kd845VXSbtPNu8ynv/gD+e1xZYNexk1NEFQ+duFC/3PDCY08p1a56QhDB33uQbQ3ICOIcNRzY92K3yStG0CHxMgBcuBAGaMM8RVnXjhA7Bt76/08QGaOSW57Z98lQb88/dST8tH778hHGHMfI/0aDt7vfv2evPry8/r2CVaysE0OPDg8YgbKCDaT8Wr8dJBkpKfr9FJFeZVUVtSo0li7erVuOeW5GfxzMDtYcOQaC98cQePEHXjllbW6yYJTCUPDwxB+P92RxgHOxVX18vkTg8VMm/Fo8Kko4odSaP1hDiZuODUen/FyY6Kj1ChwHaWju0emodHpT9Nochcc6dJFZwuI104cdlxbi46NkoioMAzWUYmNjZa1q1YgrZTV+SskDx5ycnysxMdEa15VpFrWtFsVAoDGiTjVO2Q0A8sNKiUvZ5m+waCxuVFu3L4tYzAk3OqdEB+vU6LT3gnJSk+SdTBoa/PzZM2KPMlKS9FpH24pZpTV2Ngsp0+fkVp4l2lJCbJ5w1p59pmn5bnnn5OQsDCp4JsIhoZRNwhRhkFJQEGMwUDQ42biMzvd4A+nmeKgKDl15w4MkmR47eRjY0OjDAyN6gYNug7kWxsis+GRIUmFgohAfvrCjDq1v4CTTCAPCbhj3QNvcIvKnfVdPH9Fiu4USRToXA9+Pv34XnnlxRckJSVFN3dwIwhx+OLhX02QFXKRz1sNjo2qM8Sdb9yBxt10w4ODiC5j4GmH6dqTRh6gjTQYXEg4V1nBL04P6z/g0cQqbCWPc+1DegSol9KpeXGDeILRZ4xq4+Pj9LU/5eXl+swWx4xmsOifA7tFBhSPVoA7kE2uK9IZ0HVdOyPxcE6WtTMr8tsRo/7m0QJzTSk0FwBah5WsDPqffwxfcAr5cEFQKF/c6t0LZ5QzJ+wvJvK2rrFRvjpzVsrQRr7DUFHMaw0AFylqXN+dgKyxz8k7rmt2oG84tRcVHa1TlmyOjl3QQFnjLAJp5BZ/9h+7IBgOUG52pqzBuFsLxyx/ebakJ8dj3EWZB5dJhCHEgW8B5P8jCSrQOHKKh0+3b928UVbkZkNI8vU8HsqZwqlCfw9AsmjgIHR8cn/z5i3wJsOlpqZB/uPPB+SPnx2VA0dOyb9/dkyu3SoAl1wY1ImSnZ0DIbV27fEfUJuoBMqN44DnTJay9cMgVgWDv3pEfS6kANyOhYFat36t9A70ydHTJ6UcSq8BirW4vFKu37qju/z4DA136xGbokRie6gvWCeNBddDOnu65PDRI1JYVo1B2i6VVY1y5uJ1+fTwCamF4WZZ9RJJGpNBpUC6mJhJ2wOJ4KQLX066fdtWiUXUcP3GTfCmXvhMWC6fyk/PkFs3b8upry5IdV2jNDa1S0lZlRw5cVpOfHVOn2NiDf19/XLl8lU5cuSYFBVz+qNdN3Z0I/rgGhoHuv3QK2lgBNMJ43Dzzl2phuFpQ76yigq5du0aohovDOEqiUBk7HYFyfLcXESO2brj6uLVq9LS1aXPXHHLN6McPjezYcMGCY+IAF6j7A2Yeuw+YtPNH/IAByglbpYoKi6SI0ePyfXrN9C+Ft340dPdqbvZGEEGIzqbZSLAnAI3yrPXaSxb2jr0eaDy2nppQnk+r3MD+OgmrIJB19fmMOyzSbOAPxmVkCfaJ5AZzcJKlHbIBBwAGinKAp9vcoMePs/V3GIeDiedzMu+TEqMl2XLslWpM3FditEgDc09lQNooqbVEqJuEEIcjMaMkzWXlKVI5sB/NrAs6WTiAX94oreYy3IUfMHKTuAtzcU61DgyP/4jA9+Fl4e+53sCueOW8sdHQvi2h5Mnv9LnrEZhZFhMp49tpAqmEk4Rt7a3S8HdYlMecsbt6DfQV36Q8bxc9k24NmHWOFlEcaaDbw7JX7lCn1e7dOW6XL52W+obmqWhqRWyWyhfHD0l128XysgoH0UAN+fR4MDDwCNnoIx/B2VqJQocG8Ft4JmZaZKelqxTFwx07icYLKcqBPcjwoLkqSf2yr49e/R9e9zOfOT4STlw+KhcuHRJ+KZvToc8+cQ+WYVowfYOOc3AiELXMyysNF66NVw9LV7hQDZCHuRy65oOoxkaAb4vbRsMQB4U1YXLl+Sf/+OP8umBL+TgoRO6S07n7W3hxv8AIApC5MJ6dcziGh8o3LNnt2yEIi4qKoZx/UR3V/GZq+OnTkt3T7euySiCe8CiGgc+0U+85gLp9RM3jVFmpmzfslX64anegNEcHh7TNY2nnnpCYhCxnTp7Rv5y4KB8/iXrPKQP7fK5JtZJXizLypQtW7eq0fnTZ5/Jp18cls8PHtT3zoUEuWEAt+sCPge9Gk784dQNFcennx+WTzQdksrKSt2ZuWXTJhhJ8Bj8zEhLkycff1yN3JHjJ+RPnx5QGthvg4h89+7dJ/mr8pVPbCPX+fRNHvyHC8ZbhwyBPS63S/j0P/uLvOUrrLZs3aKbRb84dlT+9LnBfejISTVeWzZvlbSUVNA7DXrMW9/ZtyqOykPIB6K8ABiOMkSJfwZtf/rkgHx24JC+NmvDurWyft0a7VPSwfUSTp3q2hn+UXb1OnASLyXMJEYRfCaNz6uBUADrCw0LldS0VMjqpHx19pycPnMBhqgbOMwUaVhYhBrzGEQGfO3SitwcCQl2k+Eqy/OAfEFd9j1uadcXweI671CazJQeEivXNtsX8J90W2tues0GZrHaxOkzRiOz+SFrgVxTwj2DRm/oWNM3Q4AGHTe4Fx0ZITt2bJPcvDy5decO+Pq5fPoZ5Ep52yRr165DNLMWfQ18qEOn61Be+5xkcDwB+OLdW5DpAyj3ySeQYRybW1rUqVm7Zq3SyLykk/WTDgoLZZXrZKvX5Muexx6TsZFROXrkqD4X+OlnB+XAF0f0+UbmYxsc4/TXwaP1JgnVNtrv9qkROiQvvEE+O6ROIe/p6DH3F4IaKOLAOadP+AwVn/Ph7i9GJXwxalJCnOTlZMnm9atl/77d8tiOLRITETqr8MbHJnUzwGqE9pxeoyBydxmnv9auXimJKM9rNFZe7zTujcOApuv7/LgNltRFol7uCiMlIxD0mWk/SUlJk7S0dGlrb5WUxDjZtWO7Di6+9iUsBPXl5+sT+ECuA5pTXpyu4VsTxkbGhK9eoQJbsTxXjSoXwzlQlWf8A9D30rH1OHJKjW+O4LvRmKgASRzrpOGKCAvXa5yOyszM0O3vnC5KSUnWwcu3JfBBVObbBqW+d/cuieUiNdCHhobpGiGn/Pi6p9GRYVWyNC77YFi3bFyvu/jQG/qaJz6wTGW957Fd8O65ntCn0yTrodCfgjHKRDkaJ7aDRoEbQBITEsC3GX1tz5RnUn9zuzGfP4oBb9hiOtIeGL4w8CgfDgFfG8T2sw/4qACnrdJTU2V5Tra+tZ0PvybCSEXHxECmptA3w7oDMx5ysXvnDsjCNkTA0cpTPurAHYF8cSt3kXHLNzdQ8DpfScWIfmx0RNtO40Aj+8Tex2DgkozSpHxw2gz9yV11fHM+HRFOUTEK4nbtlSuWKw+Zj5/bIJ78FSsgp/HgnFHifOaK/eyBnIUjwuMUbSSiR46LGb8AGO0RqUWUnpgQL088vluiIMuUIdKwOJjNAORbCiIw8o27Y1EE7WatKEcGMicGBU/ZL+QXNwAx0skH3ZGR4SYTxhmVNmWFb2lZsTxPZznYC9z4wH5eCZnluFMAej7HSD7ypbK5MLChXFNEG6Oio3QTAnf9cTs4xxY3RmyH/PG5MEaMpIVru2xdJmQwG+MgKDhUX5/FZ/vIT8ofJ2P5PGE45Hrjpo26xpaWCtlGQRpZL8YGxAs0pOlUKadM2VjukExJSpLYGDhYU17tX7abzg0N16YN63Xnq+qZ+/LYgW+CR/JzG5btmQfGA+c01TcLgylvFBSHFqeAqLQp0NweynloCh0X2TlwmAKp5KHoKHA4qKfvgULkVA+9LU7EcZFWvxEFJcfBo6MZ5TidNcJnbFCY96jY+czI4Mi49A8Nw3sOhmEZxTV/CYZS59uT//KX/5DnEKl8/N7bSusk6/Oa7wBRgen2dSgKtllp90zp9lfWz/v0qvlku/EcrWjTAvPLJCoA/dQGIigqAGUfsvLANlFJUakwWgiBgqdR1MgO99lefvuIecLAI2775a4/Y8S5NmBqJW3DVPLAQwUTBDyhUKj0iJX/8KBrG5vln/75X3QL8X/5299JMiJivimbBouKkRtCtC3aDNPHZC/5yNcBMS+xcfMEDaOJbJnZTOlxYwJ3zXFKmEqGd9h+vseQz44RN9/IwKPeQxVchCdvmLiZgPfZRje3MFt8Z9+Oo37SqZ8koVJDudGxCeUlIyPeH4fjQNlkxEejzHtsBXuHbxVhHsqFTQMj0QnyHf/MmyKMzDBKYjtCIAd0RAjks74CCE4OZZf9zkiDfUWjNgL+X7l+S06cPAEDuVFe+8WLunbijzZQnhcD8gDNUN4wpAu1NvWQ5zblCtohelH/6k470M2jGhQ6PHpnzkDRIeIWftJPfDREfISBcqvjBvlZgutKzG/6BvWDx8zP8cf7HBNsL50s7uDjuhGdKvagKW/4RQr44l5YciksLZN/+48/I2+wfPTuW/ooxAgcO0bQIZy6hWwYkikdpi/HUI/2DergdB9xa0IeTsFTPqg3eJXr3nzEhTsCdZMTM96Hxw58M/xsP1ioGghgG7XZdQm6/jhSGZiXk+I3Br854z8f4A8W42HejflgGMyyGDhWfnqad0sq1BitWbtWMjKSNfrj+sGXR05Ia0uj/Ke/+a3s3rZFjQiVA6WdURbL24qaB9JOhcdXIpmrvGZfR724YHIa4NDTXCBar/MnYS7LfABe4iBQUbMcsxK3PUXEv4xgeWZPB/GXGlCc2LRp+3kN5yYPFBcGPQ3UP9JAIdL6+z/8jazIyaBeVLDLUFGxlPlrX8c5ftgRM/+atuMaO43AcxzMb5yZrADFYg424CdvGwoRpaKMqdHwk3TwFiMf5iD4Fjdg8hn6QDd4ZPjENSpitvrFZAaYe7OwGGJew29zCeVV4OyMpr28OVeUz9159Hmr+tY2OXPuonT39sgv33hNtmxYw85C23xp+CHBrnWO/ge/hl8Wb02/z3Wyfc2G2VI4oSjxtVdFpeUwUH+C8XTLrz94V3KWZeoMh451qwC7iuKkfT2LDycLBrnKA/5p36K4Oje4xnHAnDZlBPa3Aw8Pvjz8WQOFi0LEt4RTCaugwTDoA53MsEDAmIcfoVMhtkDLYOBTCfkCS84Ajyp3FWn+M2d8buLgoS/kj3/5HFHT53LgwBfS19OlU2Ar85bLNP0HlCMdUx7UR+GfRc+BwOczcIo8HGiaOK2DfDpuaFy0tjlgduLgdd5RmpEWA+bgfXr0bJ8qVg5Gjmf8nquTfjzXcOb4pPVoMjh0Oz3awXLMR6+U2ZmHbQiC18mkPgLa4IVnrNNfNt/mN8OURUPoTBA36WA9Bj/usY3aTqNMdDpvXt8Qp9VnSPipwPyMv0gj+5K4De3EbTLobk4kLsQz2jbtsumkDJkjadS2e9AWtMduO+uwgTgNDTixaOBBXwjsQxePxKu76GxCrMR+4T32E2nhRoDe3l65cOGifHHgoDQ3Nci61ausjwQaur4JTDts/j84KI33KcN7c7wysNg1An/z+kJcbCuNAumzeW/LiC/Y9OtzV2wz7rtQNshlPRRs4eDjEHb98/iCc9xWHIvhN/3IKJrPtHk1kmM/aiEfmN/bDjwM/OwjqIWgzIBW4z8bmFMTLi1Wijnvg25RoPxyuPDz1zW1tXL7bpG0d3aqouX0wOqV+bqIHhcdC0XJzFbFViX388aM0vK5T4J92jEHuP8wBD8oHp4im62AbXpsuIc+AK9AP0lPH5TplSs6j//UE/t0HZCGlhqDioWJdZn1DwuAj+Wtamev85xpMbgf7+4BzTaHaWFbvg4Wq4Pl7183rj9IfzALyOBhsdxUoTTE5Av51tbWqg8Y843cucuXy86dO/QVP/ZXbO+H51GBr+epDew3GnT+9ZPWtg59SSyn/Hbu2Cp8UzoNJMHGpXwxlxYwCD8W6adpfWDbLmBAcQDfvbkdeBhwDJQP2JeM2ptjiwobEy7dW8rkfCD9oigNXpOfCldkdMKrb7Qgcs7LczGfu7TgmCmooN+n7q+FBzUs3wQPioenFp33w04sC++R3zTO/HQIhrqu+XFPoa4NIrevgWJpuzyPvlT5/va97gvfrNB84L7t/q4BND1If1gN5GGx3Aup5Veeh4cHNbIMjwiXIPBV9Sh4Tbgfnp8OWAzTx5fxC86NF+qO61I852aYheJg/1ycL7i6SD/pg8jzOG+AORfH48CDws/YQFnHewCiprcNW+wcPC5mJGzmPYh+8clt/kJb6DoR1bG/mbZgHZzOY018+JRBhD2VYNPwYICMStNiBXDjwQg2cF9FvQAPT61qHwI7wBSaRiI6Ux15Y7CocWKa/W2AHOGdhbDYNcJDGSfCfdv9XQPoepD+YBaQw8NiuWeptfJxGhYipNN9Glmx/Ui2t38/PD8NsFvGtprpObNe5dNq8gIHX34oWL/vBeRYpJ8WGig7x705HXhY+JkaKBsocNaRJypR830hXyFbzDg8iF65F+Yj4hSDri3RSKkxIvipwubQsiMovboIDfeA1Y77AzI8CB7C1+LywaP5APhtnz44GJ4bJWoMsoE5ZWpXNId7Lo8v2LkXwvxcDwBa4H7YvmtAZd9Uld0A5LtfWxTF7E1zwjUyRqeUIfuNInZV98Pz0wO2mMm0mONNxxTlbFbWLLivcSIg78Lbemn+xQUYHfgr4GduoBx4dGFO4TjggAM/TXB28TnwCAKNk50ccMCBnyo4BsoBBxxwwIElCY6BcsABBxxwYEmCY6AceESB60/ffg3KWb1ywIGlDz9jA2UrON9k/52DR32VY2F75rf2+4Pvl29zLZhrx4OvS3EnpJ3mwMbpm34awH2h9t5QBxx4lOBnaqAwWLk/fEGa/XKnpbhs/TVPjz1CsFAR+/72vf5dw/eE9h6YawefJcPRSg8PczIwL30jNrbUN/0wwKd35qdvoHQeeQ+Q3wEHlgg4U3yE2dHK4T43lu2B/CgP5tm2WCezeuprQJ+V+drnQb4efkiekUqND2hQ9F0/1sVvADuL0vnQTWWB+6UfALQqGJqFydy9B8wn131oRF6xnr3jqQMOLFVwXnXkCxzIM9Z7tfgAn3IGA99+qO8RBNswqV7SfxbwBE3SL5bOAxppk0sVv56ZsksV1Djhv/ab3XcLm2WDRkf2GzwsQH79ZZXlde1uzbBYu++9Zow6PD6+vuH7BktGWZOvXPLzH4uZKZta434BlAfm4FPcAQeWHDgGCsAzwwQoLitR2RD0TeEAfbsBrlmHWZgru7TA16NmW/jL6CUctR2k2lCuBljz4R686tGJMf3WFb99FBzoVmWoxltzLw2w20Zgm/S7RyMjbIR+kls/vHgPmGtszrSGWnN4FuLT32iz7/WvA+Ux/pjPany/gC7S+vimejVSVs98nYFisvPxFVLj45P68UN+O4rflloo14vDN+dwwIHvEhwDZQFfp88PpA2ODEn/4JB+kJBGiV8njYqIlPCwEP3Okao4jmYWB+esw0J0DwAs9dCFHghs48QaGClQofGjawOD/TI4PKrKnJ/85pdZI8MjzEfekIdKjx/2u1tSIg0NjfqF0tzsLJn2TqkRU/AhmfjvB3b93weQVkOGMZpT6JXu3j65ceOmvtpn92M7JSY6Uj9VYb7pZYP5htPw2Kj09vcqH3h3NvHT60FBEhIarh8VpK1Z3N7gok/j+PJRftqC0XdCQrx+wPJ7Aasv+4dGpL9/UKIiwyQ2OgrUoL+VpEWJ1eskl3LB81GPR8orqqW+tkZW5ObK6vyVYr66vLC83UjrOhk/e80BB75/+MkYKNs7JMydLT5g9bqdCUcq8UF435W1dVJQVCxNzS3wxkd10PKz2Xl5ubJp/XrJzkgTN0IqF66bqMJ86FCH/YN4znadGOhz376ZrxjMGe+bH7bSMe8Po8Lk71lE1tHnjGSZgyqzSRjdzp4eKbhbJGUV5TIM5UagIuYntzeuXyerVq7QN4iTpFEo78+/+FKuXrsuH73/ruzdtR2etld5QQNN0OksHvlzjoRZUD2GG5rH+qtXfNppX7sHcFn5yX/Ib/PZFwx+8ojJfPCwrrFJ/vlf/kUjv7/7/e9kWWaGfnk2wGW+Oqv8BE4apdKqSjlx+rR+5TgIEaIxeHxXnfl6b/aybFkFpZ2SFC9ulzFqSgtRIJ9GmvyBPyStpbVNvgK+6WmvvPD8c/qZe34jSKMpxa0HUqz18MyXFwYvjvbJLBgeaEltK9/E7ZGbt+7KtRs3ZAP67vF9e/XN93NmmO9zNDjtflLzSzQQCPZZ/+ioHDvxlVy5cEGefvJxee6ZZ9RJMR8w5D+7nC9BKGgY74ADPxjMyfUjDPp9G35QbHpKPWjVtGaI6v17Adf9+IE93p/WT07fLiyWf/vLJ/LZl0fl2q0Cqaqtl5KKKvnqwiX542cH5LPDX0pNfYNBbQ1hYvDgtxcD37wx2rw12n579Fzt1A4mTU8j6YfzjNHRl3mSbuT3J1mGJL3OL3MSFz+Vrbjxe/bjabhGKpjfLmcUrQHcFroeHT0DcuKrc/LF4aMwvO0SiogpPiFR6btVcFf+cvALKSorRxtAF0rz7en0WcYnvFo/EXLqSE/Ydpt2qw5tA7Mhj610daqJCdeZV49Iek+PWnp+0vaRb9M4Ne2cgTHRl+hqmTkg7YbnSo7SyU9zj6Mfx2GgzJd9FwLpJC+npaurV65dvy3VlbX6OXoP2ss2j4xOSGVlnRz+8rgcO3ZS2ts7DHWkR+thXxu+enGdaQoaf9LjlSE4NPzMOz+KyEZqW0DT9JQX51MgmontMR/B5HFuc4PWgmL8cB7z231tEnlG+VC8bOf4GByNQf0cOg0Op+yUF6jCyIy5RkMKVJo0oyUdrG0C7R6dGBcP6jNv4+bEtlKB/DhnP6A+k8x1XxwOOPBDQMB//W///X9Y548mYPSokramKJh0Zt5SlosPKA7FuTs1Dc3y7zBOdxA9hYaFy9bNm2Xnjh2Sk50tAYEB0tLWoh9/m4YCXLl8uYSHh6hipEJnMm/xN19epYdOlaO08LLSwXPNZJQFSlGB8OunnFYykYn/3HQSfitu5KViIA4qKnrlvKdTjchLnHYRX6BSYTVjUNYXr96UEydOSUZGuvzqzTdk7+49snHjRlm5YrkEhYRIQUGBDPT3y/LlK9CuCFV6ZeVVGkVu3rgekUia6tbZyA0HL5TXpKVI2XbTRoAeaZyYc1bt6pdGNS8yM9I0uXwABagE0UQoTOS3eMgIxB9ljF60cBMpjso/5J1Emgnwl/6hAbl9txDKeUp2bNuqU1+sc96mBfQR62hsadOIct3adfLeO+/I5k0bZT0i5I3r10p6aqq0d3RJcUmxToEuW7ZMozC7v8l4tokGEQe0x1+Cgt2Siqhp5YoVkpSYpH1q80QNi2GSyofhA+WDfWfjM+3CfwX2O6cnlQfIy75mef4jLVFR0RrV5yKFh4fzpsGBfMYW0WDR6ML44LeODf5DJbgFufBIeXWtNNbXy/LcbPR93uwUH/OzPPnEbyexzf6ILA0ABxE44MAPBI+8gdIBhTQyOgqvckgmJiZ1EHNQqW5YdEAZ5c/BPAElfvr8RTl55owEBrpl964d8tYbr8q2Teslf+VySUlJ1C+SdnZ0yBAUeVZ6umRlZaCcV+obm5GaoAy80tzcBKVWJnUY9P3IF+R2SzAMgKnfDHwO+P6hYalraJTisiqpQZTW09Ojd0OCQ1XZUdFMQPlV1dVLI+r1C3BJA+ooLqmQ6ro66RsYkOCgYAkPDVPDrNh9msh6qFymcbG1s0e+QEQ4ODAo7771K9m+Zb2EBAZJCGiLgvLlFF9LS4vU1NRITk62pKWlwTungaqUJrRtCwxUdlaa0q10QbG1dHVIcXm5lFdWQdE3ydDwkPKbXyhVQpCgupU/Hd1dyFcpJYjQ2Obevj41OqHBwVCIVHroByuNjE9KfUurFCJvZU2ttILf/OR+EPL6BwQiq+EN28apOfKOeKvrGqSnf0CGR4bxu0IV+677GSiAGigY31u3C3Qqb9/e3RIdFaZrjDHR4ZIQHw+D55LS0jKUn5K169aoLJH+xqZmGRsbl4aGeqmuqgG2GYmJiZHJSY/09faIF7IUEREhbvCXhr4ejk9bZzei7Gmpa2yUklLwAVH4wPCIBIJfQSGhMAb+2n4aQLarrqFJStGumpp66ejskgluZAgOUtmkUWPewcEh6entlSDKAZwKRtmdXV1SA5kZAo4e8LmkrEwqqqqlo6sbdcxIsPKRhpJrZl6pQPTYCHlanpsrK+B0+fsZI0RnorOnW0orq6UEjkoDeDUAmXUFBpq+QP/6iJsDDnyv8MgbKEYVbW3tGJx10tbRKZ3dPbqbKzQ0BIoiaJ7yngUqcKQZKK+uvkE5cOQYoqgmSU1Oljd/8bJsXJ0vQVCkwVA0MbHRMjQyJuUVlTI6MirxsXGSv2oNBvKEHDl2Sg59eQxKoBMGpARKoRT5yqW4uEQGBgd1Ki0yIhLKB5WBkO6eAblw6YqcOP2VlEFxU+EVFxdDaTVKRGQklF2s0tQzOCCffnFIvjp7XgaHRuX27UIorQopggG8U1Ski/JZmZkwVEGCYEbbSBNC0ClGJqiRMii5U2fOSjbyvvjcszBMMCKa3zAlMNBfXP6BUD4uGN0sSQS9k1CyGkGBNhooRlCcAhuHEi4qr5BDR4/L1Rs3pQH3q+tqVRH29vZJdHSstpUacBKGpb6pRY4g77kLl1Tp1kJ5FqGtHTA8EWEREgc+wjfX6agBOBc3796VoydOyh1EQTQgZairGoaT6jA+IUEVOls4BGV59fpNOQzDW1BYLM1tbaqYGxoZ5bZLWEiwbN+6WeJiou9roBqaW+XWnQJJS02WDevWaoRiplThREBRD4Me9iVhE6Irj3dSjh0/JcePn5Sm1ja5eeuOVFdXo81RMHLLpBWOxMEDB0FzuUY10aibxuXwsRNy9uIVNVJ37xZLGQwPjU9RSamMgZ9JKalqpLwIfXrhRFy/cQv1nASfyqQZUV4FnIAKyAmjoXgYTjcMFacRr127KQe/OCwuVyAiqTztGxrcgwcPq+Gurm3QCLESBqoIstjS2q6GLCE2Rr8JReehqooGql5WoPzyPBoof/EAT1V1vRw7dUYuXbshtQ0NiLRgqEDzKAwz+yw8NJRcnJUhBxz4PmH+6H2EwJ4f74QiKK+ogF70l8SkJFUaHTBUFYgCdEpsUaBq5EYHkd7+IUQaXdTb8KSjJDUxSfxQLgAKi+taQS63LFuWi2goXL389u5uVWA0BAMDQ6ocW6CgcjDQn4UR2Pv44xISFg7jcg7G6LKMIiKhUhzDsQBK+PSpU+JGxLH/yX3y4gvPyPoN66FQauTI8eO6mQGk6Y67XkQFVDYN9c2Sl50nzz/9jDy+73EJBD00XFW1dboHnnTbU2A6fYYjp2i88P57+voRWYxIUmKC7kbk2hf1NXULI5kgV7Bu/njztdfUk9brigsJQINA/JPgQz0U85ETp6QckcP69Rvl+Reelyef2i8JySlyBQaL7R3iBgwQMwqDfuPmbU3JqWnywgsvyH7Qn56ZJYXFpXIOEevAwDDwc9oL3jwU6dETJ6QHvH1s+3Z5Bbh3IgpiJHr89CmpRVRK2iYRwVXAsz8OQ0avfsfOHfLss0/Lls0bZAZ9NgSnQA0SO/brALfZROYNhMIORPBgp+kpD6KTHuVbCIyHC9HblHcauIdhBBulC7KSA17t2bNHMjMyVQY9oGsAke0gHAuuIZGHHpTphfNTWVMnTS3tsiw3T55+7jnZvXcP5MFPHZUq3KOEjiFKKkbERsdlDM7H7r175bkXnpOt4AF5efrUaTVWbBanMDlbwPpGKYfoG9IwOeHRsdAAZyAiNFz2P/GEPP/Ms4iAczQiPnP2LKKsbpV8dVKUByDUCI/2Nac2z547J+VwOnKzs+W5Z5+Rp554XI3bxcuX5MbtW7pupc7dN/HYAQe+A3jkDBSHkxonHD1eD5RGA6KlMPV085Yvl9WrVsmKlSvVg+3GgOTcOgexL3A46qIw8NBwcFqLHmQYvEM+F8JzTrcxcVokFAPePzBQ5/S5GM4jZ6j8cC00PFy2Uam+/KLshdJ67tln5cWXXpJg0HTz9m1EV12Ko6unH4P8ik7Zvf7qq/LsU0/JYzu2y8svPSebNm+WCniq9VDEZr3AH3S7JDI8UnZDCb/+ygvy+O6diIL2y2O7diNCHNPoi9NCXrRthIvmUFZDwyOqWDnNSQPKHV9eKMqQ4BAYNk7hmDaz/f448hkvRhzxMTE67WZr7jmVZab2qEC5PldRVSU7t2+FQXtFnti9S5XXK6+8IhmIvm7dvgODWqtGcnh0DEq5Rdzg5WO7dsnjUMpP7Nsnv3j5Fdm+YycigWB4/RMaLfaD3pt37iK67JH9Tz0pr7z0vE6zPg9jv2fPXkSiwxqZsK9HR0c0IugCTx/ft0de/QV4Djqeh5F67tmnJDEuTjdWmE97Lw6qVtFARpncudnS2alRWHNrC6LCJiksKpQb12/oxojliIb4LBiHSQCileioaLRnh7z31pvywnPP4H6OGnojJwE4d2ndVOB0FLgrMAqRMdvDdu3bs1uefeZp2bxlK/ppVB0brkNyDbAAEd3Q8LCRn+eflV3g83PP7pf9+59E3wVKSzP6G4ZQ1x9RH6dVGQ0ZpwJ1QSA5BUeaXnj+GXlm/+PqBP3ilZckNycXkVENolg4NQTtWvasBTjRyLmiCg5ItaxavVp+8YuXwdvHgOMJpYPGupTRcl+ftpEbMGxJccCB7wseKQOlXh8GlvnhByVnDAYjp6CgQN0Ozd1osVBUwYgYevp6MXA5Fq0yPsCBzbFl36OC4Ty7PRdvAGaM+ajJqXhwqpsDeB3FuHGBAzctJQWKPkQHvRvKJAfecmZ2rnQjguEawDT8ZEZp1TCm7vAwXWOiV1taVqmbEdzBoUo7lToNiokCRCLCQqBcMiQ0BHV7JyUILn50dIy4oJwGhoZ0MwHbeP7CZTl85JgcOXZcjh4/gSilGAoHVNI9hyKhAqXBMsqMW0iMkWLTWJFex5m+h1CPZA3+6E4ukSEYv0pEim53oE77RUcEa8QSgDzJifGSn79ahsfGEBHU6nQUlWdMTLRGR6WlpVKMqIlTe5GIUJ95BsoTSprnHuTt6R9GNNgIMgMlwO2WuoZ6nQbjc1ikhua6GTwaQntHUEdTS6uEwJHIz18uUWHBiHKnEAkGSlJCgsRER4NertLcH9jf7EcadkZun3x+UP70yQGkg/LHv3wuhw4dlc72DtmxdYts2bRJn4cCC5R/NFbZGRkSGxkqgX5TEgim6eYRZODuPradcsH86gKBlqjIcMnLSpfoELRv2qtrk1GgkzyiweW61QDkpBV9HwcDuCI3G+0BAkRyoUFBsmHdOnnxxed1jVDBVKd1sW+MO2Pa5YKxjI+Pkbg4TrVyA86MpKTE64YKRoHt7Z26jsgOtuWedHJH6+j4iNQiQuQaKWcAunp6dVq5qqZaIzY+lsB1rx5cp8CopNBIOYbKge8RKNuPEJihr8MKA4weqivQDSM1rJf5PIgLg298fFynXUL4bI+Ow3sHDz1cTsW4iEOt2LQ+N7NwWpAGcXJiQndtMTpwwxDq8y3m7ixJ1FP0bonXDUPHNZkpGJDB4SGZhBLtHegHnSPSCEV08PBhKMYD8vnBQ/L5gS+l8O5dxUa6tR6rW4iTb3xgW/38rShQq6TyM1vTOc1TzbUGRDhFMAQlpWVQ6K0waOAP6KQCZZuYlBek0fqn/5FHlRQSa8UlPfdNo6OTMjw4ohEmN1eQVwGgh3aUU2A0Rn7gI71rtjkKUeWWDYhos5fBQJXIZwc+lwNffCFnzp5D9NMtEVDaQSFBULJ8+8O4RhPdvf3y1dkL8smnB+XAgS90PeXKlWsyMjwK4z2pUSEjwlHwKDQsTMKQlH61plYLrON9YfamaRfrn0DfToxPihe4AxGFZGekI1J9Wl5BFJOZloIq2E5TkN2ufQxG+luGkH3EKVWCwWoSgZdZhg4BUdDPUdFB0nzAQS9iAoZ3ChFlVHiobmBhPwS6EJUhc2xcjGyFsVy1apW43C6rLpPYn771EYz5ZRSJOoGITkVUZJQaGM4UeBGJztavvNNieo9OwCDS7YIC+QyG+/ODB3H8Qk6dPqvT5owqJ9EP98A8Q+WAA98dGE34iIEqV4xOerfJiJ64w66+vlHXIHq6u3SqiVt9ExOT4NlioFoKZB6gPPFEhIdITFQExrRX+hCNcHMDVY8X9+mlTiEK6O7oEg8GcGhwkCTExUoI6lUqoAE0DgF+S0+CoXyQ13j+dKfJYConNajIHwnlnRifAI8/UVJAHzdmrFy+QvY/8aQsz8vTMc4ZKp1GUUKBm/RbSc/1GmoAPr654On9T8qv3nhN3nz9VXn9tVdl25bN4E0g6uLutFAZRJuo3Gl6YbesI5Qz2tbQ3Cw3bt2W1rZ2pRH/lTcK9oE6D+esmQqQkcGUGkhwirSivTQN/E2qqWTXrFgJml6XZ/fvlxT0UR+ihMtXrsonn32O43U1rOQXFTTLMAIlXxLjEzWxTM6yZbJr107ZuGGDOhuGAqvtSIxq9Pkw/NP69Tb/LA68r44JcATCoK7NXykfvPOW/OaDd+Xj95Hee0en755+fI+kJyeKG/wNYF0oO5tANHEoDajTBqunkXzrZw4rF2/ZgPKmJO4qr42xM3KK3zCchjemLjpiTOxvgo1T7YJeAShxvidIrIc4lVZw2e5XG/DbPDfIKtmvU+pccQdkUnycJEO2mDJSk2Xrpg2ya/t2yH+ckXWl1QEHvl/wHTZLH6wxwQMVB/9lZWSoQquuqZXKqhopr67TXXz5UD58KwAHHhXovWCuxUZHwkDkaiTV2d0rBYhCeoeG9QFcDzR5a3svopNSeLkTEgtPNCcrUyMJA5YCgqbg4NexjsE7iYL9A4NqkBhNcCGe60nhYeGSnZklv3zjDXnvnV/Ju0jvvf1L+eDdt/QZpU0bN8KwoktIL9pHpUcFYxTR3FHv4TqVRASM0JpVK2QLFAin3zZvWCvZWen6BoQUKFlukGhsapKu3l7xxzUaqEmkCRjPwdEROXP+ovz5k890uzzr5bSl3TYqOB7DQoN0qmoUnn4/PGzaKz6DxLyMbrh+RGMRA+XF9TZ64s0tzRIKo/MUDO87b/1K3n/3bXn8cbOmxE0Sbe3tEgB6uAYWgX7i+tFz+5+CwQBf3vqlpvfBl3ff/pU8sW+PRm5BiAYYOekjBcMjqJM+gKFRp11JGHhj6L4X2DJm512oe4kCrsyUFMlKS4USToWzkCAxaKfbxciTxtbknQXyfPaK9gSS4Zfinv1FMHfvpYfnvIYEYmjoQkPCEOkEyxCiRUYyBPOwt+ibP+pq66W1tU2jU6tLTOJBj9YF4OL6KYkwDxcj4vF4IIsDcFDgYEFuA7lln0Ra5fmD/xhhhUE+o2CcdmzfBt6jz9AX70M+mSinLyCyzACvHHDghwKOwUcOOLZIOD05bnvVjRHL8yQ6OlqVMl8Bw2d6dCAuCkYx0JqEhYaoh56YlKjPGJ25eElOnj0vd8vK5XZRsZw4fU7fuMDBn5OdI6vz83VKkIaIhHDHHTdkcJqKQIVQU9co9Q2NkgDDqQ9u+rkkGYYiJSlZWltaVTkHIsLhOllQaLAMDA/qlu2xCSgnvwBVTDSqaljxn1XNJmok5KHxUnWICMILg8jFdpOg2KDIOL2XkhwnK1eu0E0FV65elb7+fl234uuPRkE3n7W6eacANHt1a7R6xVSaKEtDqZtFUGckosy8nCxdL+F60sDgKGoOUCPV1t4hZWVl+mwW10n8EC7yOZqjJ0/Il8dP6HlERJg6EnwYNjEpRfoQ0XEqiVOy0YheU2Ec+gf6EQXXqcINpzFClDo5OaZrM3yOi4ygY5CRnqFKvLyiCjhgpMCH0fFJaUOU2z8wBLpdyqevAxoZfTAVbSWv2A7ueuTGCTVglA0QwnODi/JCo8WbemEe8JLZLKGFtQzLcieNH9c0iY/XZgujbtzjJhEUlMjYaEkED3rRPzX19bptnDTxdVt8fOHQocN6ZD+rEQYe9o29/qX1oUKu+TFS5Q4/RkbcNt7e1iF14CvXvJISE3VrOvPqZhyU14R/3GiUnpEOuvylDnLBRyqCg0N0jZXVcJais7NTHQH+dsCBHwIeqeegOC44mAyYQUZPMcAVoFvEY2PjJDYuVoK59oTrZgBa2X3AxsGBzQFJhcgpMHqpfOCxtr5WyisroLzvSEFRkXrs2cuy5IWnn5INq/NV+VMZ3L5bKqXlFRjwUChQ3nxYlBsFuOW6q7tbnkDEsBmRDZUR33XGHYN8TqqlrVWfg+GzL1W1DXIORpF40tPTJR6RBI3dHRiOQSisx3btlHgoMHrPbAyf9ykouAODkS0b163RdQ2bF7bCoeJiu/nSUu7ga2tt1c0K3FCiu8dQP3fGXbx0RXp7e+TJJ5+QrVu2oF0wOt4JXRzn7kh9DgrRGA0mDUZba4tUVVWrQePzOIzMrly5isi1So38E7t365uxx8bH9fmoQhh47i6kEW9qbZei4nKprq6StOQk2bVzh76El1Ox7AdOy9bWN6hy5u662vpGuXbjtty5fQcGMgK8SUObGPeIvgGBD8uOj3tg7IakApEznyGqR/nYqGjZvmWjxMUs9qAuDBIqa2wCD2/d0TWmLZs2QmkbGszaojFMerTOR8ZGNIrm9PFW5OfzU4weyWs6DN09ffr8Fp2FLZs36rNzA/1DaH8JjMywTo8lxMdpGRrBGrSNO+KWZabLasgTdzXy4dm6hgbd2Ucnog+yQZkgfwdgvMnfTBh58r6mpk6fw+IU6JpV+TBm0/qs2V3I6sDggLabstbY3CpXr96Uqspqfd7pscfA8+hI5XEVeNYAOdcHdfNXqqxwHbGzo1MqYfwH+geBY1La8fvO3SJ1cPjwMWng83ccPWy/AXBPT8lFBxz47uDRMlCqOexkH+D1YtBT8XC8QEfobxoh/rZyzgdetBIPIcFBkgLvkmtMU9zOPDaq0QantMLDwmTdmtXy3P4nZM/2zRIe7EYZGChESjfvlkh9Y6MkJsRJLyIFPohZWcnBPSDbtm6R/U89LjExkWos3TBQ3EwA6wHFwQdX61Sh1iJyGh0dlvyV+YgEV+q0GBfua2uq9Zmcbdu2SgzfigCPmrq2G9FaE5QzNyDwLdRGR1jKwqdNjH04Bcrohc+G9fZ2SzVwcpdcFYwE33jBZ3b4Siduf46BgQfjoEC9ME5N8MR7ZBMiUZ3SwfWI8FDgCoeS7tFnkfhmhdqaGukDXtLx3NP7JQ0RIuumMQuPjNDIpxaGh9OHbG9LU6MkxcfKk3v3yCq+XkfXVkAjF/HBez5jxGfCSGMNDH1/b5+kpyTL+rWr9cFbGl5OaQYGBkgTjGM1cDcCJ9+Gwd2TfNYrOjJMtm7eIDGon1NccwZKJYKs0nrqUA8fYF6/FkbexTy+CpdMtM/5nNK48mtyfEw2bdyg06a2A0RJ47Qlo45QRMN88DcG7eHmjkb0LwVy44a1cJyilR6m9rZ2aeezc3B6+BYHvoUjHP3EnaTkFZ+t4xsn6mGwuGNzL/pn8+ZNkA3Kp1cfDO5CNGNeU5RrGahGfWtHIIwHo0JunOHD5a1wRhi9PglnKTs7U1yB/sjvlRYYr344J6w/B7JE4xwaFqKvdxpCv7F+ygH7rbm1WTe2cEdhWmqKziDM8kpZ5RgmB74f+El9bsNeBJ5TNA8GLEbvlmsnHJRNUCB9OKdyY2SWk7UM3nYaDFggMk5BKfnrJxv+4V8+kQvwcN9/+01JToiGV98IheuCwUrQKcfEpATVc9y4zjHMqbXeISht5GtuQRQ1OiaRoWGSmZ4qebl5ur7C9QAaqEpEcFxnWbt2ra7/8LU7NDjcTVWFiCUlJQXKKYf6QcG3xayLypz8oMeuryhqb0WUUifdvb34PSVRaFdGapp64dH6BghTcNI7KTVQjB3t7TAiKzTa0ffCKR5uhW/Th0/74alzpxm3mefm5OgGh0BGcUDDWSjWyanMaihbPgNGHnM6Lw9KOTM9Q50B4qTPQRoZ3fHZrrrGet3UwbeMp8E4MVKMj43VNULyhmUGh4Z1zZFvs+BbNfi6oczMDF179IL+9atXqSEj3TpVanMHldFAtHV0IOqr1I0qfJM7lTM3WyyUG11bRFk+nMq3WvB5JU7xcqMMCijTeb9/YFgqq2uAZ0YVPpU8I9Vq8GkMTk5+/gqNXGjUSD/ffk7jkwyDzvc9UuFzzYlbvPlC4iZEeNzRGQ08mRmpaki5TkfqOI3LyIjyw0iO7wocAQ9On7skhw5/KavXrNHPpHR1tMkYojduvWf/ZEDG3G6XtpUPETdBzjsQ1WYgMuV7Guk4sd8YXbW2ctNRg24rJ8TEYQzAiNFZ4UPm3Njhy6pZ/jrgwHcMP9PvQS0ADDj8N5YKMAnFxikXKrdADEg3lCOHIAcllSR1E5/J+ad//YtcgoH6+7/7vezZuVmnRGjUOIh1fcBy3nmg0eDOOb4jj4qAU3YzUDZuGDQqegKVHf8rKVBYPCoeXkNZGihGiNxtRWVqpqT09hyYJuhFXmc5pVlxcI3Mqx43p3QC/V1mihDXiY95dIceL+A/qeKnRaimSTT+4r6hn2/B5hVOXSqNYIpuwcZVXiePjPHhq4+MgePDwmZLv1lBszIbvDDAZDDflKCfySBfgJtZWJb0WdmBG4YXbeCWfDoW3EqtSh7XmIlsIUk2zJXUlmh54iTdnK4lBfx9L/Ce1V/oD06dcfeftlcxWffJE62bPLAv4xpoY11ca1Pjh3MeWRWva4yL34YEtAkH8o39w7a4IBdMuq1d0Ro54c5UXUdST0RkeIIG6qIcPnxEtm/brrsngxEpcTYgCDwk35VkbQkpN7SxCfajEcxASUGgrrjJD9LBMowwGYgaGkyaD/aVe+844MBfA0bif+7AQWopexoGKqHw0GAJg5dPxTervJCPSletDRMHPIzF9LQHicZGVDEE4Lo/rjNy8h3UqoygBPgapSDcCIVHy4c9GZXR8lBFUIXykWDzQK19pEqhmWG9RGZoVQ3DZB008YDb+hNlDb34A4XEUyqs0CC3iXZovKgoNY+pgzTSLCjts/XgiHOTDQoLdAVDaQVR8bF6KtDZvBYZuEGeMH+Qi+815FvbcQ9tt+kkRsWJC0zkQwDKBZMvzIy8+mYI3JrlI871N+pjW4JhnHiPeHmf55rsfCxj49ejhQeJwK6lQp67ujCZv6xPN1boFV8gTkZfFm7IkTFGOMeBil3LgA8mL/vT7CJkIkabD3y2KgByQ9kIcftbssF28d9cTu5gpZ3XvRcoqO0jfhouGhUYbhcqD6FxshwC0kMHh+UVWI6n+GPLC+km29keDgc3CHAHwiDzrsVfpnuBpe3kgAPfHVDEHbCAGyb8LW+TQ40eJRUOt07rJgTmscYgr8VyB1pSgvBjfxrN6E2U4all8HRIWwqQO6+oXPiclHraqIFlWFYVmSo5KgJLkREPjmqYcDabqJlw05CCv6zXN1lg7Kopw80I9jn/UVlpm5B0K7ves3MQPek11ww3TLtMNGDo07z4o/msrKrsNKE8DL1mYHkaMZzp4wG4phhxzdAIHOQ92qTK3QKe63UcZ5uH60obmYNf3HGnuw15ZHuYl4n5mMMuZ5UlsCeZeG0ODL75yQDPDO04Q2IxwwFtmWZgl2ifa+O15tlk96D5adNnaGSymaDt0vt2SfObyRfm+I9yKEu6IkJDJTEhVmKiwtS4q6FRPLYcmWpmjTEI1n7HKWtXGi06tB3KHEO54a2v/NhnJjngwPcFzhTfImAPfxvojVPl6ICFp8pBzU8oVFfX6y6nVauW69dX1YvHoLcHrqpkKCsbkzIaP2iE1DjdA3bO+cBynJHR+6hct5orhZYxs7W8Beb+HK75dwkGzz1gKaWFoGsOuD53B2WJwqcOXzC5NYuC+UU8vGJaz1P9pRn5x06E+Xj1tg/MkY4TC6eWtfBofQt4olk1H/qHWXGmuXnykGBquRe054HQSAD4hYoM16yEfoGq13/6k4UUzH3+VRQ+d8w9Aum2r7Owwc1mcjqwtb1DGhubJCExQZ/VY4SsmLQI/8zh1Np8q1gAdo320S5rsACnJQ82GHlj/q9B6oAD3wIcA7UILBxotkKzByX/cr2GX0+lguA0oP06HHtY37PjcB6YyGkezGqMe/MbVUTAPT1hHl8lsQDXAhz3KiMbjw9onoUXDagBnFfkHoTzwOafrajtkraC5YFX5rDMYX44sBDxqPy08dwPn6nRZv29fHkwuB/2Wfx6nOu1uRK8bkVE1iVTwvyYo8c+WVjTvdftqIfrY3zzCaMfTu8RZtH5nBEetN1ztfjis+RuHmnWnQfE64ADDwqOgXoIWKjYdKEZoArHGZwO/IhgpkthPCCLTA448FMAM3PlwAMBDZOvl0g9YNaerAsOOPAjgW2YHOPkwE8JHAP1V4CjDBxYSuDIowM/NXAMlAMOOOCAA0sSHAPlgAMOOODAkgTHQDnwgwEnoBZLDjjggAOLgWOgHPjhYAYG6T7JAQcccGAhOAbKgR8GHCPkgAMOPCQ4BuoHBj5QyWQ/YLmU4buikWj4Elp9Vse69lMH+7kkB/56+Gt5ybJ8ZtHpj0cPHAMF4CuKpqe8D2w49C3V1kO6DwP83MLsNJf+W3qgykCN6JTSy3P7MxHfClhOk/n5Q7dZ2/Ntaf8rgfVSpn5MsPtzRvsTxymT+Pb1b620FecPw1PDQ9JpXfgWsFTHmgPfDM6bJBT41jwMAoix/ZqehWA/Y8KjftZBz/VwX7BvK4M5qHHi9XpkZHhEAt1uCQ0N1UxL5fkVW1npO09JL4hT2qxztuTb0DrlndJvX01PTUloWKi4AwOtOwZY61/zmhyb7sVo4zXeNs0w+QhfV+Zh4OvwmHvkofn9Y4AaktlFPqOoZ8kBYcbOPGS/WsZJXzSsvfd9gaFpjsd6eGiYHJ+Q8YlxHXPBwcEP11YHflR4xAzU4qTeT9zuZ2wINiZ6Z739A/pZd377iV+v5cf0mGFWjnHOgciXYg7BuHR3dUtcbIxER0erV6oU+FRl3lU2VzvrYi5+a6e1rV2uXbsuCQnxsmPbNgkOgrJmXr6JW3Ob/Ez27znUvDoH92/f/a7PL+8L5AO/ecRvAPHT9fzkOD+cyM97R4aHS2RkpLhdAfrmDBowA/ejzIB5sa6fjI6Oy+07RdLT1Snbtm6WjLQ0VTq2otCy80g22L6pFb51kn77TeDUZ8TN70X1D/TLyMio8jssNMREEbCGWhYZtYxiwN8FFdr470sHMvC7TszJeu18bDPr7OnpQZ2hEhsXO3vvYZTjQuU/i8M6zr9LmI+b7+YbGRuX/sEh8Xi9pu9wnSTwrfJB6NvQkDD92jPfLft1r+xiXbzl8Xj1Q4b8onR8fLyEhASbvtRcDwf3K2M4ygQ+Yrz19ffpl6b5YUq+sd4Gljc4bE7YRzolvDMjXvQ3P25ZVl4mWRmZsm7tGhgq1zyabQmwS/ueGbBzOvBDwyP1yXcDC4XHElRc1qNP8vmzAJAZAkoRHR2flBNnL8mRU2f1a7pJSQkSh4Hgh8FNZaKlNfuMeGampKC4RA4eOiSBgW7JXrbMWB7NZT5foHhV+Plmc9Jq6J2BQvAib3V9s3x68JB4YK02rF+v39thHq1LswIH0fDU/BJ/4tOE34rbXGd15szOTcAAnve5B4J1rj/taz6A4lRmvX1DcqewRM5cvCJXb96RotJyKSkrl9r6Bv0ybASMFBUS87MG880lg29hBEQe6LoTzvugrE+euQgjVaBfnE1JSVLjQVr4KQdDk0+ycOlLaonASuwN65bm4WUaptGxSdDerxGaG14yi/GlqUMwtGfRlkuXr0h8QoIkJsYh+p2SSUR0fQNDMo42MZoL9OeXmWzsJvGfzWnzaQ6T7HvkAL9u2z84LKMjiIhdgeIiHnQKvxDML+wePX5cHZplWVnignFnNDP3GRbDI8K9Rstc59E+s8F+k7hSgj+8b+fRa/yLC7ZDVNvYLEdPnpUrN25LeVU1+rRMCkvKtW/5ZeQ+OGcufiMMxtsFWVRS8Ef7xTonLqUV570wFmfOX5CComJ9c3osHDVOY9ptMH+t/IB72zYH9pjVDtNzw1mWZOIYKSmrkJOnTkH+xiU9PQ00ulEfuW8ZWysZHCxFHLjDnzjj14NvF5XI6TNnxR0ULCtWLNcPYVI22RVmzJm8OpQBJNlyYXxAa3HgBwb28SMGtkjOTxQnk8zwpbEww/h+YASQnyYvraiUsxcuyZXrN6S3tx+lUA7Cfk9pXKAnOgyFND45gQvGGPG6rRC8+GG+mstkKRgLEfQTvyUnYxMemfRMqdHiNeYxCp35Fygl3rfymJ9ol/4gjXMUsqx683bGWTB80MHH/JaStcGul18Dvl1QJJ9/cURKSiuh6IMkAR5yUJBbahvq5eCRo3L+0mUo3FGLBisRh0EFsHDrPfObeT1oJNs8gkhKvzyrgHzsIyvfXJoDbRMwGLLRBuTVuu2EG+OTU9LQ1ConT5+TO3eL9UvIBLaLaXJiEhHcmHr+VGzE0Q/jdOnSVbkAw8XPx5MEEwkTvylrU+kL2je4x37m51YGYHyu37qtCru7t0+Nz2y9kJORsVGdWmI5Kj2jDc19Jhtmf+P/HBfMffvebJptO+/ZuU3Sf1rMlGUbaIBuF9xFBFEJXvDDmpYMj45KdW2tHD1xQo7AkDa2tMzKK3HrV4KZFNMc0JGhU8fIzANhnss/n04b5n7fm/hPy5E5Kgsmr2mhaZV30gMHYFQmOd54D4bFUIWEc16blQvi4B39bYDXPJwVgBMzARmwr5sTUxOx0V2yz4FS79s0OPDjwSNmoGyRmUsUJhVIenz8qBrnxSGUvPb1QOG0pNACs0mCIjof9ANxQB8A/Pn5K+W9996RTZs2WuX5iXQMJOCZQvLg0jg02CSO0wJPDSzmQNeKrMPcVAox0OP2Q/kAmQbt1heeTEb9TjvbA28dxwng9YC8Kf4GXk7OGiWi397FuVWX4tYxpokt0mGtaO2r+MvBDUaRV53d3XLl6nUZRETw3NP75YO335R33nhN3v3Vm/LSiy+ICwbr9NnzUlZZDXr4TV3QjUSDrAqGRyalh/w3idcpZGr0qUA0L/iFtnjRAFUKqF8pMrf0N43ANNo5hdIeMBb2XNvIOpVHwK18Ar6ungG5ev22VFTVQYFSDMx0aVhouOx5bJe89eYbkp2VqXj9AlyIrEZhzArlTkEhFNcYaGJ9xihRYfLcVzb00ypINH3a18yD+8Pjo1IED5/RZu/AoI4m4vALCJDc3Bx57Y3XZefuXRIYFKhyxWhCFTJxAjmVPadUcYml2CEkQLuI/FLeaF7eNnJAYz9J3rGvUaHywE6KB4CjMQq4ijr5bahlGRny+isvycfv/FI+fOdX8sG7v5JXX31ZktPS5DZ4QeeM05Ks1+Y/ea19jHP9zDzOo6Kj5fHHH5dXgCtNp2pRL8ecVc6mx26baS9pmZ9U9nA2Bfpo7BnVqjzzLqMb5HGDj/krl8sbr/9Cdm7fJiHBQcBsPsBIHKxP+aM4MDZANMeSXmM1yKcRK6cFkcfA3JHyqW3U8QVnFfRy/KqDiWzKQiTTHw78GPAITvHdCxQkzomPILLxwjt0uQJVHr9ueoFAAR2HV3kNCqYK3mRkRJjs2rZVMlJTIJQYavOmY4xy6h8ckM6OTgkPDZXoyEjggFBDfIfGJ6SmoUHuFpaqt9rY3KxrL0HBIeIOClIcHPRt7Z1y8+ZNiY+Pk80bN+jUz6R3Wprb2qWiokLG4NlGRERhTAXolCAjj3rgKiwukRLgbWhqhvc7ptMVnGYkhfTWq6prpK6+EWUjJDQkCJEKR5Wf5i2FEu3s6pToqEgJ5FQT22bxhh41ckpNXYOcPX9JUlNT5fVXoXyS4vST7uFhoRKXEKeKv6W5SRLi4mV5Xh4irnEYhGppaW+XcPDNjUjLKHd+PK8LtJbrdFpEZAQ87nEpKCyRjs5OycvLRdQyBANRJPVNTeDnoATw0+26eG3xGSdjiHyawJPS0grQXyl1NfXS09cnAS7k5TQj8vYPDEhxSZncLS6X8qoaWn4JdAeiUVPoy3B1OLq6umV4aFCi0FdUlJzmYt3F4MkQ5CUkNEQ3roSHhakTUt/QqJGFSzexhCmvKCe9qKu0vEzpdUNRkvaCohIpQrTZ0zcgISFc35rSKVD2dz/a2NXTjf51SUxklK75EA8Nc3dfPwx9FSLVcqlGu7q6enBPJBh9ql8hRuNojIZGxnQajjJDZc8+Yp1VtQ3So1NzbijtEOUbRZU9ykQjYac29E8hDFBsTLQ8/fhuSUuO1zXF2NhoSUhMkgA4HqXlFXBMBmXtqpUSFx0F+gbQt7XS1tGFKHHo/23vP5v0OLJ0QfAgtdZIZCaAlEAiobXWGgS1qq7ue23Hxq7ZvWO7+wfmw4zN9zVbs535dNfGdm7f7qoii6JIokAoQmutgdRaIhOptcI+z+MR+b5IACx2F4tFkO/J9DciPFwcP378CHePCHv48JE1oL3xCfHC7wnwHUafJqNvY0CLoaERq66ptfqGJngpE9bY3OLwrKy2p0879al89pnGE9r1DMqV7Wnv7LHS8iq7/+CRlYF/n3SADsA/EjiFox4qvx7g9bTzqTY4JIO3w1HG8Oio1aCfauubbGBkBOOjye4Bx0pOWYK2pHk0+ImGyjj4sRJ0K0Ub58zOsaWLSiwK8oF8TyOhH+O2BmOK+D7C+GoC7sNce0W7xEtI4/8JvEMIfhp4zRSUPwQRwLwUrBTEHbD+a2prMXDarePpUwnP2Ng4MaqGqyeMpwP37pHZr968Y1XVtRi48bZp3YsKikJT1hqY/fqtO/bJJ3+0hIREKykuhnCbtF4ogWuI//O3xyR0miEUysvKraKiQlNLWbNmaUGaZbRCeN+8dcvSoaBWQkFx0ZeD7fC3R+z+/fuWkZ5us3NmwwqPhHU/YjcgXL49dhwC/p41t7RYNfB8jLL7+wag5NIsHoJ1aHjIzl+4aCe+O2mz58y22dmzbAKCglZgVU2Dffr559bT023Lli6RVTqdJhQK7Z1d8iioZBbCak2D8GHzSeOwsAgJ+GwItPy5uZaeniZlcejwt/bw8SMrLCyA8kuGEoMVPDGO9t23bw4dUpuLiuZBQY1IQdXV18tSLoMyKQNtKiHUHjx6pA0qmbNmwuOJF7FHoTCojA99e9Ru3LptLU3NaHcNFNUjbXpIB43i4hMkfE+fuwBlUwoh1i3BMtjfb7Golx7D4NCgHfvutJ09f9Fyc3OhcGLs4sWrdg393fKkXdNcnIabhILPBd3ogJ85f8HOnD0LfGbJQyB/0WPiNOeXX32tta7Zc+agnx/bpSvX0SdtWsgfRh9MoK9zcrKgsBNgUJTaoUOHNcVIPuEa1QjqaWhtsxOnz8kYqK1tgOBvstKyCmtobJaSZ9vo5bFPWqBcjxw/aVdQT+uTDgjR++j7Ck1JP3r8WEYZhS43f5BuvhhlnzGwDPLi3bt3oYBjbfWqFVKg3FX5jMwBZTGMvqEBwGm0VcuXWUZamhTgn48exbi4Jd68efOGNgbl5s5VuUeOnIBSeQiazbGZMF6ePu3SFOsp9EUL8HwIHLl2WQol/ACKg4ZjZuZM0AUGHcYclVNDU6udOgtagw7kg/qGZrWN9KSxkpKaas/QIbfuPrA/HzmqnbNc8w2PjLSu3j7VdfzUGauFQimtKAcNS62sHHRBv3CTD8dREniYHxWtqKmxctybC1otWbxQcoFjsX9oWNPCJ747ZffuP7Bm9EE5+LK6pgp9EKYyoqEYCaQsRE4IfmLg7MvrBeQSKicwGPmlAxYaBfYAlASFFq3K2roG7dzhrjSXxx0CwJwMzvV/ZhTaWgqfuqdqcObAXdCa5jpKGwZhHwQhLTAyeiME6LHjJ6wD8RvXrbM39u2xdWvXafAfP3EC1lupKwYumOpAHk6tcdqEHgjXAR48eghhXmQLYcWGwaMYnxy3SijdQ0ePSBCvXrnSDuzbZ9u2bYWHFAeBcEpKiWscXCdKhWBpg9ClYBgaHZdyosCuqq6yBiiGdNyPo3ACTdzGBDYd2CBQSWZlwjOaX2StbS1QDN/aVSjcZljKLIsKKmdWlm3asN6Ki4twPUPrGE8hrJ90dNro6Jg2APjPS1HhkEb9/YOqx6cjN1rQUs8vzLfdu3fbho0bZcGfOXferl67Lquc0AXld/7CBQnhQtBkx65dtm37NgmtK1egYJCWOwy5i3L1qpUQOou1yE8BtGnDBisqLJKnxbb2QJETR3qiTLNo0UJbCy85JTVNNFu9erUtgeKOwT2lR7+2go5clAcJSSThP4w2toPXurp7pWwWzC+2dWvW2CwobSpvGhsrVy7Tbkdy3QjSU3D3oX6yIacNO7n2dfmaXbl6HR5Mum3fvsN2om0LFi6CR9ZoR459ZzX1jajPTT9xPa0dZVCht0CxzSucb3t27bH14DHS//KVKzLMaGtwPExB0DQugYaYoQ/plWgnX0QYlDHqgEHRA89waGhAypvCmHw/DMVHBV5RWQnl0g/DZpmtWb3GkpNTUe+EvEPuUBwF77EarvF09vRLsdVByGdl5diOnTttPfo3LCJKMxSlFTXgadSJtnE69PzlK1DwV6W0SIc9e/dY0fz58l5Pnz1nzW1tmlLtRT+0dXShzoGpKUDW14Xrytp69VUujJEd4I9NmzbBI44DXa7a1evXYTj0ozZQE8RhX6onSSjiDAOuHHQ9eeq0daJf165cZfv27FY/0sM/Axw4K8GpSvyjXvyE4CeH10pBTc0Fe6ORFjutcsYtXbLI5s2bBwG/UNZyc1OTdXd3Y1BySuF55uIVWZbrIVPnIIU7Mt6Pmx4orzDQMejCYOUyFWfSOUXT1NBq8/KL7I3de23n5g325v49tn/vPlnh3C1GKUWPRLIDZXGgtkFwHj99xu5DOa1es9r2YpBmQuCx1KGRQbt+86Y1YcBv27LZ3jn4hm2F8N2zY7sdPLjf4mEdXr52TdMpUTFRUm5Z2VlWXlWlKRqug9BDoDWYmBhviyGYw6mMKM1ERAcUWFTP3Lm4fetmbcNlGb//4k/2L3/8wg4fP2U3YWVyE4DaT+xIT5YFGjg6yL7EUY3DZTjoHomy3XSV/8fnvtatXmnvHtxnu7dtsQN7doFGe5A2wm7evgO8u8SRVAINDfXa8r9zxzbbtnUTBN52e/Otg+jfRaqfO/Yy0lJtDbyCJUsWwkOIgYLKsg3rVsGjywNezvgI4+46BLadW76XgA6rV6+SgmCb165cYSugoIgbp9VmhLNvo5HXeTHsC5WD60j0O9cho2EEFYPX1qDP6EEkJSVAsC2DglpqScmcSkRrxSeRcFK4VkRjZFJTUrdu35OX8v5bb9ru7Vts66YN9saBfbYcgrGuqVHrQaNQEP50GGmYlJhoG1DXuwf22p7tW+3AXgrSlVAeQ+j/Znl4xNHf5IALXuqKfMb1ysGRcWtt74KH8gRGUbvVcxruwQMoicvwxruh/PKh8JOlGMk7nMrLnDnTdm3bZh+//y54YxuuM1F0uOipqUhUol7HkXniExIl4N88sAf9u9X2wQhZswbKFIZZE+rlJgUK+wbUfRceWDJo9eYbe23vzq22Y8sGewvtI/9x3NIo43ToDLSfHiWNKPdIQDBdkmz18hX2xt69wvPg/r22b+8uTX3Tw3va0aExRyTdCAYAAZbRD6/37r371o40Wzaus7fBk9u3brS3cNywfr14sKy8UkYmDbppIiQEPxG8VgqK4AtCDsAhMA+nfLKzs8HsybpPK5HbUbkOwKm/CHAop62eB8euriQE/LjrqdKnBcRpwHNRNUyej3wzcTwX42MtMSHeWiAs7t+9a40NTYh9BoG10v7hNx/Kasf44rhCrFvI7e4dsLMXL9ulq9espKQEg2ufnq3ilASFRE/voFXAwktNhpcAYZSM8rm2Eg3vKj8/1xYtXgSl0WlVNTWy0NPTU20eLNCWlharb6y3iRmT1trx1Oog6GfDs5idk62ywyBg/K3hU4DLSNCtBN7Rh++/Y2+8ccAyMjORt8lOnj5rf/jj5/b14SOyqMe5E4oKAoHrTfQEvSI8coBeiIKRK7ymAI3n2gen3tKgMCNBh3h4fvMhGOfMngNB8VTP11DYRcdEyxMZgCX7+OFDq6qqgFXbY3Nz59p7H7xjmzdvFM3FvMDh2bMJFI/emaElfUQCL5QvBYMfbe/GtfDzEKXg4jZ5+c4OcaWfgJXPnZZa/EdDnMhnWWyz5BsvvR8GqgBwBejtTBzGeunJJyACF/1HRke0LtkF4UvlVpg3xyKBQARCakqiPGeuH9bU1FofvMwI4ocyiGMKBHFRHukWY1GoKwneTgYULJUEN3zQq2HFwogIeOfEgZ4bPY7q2gb14R8+/8o+/eOf7JNPv7SvvjkEj6XSFi4otg3wKhMTE5AD4puKAIG7OIvy8ywV/RaNuqgk2Pfsd3qb5AGRiXXhnP3LdmWiPfDF0L/AMz0dYzFWMw9jY6Na7+OaWg+8KG5cKcydjbJN24myZqbaNhh327dtRt0zRUv2jXsThlqHOB5xhvpocMzOyrb0pGSLBm5JsTHANx+GWrZ243bA+2T/u/T8FUfonGtVnGmhh0SF2wTjgPzdCk+VdKXx2wxFSkUmpeg3NAQ/KbxmCsoxqZiMggHYU/CPjY86ZpaVBWt1fBxCZkLWrmPMFyE4+rkk5ENmUjVk5sDdwJlYVkqSAyhv7mzbuW0T4sbt8LeH7ZPPvrIvv/5WGxu4SYLP4NAiZlEcZ9xxxIXbcxcuWm9vn+XA88nMSNdUBAvmYO/pG9QUBTdicH2HdTur2iwqKlKeFqd5qIQ5p8/pKz7jQYHETRpc96lvaNCaCXcepiQnqj0vAxSJQWqWEBstS3rf7h32H3/7sf0TlOsOeFWJCZw2uWKHIeC4DsZGu6Hui30XWLpqmDoJVKkUEnw4IREgdGYg8EHlJChhrtX19XFKZoaE2sb1G2CxZ9jlS5ft88//ZF98+Sc7c/a8pgEpOLmOwL5hmX6FxIAMzRiCYv0LD6Zw4DnT45yXrNeV4vKo35mWCQm4lpB00U55+Dd1dJRQgqmjOye30ivq7e3WNQ2R6KgIpY+Ap8eFf244SICA55Qbp9WmmgUIj6BH6p6xCm4vA7ftO7y8xFOAdEzL5Eo3bmOjo9quPTrKqdRJrV/Rg33/nbehNDl1i1YpvYMIjieMIXSTo8e0OpjUzQgAcCRu3AzCdOwHtivMu54Ar7LfiUc/DA/Gsc18Do2eEQM96cKCfNuyeROOfHaMpbh+dRUFHXnKP+V145DATS/J4Cc+Z8dn0GgoMaUyeIFRvfA+e/oHNX145sIV++Tzr+2Pn/3JPgWvXbp0xXqhQKlMx0bHkBoQRJcQ/HRADngtgWOFbzmYCeFPS6epqUnCi7t+qqqqZbnyQUJaSJrWmgZ+DI9T50jn+J/CaAIHXDB4jB1citLiyAGYkZpq+/fsso8/et+WLl8igcLdYl//+bB99qdDVl0HjwYj382hh0mJDI0M2+zsHMvJzLK7t+5aRXkVyoSAoODGn8MZGYIqpUXMPw1KCRMMXQoAAK9zc+fYrFmztIje2NRmtbV1FhsTA89oAYQF0rFM/E8JIa953NjQ2dVlbW1tNjg4YPFRUVY4O9s2rVlh7765z3778fuy+u/ff2B37z0QbZXZBx9NP4p1vQqY8LnExAHnDCiXHkN8TJytg0X/m48/gre0SZsyqIjPnj1rn3/2pd29e39KcLDdbseXV4bfNsC0agDuZiBJ4ObUmZdJjxuwSF6BhxR4i4B6mExJ8eNleR6mXwP8KE47q3t9wAX7lCn0h4QK+GOf0zBx95nWBcl9nAZh9VJgtojwGVaQz23mB+0//OYD+6fffmT/8R8/sn/8+AN7Y/ceKy4q0sYSVziBHOgqkfJAXeRznqt6VKmjFwgOC3flx7lSwKOeAiUuyoNzKhSnwFxgPPue63vcmci3uigt/5QvePy5M/Y5+0kB45UjROPS01ak4YsQVArSxsMoSJ+ZKYMvMzPTsuC5zSsosG2bNmvmgl4lERD9GULwk8L3SJKfI5DjHKNzlJBp8vLzZHk+Lqu00jJuSS6DsO20efPma/Ga0yxTg/tVgGKZhsLOT8qjqgnKG8zvbnBQpj7TgjG3wi4sKbb333vTfvMPH9i77x60bFioV65dV6DXRNVjsEgpUDm98fH779m+Xbuto73Ljn931lrbOuRccMAmJcZpCmMQ1jR3QbF2/wWfXIDn3DnXONLgbXAdiQM0Iz3V5s+fp92MV2/etIbGRiuCRZo7d46jgzD32kPcNbj5kO6IXbtx2z798mt7/Ljc0QLpw3A/NhpWLWi8dMlSZAnTdnjuXOSaDgUMicD1IKe0pjGURzvSTYE/QcDLkeEx6+vtkUBK5FbvZxPW091tT9GGnKwsO7B/n3300Yf20Ycf2prVq62+vt4uXLyghWwKItbrhJg75647V0+gtbLAp4F7Ugp3cItGjBQSrimI/bI0jRVkqCgH7gWXxroJTK96/ZsuegrUvoRExXONZZQbWZBHDxCjX/vhLbOfud7EHah6TIDgGuPRj3g6fnb1+pV9PzBlfFyMdhjm5c2RIUPviYZVDLxx+GauTCRUiTqfopD6lB4jz12cCz7412QHluNAGOtM2LI8WEacTuN4ZZ1DaO8kvBQ0lgRE8knrxjiqrqy0zo6nUlisW5scvKZ6B4BHC56xn7yXPdNI5RQpDTLuXJSt5NHQYenwjIuN0ivNMjPSbPf2zVDW78MQ+1DhnxD+8Tcf2VYYR8lJyarUb1UIflp4zRQUgdziLDCec+1n0cKFWmehEOAAX7SwBAMxF+mQiOleyl0cNi4JqUBhxyfjq+v5fMsDu/PgkV5rdBvn9x8+1jMaPptzB5SEGAYc5//52pgvINzvPXxoERjws2Zl2qLFC4UXlUBb+xN5TRxxM8ImLTpihs2ZlWHFhXm2cf1aW7t2nRTruQuXbHBoWIOKi/5FhYXWy+dvHj3Sc0Hc+qrnjFratMONu9jy8vKk0NiMuOgYW1hcrHerXb500YYG+7U5glN0fIN1QHgAvFMJVhy5C/L6zTt24fJ1tLUbXlY4G6o1Nz6P0/EUyhMp4+ISkDVMr/XhtnBu6ee7DPnALtNytxWfuWJa1sey2XRWx919jc2t1tc/JGU9DCHNda7W1lbtMsyAp8T1pIbGBvvm0J+1PZzKOCU13QrhwS1dvsISITDaOzr1bBVLdbJHIlDTOZTrTriyRhodOPM2TPgpRS9cUgH5r1yiqOMUEzdLUGHwDQycliNzsC6ukbGt8ly9OvWLgmhUcF2Sdcs7JQ6sB2mVHud80Dk7J0fCubyyyuqbmp3Bgvx8HquyqkpKKhf9mQDDihsf/M0HbA+T8tqduHo5nebaEogPHAFMhwB2RSwMCdCWytgFd1/5SSOV4cXhJxwZfbKxOLaLZSHKGSfM5/0xLgI3ud7LugjMQ2C9NGR8YyYyLMJmZc7UM1V8torvptRDwGhLd0+vXbp8xY4fP6EZERkGUF4sk9lF+KmCw9xOya4eG8TYeBYWaXytKHfUPgE/paUk28yM9Kk2UGE5TF1bOW2ehXE6AGXW0tSoqdZk5ElIStSaHXdNcjYGyV37VWkIfmpgj71WoGktcg3ZjQMUR+7m4QOg3IywsGSBGI+M+X1sRaZlKfQGJifGYMmOSNAePv6d/df/9i8I/2r/9f/6F/v/Ivy3332iNwZQ6E5MjCo9Bw+3ck9CgIRFxlhD0xM7evy0nTpz0W7cvmdXrtywu3dvQ1mEQejkSkhiGCLDmM2YHIGuwhECIy2N22y32Ny5OXb5ymU9xMvXL0XHxNnKFSv05P7Js2fs2OnTdvP+fT3xzy3t3VAYa1etstkQegSuFTDQMp6bNctaG+otCcKWU3MCChQ2OggkyDHy+bzSwkWLrGThYiurrLYvvzlsp85ftmu3H9jV67f1fNXNm9c04EsWuOlCTsPMnTNHSufs5ct26dotu3zjlh07edbu3btnY6MjUspuChJHb+3hOtIcRZorUIZnL16y706ehhc1ZMuXLJbCpZDnszp8QejZ8+fs+MlTduPWHSnPq9dvWC+EOd9+EANvi0KcdKVSiYiIsrr6Jrt95z4UXJPWPEhvLnZrM4drMhkIXmEUeCYBSqfdbgFXPnDMh035Hr8c0C4qKsJu3bmlVyFdv3lb254vXbkiz8dNKTkejIyENwA89OAxDRl4n129/a4eel5os16hhPTc7Zifm2tLQGdOSX979Lhdu3UL9d8Hz5yxm7duWsbMDFu2fKlFxUZD4YMQIB3r8704KjT6M+J+0pbK1dOKxEeBl6yf2RVQ/yTMBwSJZ/Q3+UCsEMQO7pIinJ7zhM0gj3PdiAUqnbhXeDzDPXrNjGM5rGMGcGQdbh0VkQiOVvRs+BgCN6/QsJyhjQ3ko1Y+5/XdKbsI3rmOfuPzYRevXIPCGbE4KLAZM5gf3nmQh04gHkSqp6/fbty5Z6cvXLNbD0rt4tWboOV57ZpdsniR1n5pPNAzI62k8IAa13gTITOWLVuqzTjnLl62o9+dEY9dvnbTDh05bn9G/1TW1mn3pftj+13NIfjp4PV6UHdqVAUCBxsZj1e0gpiEfOh7FS8HDmYy+jO9aaG8vMK6Ojs1pTY6OipvwoVhGwCzk0mL58+DR5On7ev1NdW2BAJ1QUkxBs4MPbQbERktwVgFS7iutt4qK8ttsK8XSmaJbd+2VQOBg7e3q8uqK8phRWbYiuXLtI5Gbyk+Ps4a62olBAsKCiwVwpqCl8K6pa3FKqoqrbq2Vrj2Is2alats187tlp6aAguT7UZrEbi+wYdVO588sVXLl9v6NevkWarVTKMT76AsoBMUDt+akJKWrqmn6poaCW0+S8YHF5sa3ZbvHdu32oply/TcFT0DPmnPB3a51sUNGdyBxmeYYmOitO4xr6jQFiyYbxNjw1ZTXW2jI0N6aLmppVnPa5VXVmoKk1u9d27dqs0DxCkWHl9UTIymKvmGgjq+3YHPAiHfnLlzbMeOrVCOs51VTIGLwK3+dTV1WquKhaLhtCbX1qpQLzcdrFy53LIzM6k3LBwebP/gAOhZre3MfOCVz9JwJ2gEDI6h4UGrr6tDvXXIX6M3h9ATo+KiQbAMfc+1PRoEI+OjUIyu/Xw2KysrC9Z7krXBAm9A/BwoU3rSfHsBFSPvjcATq6utAb1qwCeVyAv6JvMVQlslWPkyU3osg/CAa5GGO/pWLl9iaamplLVSei1Qctw1WpCfBxoXgxbh4mnXxfrRQOBWa9KetF2xYrneCs41IafOHOjoBoR+OMVaCx7nW0SWLl2i3YUaY6ABpyFr0Se85vNns6AEqBDqwQNjI8O2dMlC9THHIA2Utiet8JobtYt0cUmJRcOTjAQdEpNBh5Exvf2kCuWxn7gBh7MPmzdvtvkwONm/rd76MvtnAR94hlHAMcmXyNY3tUCRJWLM9Nrj0jI9b9gDw4bGztatm/UGe05tt8JLYzl80FcGFte30M9J6AsaZ+1PyGfV4mPu5CMPsR85+8A3cHCMyA/mWCGJQvCTwS/me1CyjgBTQvh7wI1FWqRuq3ppaZU1NbcFvBwGjyosLxqCeF5hgeXlzoawbtJA4BsSiuYVygPjUOdDqZWcuoFQoqDiTjt6ckXzCvQ8iaZpkLKrs8sePnxoSRCGfGZLu9EgcPgQa1lpuba10hPkk/d8DoRvOqhFmXwFT39/H5RNpNZm6BnxrQMsk8LTB+5ebMOArIGinINBnZeXr+mR5+jCuRq/gQDiT0uTr6nhGxlqIZi53XYIdfPVSCkYyHPmzpbQj4+NRw6kn5iUp9cA4VEJr6sPXgQH+ywogQQomK7Op5YNS5nvpBuHEC8rq9RDuhz4fKCYUzFEge1cWDzfckArIkpq0jYfgFfFNtdBaAyAthQNxIPl8a0P+kQE24R+5/M1NbVNmvacGBu1BTAmFi1cAOUxZuVQsk+7OiVssjMy4BWwfAgteE/3HjzQq3iyIVBXwVtl+XzouBUKia+d4rZ39hv7j89N9UHxJ0CRL4JCiIESpE/Q1dej3ZqNoMMsCMSVMDpmpqXAS2qzaghdbuLh83k0HNherpXwVUFVMDi4KYV0JC/kQ9HMRX/xFT2olN1ifBt7NXhqbGRUW8FpJFC5cNq4EcKZ9OGzb3yTBw2G5/oUdGHgWiXfosA3jpCvqFjdeht7kfXg18umPDjy0Y0KGCjc7LMAAp156cGQh/iiZPI5nw/ieid3n/JlvFVVNVr7YRw9bU4hUkG1toEXwU989qu4sFD8y/cajoIOHaQDaCQ6wHJIQ5pCGGfZaBPfu0fPqQl8wnXHmTMztRbKN0k8gRH0yRdf6e0ku3btwnjItCfgV9I2Mz3NSuYXWU72LK31kl7Nza0ycjgeCwvzoWg5dQ0AHv0Dg7pXj0B6R8DTzYTxWASachdpZITnsXohBD8t/Do/WIgRGdzoZ+MQjPCEaLU68eXu8pdM6c/z06LjQNUWdk7tSSg4oKWm3Lg3Ps63L4RpQVhrIBQ4ntChQOV9xvF5C9WEOAEGtRbpccr7FNZ61gTXXCvxy3VbcxHpIajyfUCcFo0RhB/rCb5PeImC0tHDgwe2g54F8acSdQ9m8iYP7kTJUfYElPQEhIOjCZ8swj3V7zw6gtZ6QCNfaLBsto00ohJkG0R/BG1OUB0od5xTPO6Kefm8ltrOa69dbofkpI1x4wGOWviHYHFrLSgD+NAz4r4werEUz6QtlRG36rN90aQp6YX7pAPx5foivYaoyCjXHyiPNUaojxy+k2F8NdOEPG968PTemIc4+31AvhGobO8U90gD9i5p4NOJ99Wf+GdSpiM+LEOcoXiUj5vaoYq6GFw+5ncV+EempqBnmaRfMOgTIt55MDAnp0ZZmR549oC4ss8cr3Ndh/3t6mZ7eSKvFnUxLeN5ZB8wjtvWWZ+bpudNlkU+47N1k6ID301JEA2QmnnZFl6LbYFOR3ePfQoF9fBRqX380Ye2af1aGyctkY6eaiS8d6CF3PxBXcCXdGQZ7A8WI/xUES84Jrke6cYlPVi2S5szVE4I/l7wK/2irtdkHMR8k55wwAhw4owABg3iTDdgAGBawtS1B9yEQKBwInjJdPQFFAWajv5NlOGdKY4DkEPYVyi8pyWGKUQ9YFoc+NAtIfgWgWX55U7HUzBNQU0B82EgE/x2EIiuUiPKDXp3VDwUO6tQPbz26la1imdGAK12ZdDdKSXDK67p0KrVNeIpBHWOPCqG5Xj18cc3GFwR3JwBOk21J1ioABek55/bOIF4T7j6it8l9NrAM68Yd4+R6Dtd8MfVqYAfxpBarjfcL4NfiN/PU/3pXfPo+sXFM6+75/CYAlworXfpAHFeXleOi/PBqyKoDkSoDP+agKOnnFyMl8m7cm1ycT6VCc+0JuSdI6gPWCYifTyZPpDDpfPLIrLKrwQ4QV8oj5dBaVmOV66w1qDx8rMeXLZ3d9sfP4eCevjI/gEKasvGDUjp+JaFae2NR69cdgdxcHTz6vECIUArBw5fj89clCD4PAQ/DQTMo18R+B+fczapTwKxsFjTh2Am9q9e9kegZUahTmZnIJDpZZVPA++2wGd6DRD8uwVZ2veuZA4y9+FDxlEU0xJ0A9ANYVdGcFACHdzxh4LKndYODV7Uw51UDPr0yFR6J0hwNqV/1GYEYuxC0DmTomxmcQvoTqhMKXWWjITsFW5D1vZnd8OVzT8qMigNpqX6kjBFItbrKMbEzOSA+SmwwhF49EECjCdsHwvHP8ms9N49t8kAeXFOXBTn3dcf0yHwfhgQ4YcltckgKK/q8MCnl88TwTRgHK32YODV8zEEFBoUHK/5IQCsJwAvT/N86dPuvyS5azPP/JsIwt/1sjwO/zw4BMeLl3mONpMejMV91w5HBx93/jIPbnrn/u8MrY9lpCbDW6ZHDQ+RGzsQRH/xmF+Gq1e4Mvid7G4rXaA/3CgTnyI+KNdUCMFPC79KD0pjROBxqXekB+WE3Kvg5ffcwHkRAvU8DxoAQeAnc0PCnQXDdKzcEGX5L69Xaf1b03FQ/PTI7wcJcOQL5PILZ6R//iKQnoRAuxzoOihK4scTKIz3SwwkeXUdBKLAtEql/EGFAwK53RQVwcX5KZVJcT5tBcJp6moK/Jipel12xgT9euCl+aHgC2rC80omcI+/wfdc/PNpg8G1MjiNQyrQUt4juGv/Sg177pa7eD51AKbz+/TSfVYJ5J+e4i8AklEdDg6NaF2LG4q4LpU1a6Z4VDShxwtgyQ4fp9x0ivt+nzGFf/TBXRN45vIRph9D8NPBr3SKbzr4rPfjkiIguJ4Hsf+/gdunY/XzGSjA5KUN8Rv+19KT5XvH7wG/lu9PBdAUFUWcl1K4MxBfT8AxhgXqlpduGvixr6rXj//3wKsUVHC8D/79l937YYD8f8P+8xXWv4XX/xKwrSyWn99gs7l2R0+MuPrVBGP90jifbi/0nA/BqQNlhOCnh5CC+huCP0Cnw485YP++gIZMb6Pa9mOz1Evq+beC8IJykjDnhSICMO3y5wJ/vRL6PkDZP0n//fjg0yNYiT8Hr6LXq9KH4GcJIQUVgl8R+KweElIhCMHrAMFruCEIwS8cqJhCyikEIXhdIKSgQhCCEIQgBD9LCCmoEIQgBCEIwc8SQgoqBL9ACE3lhSAEvwQIKagQ/GTALQrB4W8KU1vIf3mgxxf+5gT8awB0J/1/wX0Qgp8GQgoqBD8pBCuon7WM/RmCr5h8sT917YWfFxBDiJeQkgrBXwEhBfUaA1/ayQcW+VLSv81zMj8OTAlRngeFABD3ny/+PyeYLuqfo+lPTMKpfvXCc6DISe/G9JvfD3zHg/+eh58/PMPY8x8Af11wfn0g9BwUQE+nS8DzvVzTRcDPE4IfVCTGP+dOlKzCke8A0LvOnlOmwB833QOXPxbtUQ4t93+HcPx7wAvC3QM5H0Hg05Ew9com/8FTNtmd/WTgyOve7EBg3waDeNPH7wcCecO9tggX+Hn12x7+eiAJVR+q+LfiGYKfBn6lCso1OcD8GAj+oPCo8e/iV3I8gMz+fUT9SwLJv/0qFGir0XsaHBzUx+L4qpeERH58LXJaHnf1KlwCWCLd9ERBUf92a9Zl9vMRC9JXAowGgFe2Twe9sRqBNGfaAIF09ZLap8e4dAHwr5kukFaq/KVZX6yB8PLYF2t7FQT4y5U0PZ/fzOnxikYkX7xO8S9Br7/nMZKi9xj1+TvPw/TyAzHfl+vV4OcSPQWupcGl8VzDAUH9KjxdCj+dn9sHP54ZnZ2IH0QG6PgS0K2pnN8L0+vlNQOvA215sbTnqvAulA9t4mc6+G0sAj/U6X82JQQ/DrxmCgrc8RLuCdhwz0OA5aYDrXiISzAYhUBf/5C+FBoRFq5PePNjaXzrsv+W4wAE1e8XjmspJAwqRmkc8tq/OR2YHgc/uw9MqYAbfq7gdIpDHTwOj03oZZm3b922J21t+qDc1i1brKR4nj2bnAjC2+UWZn6hPiDKYYm7U6Z6UHodXSalU9RLCnlplMuvT4HjyiknfhZjhj7n3dPbow/fUbHyc/1Jicn6HhNzSTApOwt25QQqcdcOr0DFU8KF7cD/c3gHQbAQeh6eT+fDy2N9LF6E6S/Vde81Z2rGkCrujvK7pB48X6JSsxwxkwfqI5d/fHzcurt79D2p9PRUi4qKRizNFh+eL+9V137/vwi4Pz1aWQKUZ2vGJyb1gU1+bJO0ZXlKNiPMoqKj9DXoyMgoUSEwM+HK4JXSe/XwwE+mDAwM6sOH/DBkclKSeJlkDXwqw8swdQT4RQOeo7FXC4Gxfg7ViejhsVHREdaevmgcHRWFNF5hOkzl8I4++G0I08cnb9+9rxSrVy6xDPSHM3YZ4/L7uf3SXiwvBK+C11BBvdi5r3oLOVO+lBUo6J9NeF/2nLTLV2/a1as3NCi2bdqor7GGoUx+PC3AbMyGI6rxrwUcPTwgjIwMa7DGQWHEQMm5+JeQl2XiIIEZVJQAySVq/Fte+VR6+lgcTvmp68++/JM9eHDfMjMyLSc723bv3GlLFy/0FBRy+vlcLUFHgn8vCDefrt7boF8Gflv8oysxUKoPFCbENJzYYvDTCBibeGa1wPsmBnNNXa0MAn6jiV+JLcovtGVLltjs7CwLB+5Ov06JChzZX961ymb9AdynWoYoF8sUtMKfx03pvGw8+HddecH0ccBYd4/VTr87DYgfac4q/GqeBT4d4WJckID0+wf3g2sOpIIAHR0VP0VFR8NoiuNtQcfTp3bmzFnr7uqyfXt3W2FBvj4Y6OsAUkoUQCGufgQcvRqnwH2wJBDrUPLxCeA0Bd4445dy2cfdvX126fJ1e/jwsT4k6RgXyYAIcebn24thNBXk51p8nMPfbys/i8HPdc7g2g3qnUT0AMbP7bt37d6du7aoZJFt3rhB4whNk+XCugk68+j3sn5xbXJtEA0US3BnzIuuscbWFjtz9pxNjozZru3b9Fl58qpPMiHm/hG8Urz6VAbiyitq7LPPv1L0P/3mfSsqnKt7zkhkTmRxhyl4zvAIwffCq6XRawg+0xK+jwV4zx+EY+D+yupaO3n2vF24dNkamlsQjXv4F2Pih0w7Camja9zz410d8AwgfEfHxu1habn96dBhK62o0ljl2HPMyTzOW2PQOfMFXfvTXCycebS+zOBZ4cIDifnl2qqaOrt5+45l58y2jz76yN5+66Dl5s5FMuKN9CiHuClo8TYQWHOYq90TDhzszIKjqmcc7iO4bxtNDU2XDsGxjWtPMM0DwDjXJr/dNQ1N9s3hI3bm3Hl4rIOWkpZuSamp1tHZYydOnrZDh761hvpGbfjg13ynikFmfQ1VuDI4vN23l/y2MCixC2gLr6msGZjHb5MwYn7m8eLCgCfD1HfCdHT1k5L8U9G6RpgmYNg+ljyJeGGA/I5fcMPPo5S6dEWRj8RL+AMO7g7Tc8Gdn7Efs9KyCjt85BgMkUfymkR8BNJjaHDIeqEgxvnVX+R0wcNV6SjTcaVi3fXz4OK8IhECCXjuX7+0fxX3zIaGh+1xaZldu37d2p922jgIMTYO3CDwGzGOTp05Z1/86Wt5GIPDI6KTy8mAtqtoRxlyFL8DNoIye+BBUTmLd5CJnpWmh5GB/UUaOb5kHK95HqDzJLSP6O9XRsCRBgT5RoYEAr+a3N/fb319fe7rxkH3XLnsC49nEFxfuQLdAXiBvzjFN4IwxbdT4HBwvEBPMHg0heCHwC9IQWEwyvp3bPqXGMGlRQADUVFQUY1gsI/jQuLLt345xcC04RgssOLGwLcUCboHxmPgOT2y2qYmO3MZSq61FfmckJoxGSaB56fDjxNmjPOuiSuvXRzqpSnsxeNEFiQ/Sc9zjALr7O6xwaFRW7J4qa1btRwWaoElxCe4QUNcaW0i/xjSjmMAzUAbhCP/pIiYEO1EcRKq4WE2gTQQgWgb7qAIfXEWQfkQeI9pn6Fsfmqc0zsE4urapcvngLWQlv1Dw3bj1n27f/+RFc+bb7/56AP7+IP3FD549y2bV1ik6coLFy7Y4OCA8mpnIstAuaTDOBUXG4j28ZrKbwb7CEepKrYDbSBtxzkpIDry44a874Ivatinuuf1rTMUXDlKx3OWzfJwzqaKB3iPzSZiPh4MoME4jqMg6AS/cgx6Kr0CCcPyXP2TjEPdwhN0FE4e3iyavCXPHhXVwOO8eO0mPM5GVRnGL0YCUlJSbMeObfb2O29aTk62cCQ/O2GIBKQFDqSX2Ib8hBL46XOC+ov1kjbCx+E7TvxVkcPb738kfQ5cKTji/vj4mCUlJtq2zRvttx+/Z7/5+F37h9+8Zx99+J6tW7va2p88sfMwShobm5CDZaFMFs+vPKI9bKt4Dvei4XUthSf97nvv2IqVyy0iMlJ0ES7Ege0gv3n0YnnEzzcmeO0bRWwbeYJlj5EOU1izOJdvZka67d690w4c2GtZWbNUzwz0nT7YyTIoH1gG+8mjheihMogKjBkcXYxGF4mi4FAiHuAvHMfZ/yyXtPZyhOAvQ/j//L/8r/+bd/4aADv2+c51fImOx8korS6chHO6QTccI00H3yshk4/CI7n3sMLuPXioufzly5fbvHnzxGRd3b12/+EjKYOhsRG7g/P7jx5bIyz9sZFRi4dS4JRUy5N2xD+0mw8fW3ldrcUlJNgklENkWISl8BwMzoHf09cvi/MB0lVWVlkHrM7w8AiLionTgCLKQyPD8MTKrKWtXVbn3fv3rRoeU3xiggbKzdt37QYs0jp4JBnwQGZMjNngwJClJCVp4A4Br0YoygePHtmjx6VWVVuveiMio1BP7JTw4ZGDZgDpaxoa7S7a/6is3OqRlxZhdGycBAYH0xjwGgNyvbA2yyor7c69+1ZZVWVdnV0WERFhsTExGKikaQBIdvYF8z+FpX/mwhXr7Oy0A/v22KrlSy0WtE6Ii7OZaWmWCDq2tjTZ2OiILVhQbMnJCbBoJ6Rgn7R3gh6laE+p1QLPgcFh4BVvkZHRqMQJ1jHU0Q+rvQ4CXe0A/Vpbn6B96MOeftEvHOljUQ893bqGZquoqgF9R622vsEePn5sozBOklJTgC/KQ2f1Dg6CdrUqrxwecfvTp+KXaPSVWxdBn0ILDIBWNeCH2/cfWllFjT3p6FT+NuBdj3hObXFNE46FeKC7t9/Kq6rBL6Uot9JaYMwMoYxI0DoCNKEwbW0HPz0sRZmlVllTr4X3KNCZfB0fnyjvivhwSjk5mZtjYqSYaMSwTeSNu+DVB+rPZld+VBRoFjklYLt7etGX1dYOD3YYNCnH+V0YEHWgxxDazqm1aK1tOUGsXPghj7Lt5KG+gUG7e/eB9aGsHds22ZKFxeDDZEtNSbLMzJmWkZ6uNdIq8EpOTo7l5+fDY35qFZXlMLK6raO7C+18iD5+YglJieLRHngzveDXKLSJa6uElidtVlFdpXb09Q2IFzhb0Yj+HgefkP8iQR9qMY6jUViRraD/Y6TheK2oqkS9HeLVGKQlUOHRS3uKMTgB75RKPxr3yF9VdXXW3PZEtKyqrVN9dXX18raiOI4QSEbSpB39fffeAxQ4aSuWLdaaoPoCfNQLL7e6vh7yBXIBNKCcGIe84VpXBBUhEfH6IwQvh9deQXHIdPf0YGDVQyi1guGegmnHLC4uHgPaG1jTwI+lZTM6OYbBXCZBFB0VacuXLbH5hYW4+wxCuMY++fQza2hosFow6E1Y+dXVNfYAwqgWQi8VTD0zM8PKyyvt1PkLVgGB1tHVrfr7gVNWRoblzMqSwGpH/Okz5+zk6VNWi3Qs8zEYvxUDIQPpklEWvR0y/OdffmXXb96G8Ky3K1evWXNLswY3B9+R49/ZQwgeTu88g/XajfZGop0FhQU2BiHLOfwjx45hUDy0phYIh2oIQwwQKhcKiVgoHo4JCtvegWG7dvOOHT12QoOwsblZQrMMA5uCKBvpZ0REQokDLyiXc2jjqdNnIPCrraGxwUqhADvan1oKFGVKSrJoKiuTRwTZlDjh2sL9B6XW1NRgRYX5ljt3jtYsqNzDoWDiY2NtJoTZnNk5Nnt2toTjCBSnpl5R37UbN60eyqkadOO01/DIiM2cmalFeCrtYdDh3qMyO3zkiF27dt2aYK03QEjXQUE8gKCnQs3MzLTZc3K0OePCpet25OgJlNkEet2zUijAuIR4yy8olIXb3tltl0H3U2fOoG8h5Bsb7XFZmYRWYjIEMNpLGT0Az/Du/Qd2+NtjdhuGQzPozTqpsO6izsegT17uXFjqaVAqE1o7On/hktY9KqGkGhubUXcZ2lkD5RRlmeAVmuQ1NbWg9SUpEHrLI0NDNjI8pM0k2fCYKOSPn/gOHukDTe1mpKfJo6XCuIX2HDt5UoK/HnxTAcFYAQU7CuGeAY8hFrTmFGFdXYMdRr/fffBIgp5CtgJG00PgTOOD66+zZs3SmCAzSLHhn3zxvIK6b51dnbZqxQqtIT4DrzuPAxoZaRpAu2ool/z8PBl+paDjocNHwG8Q2jB2bty4IYXI+8Tt6vVb4rEI8F1+Xq7qugMleOTocZRTC96D0QBcy8CnVMLEPRnKLTM9A/ZKuKYYK2sa7MTJM3bxymX0Rw3GUZ36uKMDvIpxlghjjri1wLs7duy4VaKsuXPm4F4qDIZ2O3HqrF28fE08x3zl5RVWBrzLMO6G0A/poDfXmUkTjgspKFCGsoN9MQGmpyFy7eZNlHUKivKx6PCYBgMMABosaTDMqDBJVJI2BC+H583e1wE8f17z9jjnfHVpWSkE+xN09TMbhTCsqqiw+toal/RlgBv8c8ONwMFHLoG9zzkcrVtA8GFQk0nvP3hgwxhE61atsu1bNlvxgvlWWl1p5zEAhkfHLAsDc/XKVVaYm2+xsNQX5BfYprXrLHPmTE2NUUBfguA8c+6cJUHAbdy4QSFnzmy7dfu2nT13Fl6am9oagtXW+qQDzFyhti1fttTWrlktZcgdhqvXrNKUXjgEaREU6ebNm6wQQp+OUQu8kBPfnYBwbrRFixbbtm1bbd369RYeFQEP5rzdgzfGeXLoMRsaHYfwqrVjx0/AE+q0tStX2M5t22zN6jWy0I9/d0qWH6eh+voH7DrwPw/842Blbt282TZt3GQZWTl2A8r69IWLElaa7gD9nH/KHzfyqICK5+VjQM6ws8DjDBRdHQYst8kT76SEOFu6aBE8q2WWnJgoAfcEwvwU6qNnmpufa1u2brE1a9aqzJOnT0Mx3IPin9QmF9LrwrkLVgVBMq8gH9b8Vlu9epWFhUdC4JZBODSBvkPChYK8u3dAngkVVBaE8Pp16yxvzlxN7QxAAN0GnVg30V+3fq1t3rLR5kJYUkkR96ddXfDOJuVtnoayoeJdsqhEXsTSpYsgJMfk9TW1OO+IBQ3Dmubi//nz52Q9b9yw3rZu3WrzihdYM7y985cuyxCJAA6ZGTNtJTx5fs48Pi7G8vLm2qqVKy2bCgB8OQqeo7B9AgE7CkVOYo/AGyitKLfvIBBppC0HLXfv2o7+XAnPasLOX7ykdUsKWPI+jy2tbVYKBdwJhVdcPN+2bd9mJQsXwvt4aheuXAdebcKd+khjA0fXo/z1vSoc0Yn07rTBJSLMwiLRqTj2DQ1aV2+3hUPZ0egg7kNDI9bc1AqlUAVeeYY+X66+pxc9Ad7pBs83wVDqgYFHJceptYGBIQj2ZhhOFTaOtjMPd61mZ8+Gt1wOA+aWdff1yhjirrrz4Mf7D+5bdlambQPf7Nyx3bJgbJFnzl26YF3w3Ij3CMZAe0cX8nTAIBoRfiOkLQyUcijrTtBxHgy/bej/ZRiHnKo+CwPj/gN43Foj45SqM8IcuHN6ZjQQzp07r35fsXSpbd20CbxZoLF57uJlawRvQNKoL0LwanjNFBQ7k10KxsUvp4Bq4Y5T+JRAaXCQLVxQDMWQYXVQUL1gcu5o4xRbMKgUMBJLciUSPMt/BnwLBsRq7SY8Qtb3/r177OC+3bYTCmr/gb2WBgu+EnVwqmQ2LP9NG9bZ/IIiS4CCWjR/vu3YvMFmZc6El/bMWjra7czF87K+P3j/fduze4fWEN46uM/m5OVLcDRB2HHqiGsJ4RFRsub27d5tv/ngHdu3a6dlo77khATbsHaVzZ8/T1M2xTju2AaFOb8YQi9CA3xWZpa9ceCAvX1wPwbWJtu/e6ft3LVbCoTTi+MYlGwrt9az3hYMFO5gemv/Htu+aaO9sXe37d2zB4N1wh49fmijY1SYT2BRXrEYeF/vvUt8tttuDPo3UMes3Dy7BSVVD6GitTNHWNGSzMUQGx2t6Y/t27fK+zl0+Fv753/9vX3x1Td2CeU2QTBTGIVx7QbHkdERewBlcB+W5/yFC+zttw9CyGyxPXt32J49O0WjO7Bau/v6oEDHIOxqZN0uKCqyD955y/YAtz07gePObTACcoFLmEUgjxOwTqBGx8TK4v3og7ft7QP7bDH4JhKC9El7u12+dk3rF6TjG7t32Y6t29D3e62gaL4s95raOimEx/CcK+D9UHh98O6bUPCbbe+ubRCKG+FZz9LaFAlAWnDxitO5C0sW2ptvvIF+AQ9s32QHwFcLShZZAwRwEzyqSHgBObMybePa1VDq8ywxLk679DZsWAvPczaKQ4GgMdsUpoUc16Ye8OFNeN0Utps2rreD6M+tGzbYAdBrD3iA62LX4a20Qelwyo5Kh/xGS37D+jW2f99O4LPZdgOvXPBxa3uXtUHYk6e0gsMMHBM4qj34VRSOfBaoCx5DM7z/JtCPoaKmzi5cvQqlWQFazISHMtub0ZihqbzcuXm2f9cu+/jdd4HnRkuXV4qS0U9a+2H5HLeQ4lwPDA+LgkeVD/rutH17duC4HTyx1VKAfwN4rwNGAw0WetkPYdTMhqf5zpsHwafbbOd28Or+ffA2c2GUNIif2SrWMyMsAiHc8S7bpzEfLk9rHQxDjp9d27fYG2/st02bwb+jEyi/1G1PR3pO5fMIdFUiFR+9qhsYW4ODI7YLRt9bqJtlvPPWQVsCZVXf3AT61NgYN++wO2lsM28IXgBywmsJdK9pPXZ0dFj2rGwI5mzNISckJlhuXp7ut7b5g/Hlnc9Y/w7ZU0oJQUPEReg+d8txCoLP6tAtT9OUVioYcAiCvw/pkB6MHQHGBntbFI5REHase2JyXFNEtRBq9J74aiKugTD0DAxbAgbC064eXXM8EgPIBEtOTrP5EIic04+NjpHVzTVyGaesB2XTi2I94RhkYRRss2fbm2+9YcuWr9D61mN4D2XwKii86Dn4u744iDjPT5zi4bFwYTopLt6iUVYyvJmVSxfbGxDIRQV5NgFvgJ5GLfCLT0qB4A632voma2hqtgG0PxYCtAuGAKerHPVIOAc8I4MR78yZ6RKUH7z3ri1ZslgWKKdAPvnyC/v955/ZpZvXrHugX2swvbC8y7jGBbyTklPgSfZp52JTMwQLhFV0bLys/6ew/McnRuV5cApsYUmx5cJYoKKJiYmyWbCgaVxwfYDPtYGEAm7AiIZFzz6dnT3L+IBlFLxMChvyTF1drVurgLBsaGzRlB0FMNfl6E02trS4I4yK8fFxGUVZmemaao2PjbYceDpcgOdUGnuUO8c4Hbly5XI7AEGXBg/JX9uoqW+AgTUCXhq2IQT2K5/Hi4qMQHkRRo6KQP9GRoD30O/ka/Iki+buUV5QkHdAOdDbTwVfLl64yFLRr3yyLDkuweZBcc+dO9fa2p7AEEI/MY+EomnajwowGeMmKhL9n5SoMkgjGn5My370d0CqQg84rni/q6fbTsNb+Jc/fGb/+sln9rs/fG5/+PRzO3f+osXFJdqmTZu1hZvKSTsy8ZeVlaWZgFSMiZjoKE31sqZnkxh9QM2vl/XRSwnHuJsNL4hKhmuj7K+09DRLSErSWpFoODyMPmmGETRs8+YVWi6UYgzoFgV6zkXenTt22sb1G9DWJPElg9aHgRPrmKoR1wkwBjndnAS6cJzxcYgFJQug0NPhubZLQSmL6w1iyQuU9Qw81K4xMyMc7YqMtZYnT6E4GzHO+yA/ouURkmf1kD0zoSAaTyF4Ebwh+3qALGAvUIGInci8GLhkFM19IzYMA1t32fGO574XmERbjPnnMQoVjZ+V8/G8olBgPRxLnLbgIPffg0dmZV2+MtQvCqMA6+zskjLjXPcfP/vM/vDJH+2TP35un391CJZ/BUu0ftxXVi/oOQoUSKXl6nADQMB2eel00BGCDYOYUz9Hjx21L778xo4ePWHHvztt1+ARcJ6fApjbrrk9ZBAeVV9/vyVBAcbFu40cso4RUjEoN29Yb6tXLEfBk9rcMIDBVA2h+vkXf4Lw+cI+gQD609eHrAJeDoUXtz0TVw+tAIAm9GKpBHKyZqHcdfabD9+1//gf/sHefPMNyysssHJYk18e+rNdu3PbhkCvwZEx6+rstT4ohVu37tqnn6LOP3xhn37yBdp0yjqedNj4GNKhDVzg5roSBZjm9ckLIiTFBuunuUGc8MsO9ZBj/3LzAQUTtxuTvuyr3t4eCJB+q6+vU/v+9ZPPp/rqIacVIfzYl71QUKRfLBQSNwVQCUn4ovxwKhkZEa4+1k0LndOCj8r5KMIh+/Kbw/btiVN28twFq6is1PojUYMdIZx47jjQBfeHM/7grptDcOm0/gR86J1yLTMxIRGFoH30SFBeDAwcGlWceuTmBPU1i0HuSNCA/M1z4s54GhSkIZ+tIkzVrasAUFkyMB09Snq+Y6Nj9gz0TIfi2bJ+o338/vu2Yd16S6RSQAH+LAG9P3or5G3xtytxKkzV6VXKfG6cu3FIXmN+bs5x4940NU0jjMZcGvqEbaPyZoiKjIYBUwLvcqOeG6QhwLJZr6OiD+5ceOKP45n4EeJhvCUkxtswFCGVjPBEIRqbDMg7AQOQ05O94N2m5hY7gj7+HcbLH/6IMYNw4+YtPQM4MjRs46CZa21w/SEIhtdKQRFch5IfnsGSisTAS7NGuMwdEKIcdqOj49pcMAJhkwHrmcxLJvp+8Eudns4NE/2RYTHCaE1FUHeAcZ0IhFBCNjdFALwkqLygNBQ6k3qingI0K3OmZc3k5olMCeylixba7l07rTCfU1HoEPwwuNJYLoIGE2JQnkvDa7YrkI7rDHXwMr760zf26MFDrX8tXLjQVsCbKilZ6HbkMT8K5LZkKnJ6c+GwLtkmBw5vDvq42Fh4A3HChW2MRKNTk5PgrQJ/hNnwTvJysuBtAf/tW60gL5fZPVx1qoDi9LBp+5M2G+jrVTkZaSm2CN7Orp3b7eMP3rdt23bAQ+mzi1euoR+71E4KvbjoOJuVPtOyQa85rBM0K8ydYxvWroWi22Dp6HuWT8HPnmA7iK8jOwUMwRM/PqE8UBwiHb4kMhUZBAzq5ZQPBf0s8M8s1JuNeudkZ9ryRQts59aN8Gzz1UlMHx4eiVPn2XDaTf0UVBfr4XRhHwyEK9dv2J+/PaoHbOcXFmktZcWy5TYblj4FIsvzsBWoj3Hth+nAtBTtVG3jzyZ05DZp4kY0SAuWSnSIF+lCuqoOogm68T4fmOXG7bAZDB76TKzAC4JiPXD3SDeWmwS+0DbzD9/TVvP/8NG79h9ghHxw8ICthZGTBu+DRgp7hEH0Vnl+mQ7flwGrF1VQH9FhfeRPF3ATwaVxIE8I441vMQnDkSqNBgN5IwZjgDtHoyLZZ+wvH4tA5cweAMazjcJ66o9jbXJi3OHkpfOorF8agqILvFGOlRyMFXrqczBeFi8ssR1bttgSjElOfXuNclWF4AXwJdNrBWJSHMmkdPm5/sKn2R8/emQPIJxbWlo0zcfdOhQ4ZMbvB7KZYzYnCijA3aAg85BBpxMqUKJjUR08RuMgQbXiPVpzifFxmsbgmtF772HgYiC/99479sF7b2sN5N2337AF84tUjIqAYOKbLDQAFekdPZCwclVNDSg+wMvdYFUIK1evsoNvHrAtW7balq1bbcWKVdrV6Gk7pJ5hcTGxUEJxNjBIy3tUAp7PD1FUceNHTV2D1TU2yRtNSHCvf5o/r9Dee+dte+MqSVYAAEjuSURBVB+4C//334GCecfefeuAlRQXCR9WIcyAF5UHDQQ+tMl1p/MXLsD6pKf4DJb2qIQHFdCyxUuhUGfBM+q0/j54JfCGEmITLDk+0davXq1npT4ErT7E8eP3ET540/bt2W5ZGPj0nLh5hEKjHx4VjV0as7R6nTBzQuN5YJ+SFO6OJzalbOLiEtDWOMvPK7SDELAfoX3qJ6+t779z0JYtWQQvJU6PGXDKlNNzqpdtRntZqs9zpCi7qLe31x6CP8fHRm3P7l12YN9uCPXNtgmeKqe6wuAdMJ2yETccSEpdUwGjAtfXHp8iXkF4w6Cg4I2Ksv6hARsaBT7445ZmenX0amjR0wNJTEpAH0EtIbNDMSBa3VGl4547BoN/pRwuseJYL7eVF+TNsYI5OZaPMBvXSXExFoEUYUzk0cdl5CFQmw9ekX4KQFAM0yO49MQggLcAh6ioSPRJHOqhRw/vGoOQCpkbgzgmu552aockPRwPJdDQ5fdKmQJ5UAjOw8Z4RgbuLNWbPVAPp2wdSqSjesrlY18Ahzh41nOys2zPzm3gnbfAw+Df99+2jz98xz4EH3HzCnfUqiUog7iE4EWYLnd/1jA1KMkLjju0u20xvBBOYXC6h4OVc+7c4ebP2U/nPjEnGE9/uGASKgN6E2FhHFLOw2A9MzC6wjTCXFD9PGOZYEw3TBwZFQ+mHsMA4fo1rVkujHNKgc+r8P15/cMjlgqhnJaebilpyXofGDdIcGs68eDPlHWoEh24Ot2w5LM/WiB32gDgrLrevgFtCU9Nz7DElFQ998TniTgvz92BvhBkruTEOM3RcwdfRXU1rG/EetOW1bX19g0UCjciGOgxa1aWHsZsbnbrTunAnXPxNAC067D1iYSAcEYFDlfvCNw4BcXnbE6dPW9VtQ2gPYVqhPDntuDenj4b7B+WwuTzUXFxsTZ3jntlDLezh0dEWgY8wvSMNAmGTnggnRA2VCxRUTGWk8MF+Agrq6iyp9192rVIOvb2Dmp6khswRDcgRBozOMXlIas4t/bDDTbcRt7S2mx9A/2WmpYK4ZsB/krW2wba2tpsdGTE4oEjdwDyQVXSrxdKKjwyXHzV2dWrnXEs3/UQn80Zs4H+fq0l0ZPmMz4UbNxk0/akXQLKCTqmJrb4oyJBCXqGSrH8UwKldWuPTkFlgDaZ8Mjb2jtA6xobQr+HQZDyGbaG5lZttU5JTdE6JTuK5bFvWY76ST+II0A5qSZeelGTOLrgqwTwHDKxj3xe5TkVgtZ1eI+jiIYWzpjEjSn0GjKwD1wtvMMLHnGFA4W8azvSPXO8LtowiYC4iRLqxwikpYlBDykbNAgDH1fV1dvTnm49hM4x2dXV7R6TOHVaG0loUFDpyIhBv2ssqXzgiHjyOb16bimKgHE5Mjau3aDkPfJianoqsngIEV+OHZTBDRYz4TWlz0xFnR0IT7VOm4o+J/1JI/IupwlFe9eMELwC3Ih4jYD9qQDeEHOBITjgSxYUG9+ht7BkgeXOzdXDcFP8/BLQwEAhJACnOp7B2hTX8g0CM6ikOKBghU6O4priww1A/gmQfYL5MHh4lxYXLWrefVD62G7evWtPOtqVhzuKuFW8rqHBvvzqkF24dA3C/6GdPX9ZzzxxWyxfkklmpSjlxgpeiP8Rp1o5IL0GUYEpLd00gBtkXINJlzC/eOmKnTlzwa7duGHHvjth5+C5cJ2GQpJClpAQG2urViyT4jl24qSdunDZ7jwss7MXr9rhoycg0Br1fBMX6+fMnmMrV6zQtukvvv7Gzl+9brfuP0C5l+2rrw/Z6bMXIGj71CdOMDmgKKPo4HTjCuQfHhmHJ3UcOJ21G7fv2+27oMHFy3o+jK+4WbZ4saWjLyMjY2zpkhJ4wXPs6vWbdujocbty645du3PPjp46o/Wbuw8eQ7lNWCS8nsKCXMuDx3z73n375sgxu3rztl26ehP1nIZXWcXOkTClRyfsnnEtjlM0jn5iBURTcHLqlXTp6e62I98esbPnLtgd1HvhwhX7GvWSrk87u7TdvnhegTZiaOru2EnUe9fOo29Pnjqr3aWuu5wIjoNizUD/cHrv9Okz4IErduHyZTsO2vN5KXo53Dii9Q4gQ+EXAyVIpcAdX7eBA59rczMCFNrgXODs2OIZlGqKLVu2TA+40hA4efai3X5Ybuev3LTjJ8/opa4rV6yUMpfaBL9QQNPD1dsXcKRiIbaInjqKbsCBlJKCUWs8JYV75FWuOVGduPcoOuVC5mUbFJCYMwI8ko8nuXtNpRFYJnPjTOkwAuQtOj5SwA+vmYBpmJE53Lqfq5sKiptKCgryLC8/30qrquzwd+gTjMNrd+/YkRPgoWvXMJ4noTDgcasY/rlKnL5z7eMDz3w+kf1z/soVu/vosZ27iDEFXiA9SmAQJ3sbSQSkHwMKYzEzYeQsWbrExiZG7bvTp/QatZv37tnFy1ftm0OH7cR3p/T8lmhPHJBRNnAIXoDX7EHd6eCxGDqX3hJdb073iZl5F4Pj5eCYgtzO7dQ11XXWAi8jLTnFli9ZYgX5eUxi7U877NHjR1YEhl++dKnKozVOl7+8oloPUG5Yt9bSwazEgxZUY0uT1dTAkkfeNAgNbq/lGyroMVEA8UHD6qpqPV1fXlGhbdwrwMzcUkxly51TpVBwtNDXrFkJbyIGOGIgCF1avpwya7V6CMDlSxbZgnmFwAcdibx8GwF3M/FB2traGrSrWtumuXuQa2YpCfG2YsliS0lKZHGK59oY33hQUVGp6UHu+iNOfE5n0/q12kFIZZ8GT2J0fFQP/jJUVlaiHZXa5beoZKEVzSuaMgqIp6hMnHGMQL+kwauLio7VwORmET6kWVpaoQdWx+D5rlm10rZv3WhZ8AQo6BLhYdDLoIdRifoqkK68sgpKvtESExNsGWjGdTB2MTcqxEDhPnnSahWVFWpHFejcByt4FPjR+FixfJnW+fRsG6xrejhLQb+8ubON9gcVKbGNio6UYiZPNdU36Jk6PrPDMDw0bPOLi20BAqfU4uJjLRrWNXcwcrNLVXUtym5EHwzLQuYzTWtXrwSeWeAd9E9kJCzqLvVLLZQOtzxz4wI3EFA0Epdi0JHynRxMPmtD/9XV1loHjJ0k9N/cuXP0RngqQLZrGfqTApEKKzEpBQZFlLU2g8agVQW8VvYnp1VXr1yhdaJ09COFKZ+xqwWNOFVJWpLeFJd60wb4oa+/z0qK5wsn4iPgeOERvMR+5bNU5ONRHPkcHdfqOPTU/whMQ2Au5mMueovEPRs04XpMLOinNKAVN6vwlUhtra16Bmw+p73hnXCNubmlxfJz59h8GAVcx2Qdvf2Depie/LJ86SI9EM21Vm764RvR+ZAy6VBWXmYtoElBXr5t37LV5mjLezj4Y0CPDETjnLxAz9m9PeaxtXfA84mJ0ps+HsAY4sO6fNPJmtWrbOP69cYH09k+buTh2zc4TviyZq23RURoDZPKmrsmyePkSY53TvXmzZ0rg5rGIT1AR17STCchCIJfwPegvF51I8MdCTx3w+kFoLXEwcLpBj5LVQUFRUbl62TmFRSCgXNk6T2BEOMDdzmZmbZ4QQmlmDyE0fFJewTh2tfbDSWxGEyZImuKr4wpBSNXVpRbTFSELVm8CBZdvix3vU2iowMDpsae4jgOoRwD5UOBs6Ao3xJh1dEh6odge4g6if1S5OeDmmyTWgJ8udurvqFFDF8CpVYIL2Oc7yEKnwG8xq2ptU1vBOjkw4jIlzkz07JzsrTFOAKKjkqNW9e18wnZemBZU2lScXDtIhIe09zZOVZcyC3ASSiCdfP1PxOgRwcGfY1eXzOJuhIhMOcgbWFBgR60JM6+LCM4uxg0w5HvluNLYvkanmbUxdfG0GLndF4WBBvfeJ2BwU2hzoKI38DwqDWhrpraBgiOHnVpCpRqEdLOhVcaJ+FGL5YPhQ4hXS2UGRQThCu3zyenpNnlK7esuqLM/st/+r/Z5vWrUO+wBHDbkydSBnOyZ9FNQJVuWpfeAmnMzRp14IlWGAPcoca3HNATzoeFnpzC10pxcwYfYu63avRpbU29DQ2NWjKEXGRMtDyvvu6n9n//z/+jLV9cAs+VL1GFYmmoh4KqhUfbbwkJiZYD7zQSBkw7FFHWzHQrLuLUNA0h0/ZpTrdSsHFn3eKSYpsHnPkGC/LR8NCAlAhfr0N6TUyG6Y0hfC1PQ1OT1uSoQDntVQSBPxMGk9u5OMOewkOk4IyE8bCweJ4epqZ3wJ1wpHc7FGJB7lwt7JPu+Nd4IbhnoWZIEfO5MCoDKpsM4O+v/QWDP95IX77CqwrKmc8ZzQePcZywPHqvfN0Ut2c3NjXooWTSmpVzq399fZOeKyzImyuvngj19A1q6ngCOC8oLtI0LJ0arqk2w9vnlHo3xwEgA4qZD8ryzS58S8Uz9F83FRzyg5mFSyL4r6a+2X7/6RfAs9X27NomBd4Opcpdu9waz6UDvvVE3iLK7enp09tlCHwYPSkpSXzBB9y7enskVzjFzvUrPrpAXi/KA6+ncscp/T42kdQhjUIwHX6VHyzkgCFDTIL5OWjcYip33tBg4/NGTrTSgR+DlUpmjEK8G2QU2OGy9jg1GKnpa67t8M+VRU+JA44DSbuzIBBYHvhW0xfjGBBMJ68HjB/uMygQ4OQHt6oyLbf/Ul774FI5AcqdgdFhEZp/V7m4pfpZPvDimhSnbTjtwTl9rgMRS75iyNm2Dic39UXh5vDiPeIdQWKoOqZy05hsO5UKF/opCbQbiuUj7VRSgpNIUwpKeVEH8aPC4/M7XMAn4tzkwO3A/oBXOQDmdHU6T4JeFoE00ZoDEnJahGjy+Zequga9LigDAmgCbec0E5/X+sMfPrdx3P9//E//CYZALnDnc2AOH7cVHLg7NKfQ51H9SaGPvuD6GgUUvXMiyXZMIlMnBHNjEzy6eL5qJ1MbJqgsH8Cb+vTTzyAwE+x/+k//g+VCCU7iHnFCU2SccO0qIhweP2jIujhdS55h29gmf4qLikfTsrjmsz/kT/IT+Ydx8iYQRwZw9KURRS9/Qt4Z11f4fBMVP+nL9gp/JBxDH7Lnpur02s6ySUPGU1kqUveCOQfXrAv1EFdt70c/Oqwd+HRlep6Kv4E228RyhBNPkN/V7/iXSo600IPbXhx5hu30hTpLFd+yQHAJ+Zp5WJF2qRI3jpMJvqnRNA64xkjlKVyUy7VVtRABlF0Hb/j3n36pt3H8028/gpFZgvHMt4GgDHinWqdGPibnkTTQVDtO+CAycXA4s3z0KwJ5l/1B/uE7A7mrkLzLvhAmPqFC8AL8Sr+oK34Tg5KZyCMcZGStKWELIKNzaJHvxYyM001uJkB6CALOmbvSHJBhmce3Iv0hTXBC2r+HMxbIMnBOxmZJFBmMZj5XBK8cCFcdWQnVpFscdnEu0FtRfmTmHD0v1E4kUxzOHT4IvBeEk0OLebyakNiV5gQF0zINRJFXghMEaqPyIvCgAefK8KMlcL37LM+nAX/9+tyAVQzA4eXwA7iE/r/LjxMqzKednfbN4aPWAi9k4ZIlml7hmt69ew81nco3anzwzpuWFB8jWeDy6oSFevgGaiZQOfl4eagKGDOO3zEE7nLkew+Hh0Zs6aKl2uTBKcmbd+9ZU3OTHdi3y946sNfiaKg4QoleaqdfGavBQZeK5pmrTBQQ0QKJ3Rl4REnImz4tHd84tPGjvnPn5N/nedv9krZTZfN06oBf3HOWvTLj3/EAU7uaXL84/BDn01K/DrySAX56PzeOiFI5or3ndZFJGRjPu34ULl1uXHhtdcAbrtTp49bnG7dJA8lAGOVEOipK3lM5wt+lJaHq4K397g9faIr+H6Gg+LYRhx8TMAf+cK6jV4o74EdtYTxoBRxYp1s79jFjdcTD64ugeAdeeSGYgl+tgiKw4WIpMrNHBZ/RGeQtIZ7nEioAl4cshl8oF0a7Ow6Y3ivKY0KnEhSHm04punLdkEeYKsCxPNPwPBDvwC/X4UoFRVwDiRjNAS3Bg3/eYVAcEwBcO6buMCoIZ+KDNLigUKOXwHgXG5QGJwr88wjg7jlQ+3BkLpczAMKdg9ddOfqpLIBfDu4H08XtwmO9TMgMoCmOvJyEZT0wNKjNFHxFUe8Av9QbBq+DHtcMbZrZvXO75c+dozLVG64SVxZj1U62kiEIRBgG9pVrK4UbRwxLf9rTY5evXLPbt+5ofYpp6O1wDWLx4kW2fdsWbTWOQPl0RFi2L9D5q7pQXnD880LL4YXmKz37xCUmprrt0iu4NPxRHu9I8G4HyvbqojIjMN6740CZPfr7eVwJXjqXkb+qC0fRR7EvwhQe+NOZu1TRukcGILDf1Tb2A2mtKA9dF8d/v5eUknjynG1QOnePZfj5CIplhfj3anPpvTQ6wENram61r74+rCny995920pKislkMiBVxxQ9AuD3nSuQWBIX/rp7U/cJKoNHd6kTlw0QlC4Egl+1giJM8cY0YFwwYYLTBOL9oTIdXh4bDK7el5P+VaVOh+mpppfm32e8q8+H4DuB+nx8nr8bOPrg35+ezgf/2r//IkzLOb0AD5RKP88nCKYPxz4FwMDgoPHVQw2NzVrf4lQM3xJfUFCg1w5pCgoChDn9dvrlBK6er0dpvSiX0uWmsuf0sF4f1ddnjQ2NWsTnq2u4jXzmzJmWn5enrcWaMobGpyX/7wZkZe5AGQ4bH/6Kkl8Kz5ceKP9V8T5Mv+/Dq/L74KkH3P/r2vWq8n34PnylQxDB3Y5cw+Uml3nz52lXKXP6BurLIFDu8+3QL6L8+7rGTyC9D37ZL975tcOvXkGF4JcBVFJ6U7vW78jSfHtAuNb5uHYhASMB/8PZncl90REMTpVBUU3Cs0Nd9Fi1FoNrAterWDfrlbB6rt5A/S+zxkPw9wX2p/91Xa6Pin+8eyH46SGkoELwiwApCi6uc00GioG6gnEULlNTMz+ygmL5Ko31eHUoDoEZ9azScwX82+oPwd8HpvoQnaeNFyH4u0FIQYXglwXg5imGdjJmmqfyw9n9LymovwgvJGHdP7z+EPx9wCknAo0O7zQEfxdwK/ghCMEvBSBQtPuMYWrtR6tGCD+xcvD1kR9C8FqA7w2HlNPfH0IKKgS/UJiuHfzwI4EU3w8EuWI/cv0hCMGvAEJTfCH4BcLLWVqvt/oB4Cd7VepA6T/UxP51D7FX6fIf2B0/Obxu+P6SIaSgQvCrATky3vn3AQdESBj9ePAquv9c6fy64ftLhtAUXwhCEIIQhOBnCSEFFYIQhCAEAHlOr/CeQvD3gV+5ggIrymcPsSS31voPnoYgBD8avE7s9COIATeOpr3eKAT/bviVrkFRMXlHwYuCmVe86z+o98skUmBE8m0IerrnR91bi7J8OtM0/TtRUX2Lf70b0Yv7PhCmQQmF+g+Av7Q+Mb2cH2s9g+1jE/+uD5WifjeGGIiH11jv4N5LGcBPKXHpp3bgn7lM6jYEZns5Wz6f/ofD8/n8fnEvz301n/DuD+kzH+cQ/PXwq1RQbjdXgIOccPaYCuf+247dd28cU4pIQVz3nLCZJnn8q0Dqvw7+cnlTCHq4uBx+Ph9ezM83H7h3y42Ojejjg9FRkcaP3nljFRAoz8//YszzoOGtBNPuB+H2PASlf2Wal8EPSMck6jdghfNpGAlcbwdK0wuLfFTc6Q8CJv8+ATa9fj+9X+8Pref5HC4XuFbHl5cxvQYc/ajpoCT+zemJXl46QfyC8IJBF1QEFRjvUlEpOQjCo+IY/HHJeBbo9Zvy8VQQVCDTMo86KjjeB973Tp8DrzAvn7CZqstF6xYhqAj/+DwE8vNLBPxqNT+lws978AOVL1N1rvXBwPyupBA8D79eBYVWs+EM/PDZ0Mjo1Bun+XVPft2WX/vkFzr5uWqfgZheaXjig8foweCn+zEguPTgMgPnRE5YISClh09wPoKfwsedb7Nm4IcOyyvLraq6yhYuWGAlxQscjZiY3qVXEueDmdd9R4ugBC+Aq+PFoel/1uJFQErcCuRw9alJ3wsu3Yvg4ojDxITpDed8sWtyYqLFRPKLy7odBF59PHWoCP5i9dPghWKnwfTy/PSu9sD9v1yvy0l+HB+fBP/2Gb//lZKcpI9uPleYILgGL3wPcR2XBwcAs0zlfx6Ygt88GhgcspHRMVyhJ723+DM1BTU/ec/vjOmzF+AD6gNSnHnZ7ypZPMPan+m7WXwBMEN8fJwlxMUhA1/aylJ9cBffy1eE6W1VeheUE8jw7fc9vf0oP8xSEpMsMgz4SzGC15HdpVOWALAcMpO02gwbQdvKKyqtGuOIXwQunles/nh+VoJUdJQMFAY8kMaPDUEAfqUKyvEUGW9weMSOn7lg9x+VWxQ/vgc2oRXIz8enp6ZY8fwiMFqhPjOuvGAkstFzYwIX/Cy74oOYTElewXPOKnzFzWkQsCYd+FW7+nzwznBTwy5wOQV+et8z1IfgoGkGoZxPnDxpZ86esTcO7LcD+/ZLc3GM+iWwzKk2azA9X3Yw6DMiSoAfVOTTJPAdnmmgSOLk/vyS/bSvlqVM8WKJqkXRYdbZ1WMnz16wfiipPTt3WO7sbH2kTrRHYNF+a6iKA9gG6n2xhgC4HA6mjl4GT/wBcAf/08vx0/vxfj8zXiGoHJ76/MJzNx3FL9S22enTZ/SC0327d9mcnBzHW1OSHHmVVkXz1wVPGQSDVx3S4Yx5hI/LQXBco6xTwDwMT5522oUrV/SF3bAZEMo0Z5gdTBQTHamv+i5eVGIFebkWG0UlCsbzyhYeKhQ9wcJwyq8PX715y+7fv6/P1a9bvVrp+JFDjwwARxeGoMiXgHcPCZkjkHRSdHw2I1xfej579rxmD3Zv22o5wNfRDYnx7+pQAa4MXfMHgKbQaBscHbfjp07b+XPnbOvmjbZv106Lg4ErmeH3h8r0Q3BbGBN0EQKBM3NeW0CHeoytq+9l0gCQNcCaOD6zIQzsuw8f21Ew1rEz5+w7CLPvwKhHvjtpn319yP75d5/Yl4e+1Zc2yUAa/GS4oLr0FVDE6zPq3kYD3cWPz4qK1333FVDyKdPx2jEtwU/tgGOYXxINLpfATmP5Pgb+PZZPXPShNBxftemBUe7Lpa5cng9BUdOCHB5xXyCl0JZFi/AMODAI9yBccBcpHTYqk+l0P0AT1eHjwAP7KygwrcODZU/A0xlHekRS4SOf8J/K57ccp4h3dOR1MEWIc5gCz/sHB+zu/Yd24/Zd6+7rlVEivJgflfPrs/oCrY8vzl3bAKyacawH+E0HtVU4uPSUX1NKBeW5fnB9ofxINwU49en/XBoEfSlYyR2OU/SBO8gji/Fq1Bd/+/r6rbe3V19tdYg7YLqp9Dr36sSF+5BeIHkwPfhFZoYJxPn52deuRgRcBwOKtf6hQRh5j+3azdv2tKtbZdGr4ufyG5vb7NjJM/aHP35hd+7d1zQYhw9LZNniKdblBRp7pAc/X9LT3WOj4E2+F55rQy69423hi/azD17VRw5cmZPP3JvuRQO1a6pF8qB6QUfSkl/RZkkMKNXVx/yqk33g6nb97pWBxLwaGRm3vv5BHOlJqmaV4uMgnBVYLtvr8rn+DMF0CP+f/5f/9X/zzl9DcMxBJgjWTWKc4IiXABkDZo0NwHu4fOO2lVfXWUxMjK1cscyWLV1smZkZNgrmr6qts7r6BtVUWJAvi4gsNQW8QesIliI9BH2SmgOJN+SCODzCGS/rj5+BwH3UTU+NcfS9pjMoByI/Jc80/Oau+9w10nFQgd85YFkWp1LCEC8LzSsTkYpnnMrBNUG/pA3KUr0sC+djk+OwfGutqqrGSkpKbNGC+RaGQaR2ID/L9HEWHgjE1+HINqpK4ac2IuhT98KR+CENjkwfwAcB5/xe0gzkUxuJN/KqPNxkGaSbX5YDHJHOx4n3FCdAfu/PT9cFwX315l0bHBq2tWtW2azMdAknfkYhPMKrj/V6OBFXxql9vFY9xB9pQC/98Rz4UmCyzZwWEn5sH0phcOW4dhNHX7gSRFceGc80qMPREXm88lU/s6N8JNI169Fn0IPwiImKkrU/f16RvBR+Ulxt8SrzPzcCarp+4Dn7HWn4x38XcBWObMLFvxf4HPwLEBRH3Lp7++w2lM8wlMlb+/fCC9lkixYtsCXwmormzUOZEfbocan1Ix29qJTkZOHB9ms6EHUSN9bFuvnJktTkJJtXkGf5efkWnxCv8eUSMJC+7kiq+ZswdGsKL0cGHlUPAhOIb5hQKV1cbEy0zckmHQsx9mfqUxsEocY+Zn+qfFbgjnpzPmnJOnDgXFRFZbVVV9daQX6+Zl8iI1EO0pFGxFd4sC9wJG87IIYE4hOCYHjtFZQEnjqenesYgOe05sVMLwVPWIBxhmDhXb91z2rqGiw9Jdk+evdN27Nziy0qWWA5s2dbx9NOa2hslIWaPSvT5s7JYXblp4XZA4vrcXmFrMeamjpZYLGxcRYVRUVGwWvWNzBoj0tLZVmNjo4r7eOycliWzVKCsXEJEiSytoi7yjbr6OyxhxjUD5G3oakR3sCQRceg7MgolU142tVjpWUVNjw2AWsVZT94gLrKramlWYu18XHxFoHBJssR6blmwemYh4/LEJCutc0GYfU1tLRaFQbWwgXFUlAzoKCYnm3s6O62R8CX6Rsam+BljaKN8d4gJiGf2VOUWV5RoTWIwaERe/jwkZWCLs0odxwKIS7etRHDVLgwDI0MWxNo8OBhKehRhTY2w/IcsZjYWAuPjJRFy4/Htbd3WDzyR2j9yOWdqm94SPfY78TEcYEDKtRu9Nu1W/c1ZbR2zUrLnJnuaNDRYZVVVbCWJ62nv9/uPXikNra1t6McCH60j/zTC4FaUVGldZ6kpGTVQ+OGSo68UVlVLbonJCRJgLLfRuA5NDW32INHoEFFpbU9eSJrORp8EQZBTWk2CjrVg5Y1DfXgQZw3NVkZ+pGFJyWnQNihjcC9srZWfVVZXYN+e6p2xYI+EZScwHN0bFR4cIovGfhFQWEhK/ADHugnfsTxwYPHVlZeZS3o61F4CsqPvnDsxg8vToBfWqy6rs5Gcd7R2Qk+egjaV1o76MRxEhsXCwVGYS70pwEUVE+v3b17H/0xbDu2brKFxUWWlBAHJZNoGekZlpqSBlxarKmx2Yry82wOxhb7hFNr9ej3IXgcdfWNwLMSJHimPiXtu1AuDcdYXJMXW9ueWA1ownb09g3YQ4ylsnL0G2jM/o8BjSn4eU4FSCOM/NqEuh+DjuRJ0oE8wPVljg02ZwSKtbOrU7RISEjUuhm9uHbwQw3oMjA4bF3w5h6Xlmmdqb2DfTHDooAbdRyNCRSJe1Uw9KqloObPn+/GHtIRd+YvR/0PH5VaPdrNNTv2V2RUJMpScfh/gbi/anitFRQHIvtzaGjIGqFEWiAMOzsd43AQUsBQmL2oqHCNvBQog1BQV2/esWool5T4ONsFy29BYZ4lxsfaTFhSo+A6MhSnimKio2zpkkVgqGgMZAyWJx129MR3dvLMWausrIHlVGOPMGA6u7otKysLjB6vwdbQ3GqffPalBlNVTa3duHXHyuGt3Ln3QBZXNKy3LFhvxIs4DY1NWm1Dsx05csLOXbhotfX1Vo509yH0ydQ5OTkYtNEaTBTsn3/5tRQshdi1GzcRV2Z3UXZNbb2lQDDMzMxU2RR6NQ0tdujbo3bqzHkopGoNvkq0vRE4UgmXQDktRKCyHIHSqwC+fz52ws5eugxvshaeVoWUK6dvMmdmaNcfPxL4AIr0sz99BaHbbBUYoMSjFMKGUzp1EMTpEFIz09NhcXLSxGwAguzm7Tv29Z+/tVt3H2jAcvAzjKFds7JzrBtK4fDRY3YHgm/2nNkQdGk2iXsjULxXUP6hP/8ZQibWioqK1MfqZe8oAYVzKSh6UKhvDTyomcB5BMLtzt2H9tU3h9HuFnsEA+D6rVtq2917D8FHbcI3NSXVWluf2LdHjoGWdTYPnkBMbIymaAa5RnLthh3/7iQUQ5Ll5uZKofeDF+/cf2CHjx23m3fvoR8bUX6ZrGoKo4yMmRBa4RCuvXb2wiU7+t0pKKE6u37jlj0GfyQkJFtuQYG1tj+1786es+MnT4uO7MsHuF+P8uIhhNPTMqA3wrQG9e3RE1r7KQTfEhcaZzSGON12+MhxtPWBZgEonKl0OI2XlpYOfqYRxb4YsotXr9nR48eBbwOU0yO7e/++FPZt8FHH0y6bNWsWeIlej3wBDSGNL5VAOvegH+9Zf3+vrVqxwrLAcxOgs6YvqdGgmOvB001QmAvg7RXAM+qE8jl17iLGz3ko+hq7fvOWlZY+hiGQKJ69hnF58vRZGXxz5861YSjyW3fuYMydsGrQ7DEU+s3bt2Ug3oMx0AzllZKaammp6T4DaLzcvH3PjoCH6eFRCT4qrcD4q1Y7yFPR6BfS9cjx72Qk5c6ZIxzI13egqP8M+j5CXeT7e+jbUowvHqnoEhMTLTkVhgsU/hjaWgYFRTnALznTg6JRRsXFcXHi5Ck7e/4iFFitxjPlQf/QAHgiHYZknPB5UVb9usH3MV8LmJrjR9AcMv4GoDgePX5ktWDYgYF+WNZPYb0/hMJqcnle0uGMeTGWBU8a/RitAcCyjo+OsUIwWkpqitZmaGV2dnZBrWNA9g1qcJ29eNnSIXS2bdtqmzdvtuSUFDtz9qxduHwZlvGIhNYgBlYDBs9DMDkV3pq1G2zLth1WXLIYCqPRvj12FJZkvZAah3B58rQbguuMBHg+6t+6dTvyrLMZEVF27NRJu3nnthTfGAQl8aiqa7RbECT9Q8O2es1alZ1XNB/WezVwvADrf0BTN097+u0UhOLFq9ctEwJn+84dtmHjRlnsrU/aIfhHlY6KbGxywprbIfxOHIfguWNz83Jt6/ZttmbdWhuBkjgGxXwPimMS7aHK6YUgqK5tgHB+JMW2Cvhu3LLVsnPzpLwuXbmqvqKAG8V9TqkeQRvb4CWuBM479+yydRvWae3j5Jlz8BrLLQLKJzwqFmlrJKTpEbKPuuFZkZYtEOKJycnwrNBrzyY01aM1M/YmaOkHv7MpKFG9rNleWMRVEvqlEC4Rtn79BtB5GwRxlt2Dkrp+/bYNQanFxUWjjHApgPrGBpw/swnUQI+BgrGrp8+SgQMdEnoPFF5HoJzagNuyFavQF9tt3oISa2htlYCqq68TfiMQfu0wZCpgHNCLmDUrW32XPTtHfHMf3uolKMAZkdG2buMm8NYWywctK1HnSZTTjPK4ME/vqxVeTissfXoK5ItheHQPHldAkJ+2rt5BW7F6ne3Ys8eWrVxpA/Baj586BWF9F57fMNJPyotnO8ogNOnBJCYmqb5NW7ZZfHKqFO2d+w+1nsRxwrWUYKAhwAD3ULSix0VDAQyLUwQo5JHxYevH+HRTW/Qq6HFMgCdBR3jJdfCks2aDBmtXiwboFOsZGLKmtg7rHRjUOKJB1jcwICOP3inLXbNhg23Yts2SMmfZLfTlVRh/TMN6RmHo0YA7eeosvJdeW7pslW3bsduWLF+FMTFkp86eh7KCsYVyh2FwtMFTpzIeB38SQXrDfeDryrp6KwMPRkJRrlmP8bV1M8ZPpt1/9NDOnD/v+gIZiKMC+Y50IbMBOiAzTp+9oHXQ9JmzbOPmrRjP69G3kXb+0hUo3Xvqu+A8IXDwWikoQkDeoCMxUGox4Lu7u23BgmIrLi62hcXzYf0kWRkEBafbqKCozL4fxBooF8oJ6bnm4NY3ZkD4wEKC5UireQCM3weLPAwDqx6W5uUrVywPQuO3v3nP9u/aavt2b7N33nrDUjMy5EE8gZBCUcKB5c7CIDqwd5/t37PddmzZYu++vd/Wrl0ra+4OLFYt1E+MWwWE4U1Y9EuWLraP33/Ldu/cbG/s22lvvblfFhnv9cJSlWBgBRiomVmzbN++PbZvzw6k32779u7GYJgJb6bKOqG0ZwDnWnhZt6D0aN1++N47tn830u7YZgdRNncqorlOriCMjI3JwnsAr23l8uX22/ffsb07ttqb+3bbvv17ZYXTmiVNNP8PVoqIiLS5sD73791je3fvtJ0oe//eXaBfKjzUWvRTLwoP01Qlp4NaMLB37thub72xx7Zs2gCcd9nuXbvlJXGKkFOIJQsXos1REpy9vVBwqOdJx1NYuk2WBWVSVEC8SWTXgzwRXbxeDQZ31wXejQS+hfkFdnDPPjuwayf6cKftAs70kqprq22gvw9eQ5IVFhVA2I3B6q2UMCc7caqpublJU1Vz0GZWRm/txs2bEHJPbSeU+dtoFz3yNw/stVVrVlvLkzYo1lIbHh/RyJsE3pz6XAXF8dGH79qbb+y1kuJ5NjIyiL6qc+tmq1cBP/Tnri321oE9th4CnDtM6dFLmPntJg1wJK91Yjxcg0fW29tvO3duswMHdtvmTRvBH7tt2/atUrzXr9/Q9B3Xf5yHE6YpyIULFwHfA7Znxw7wxy7bvmUz2AseBjywASgK9vTLhKjKgEKamAyHghiFwhtCGLCO7j6rBt9dgAdeWl4KYy7NsrJmMgfSozSgHRcfY6tWLbOPwGNvgIeL4WFF8Rki3GR7XH8hB0+AZyQ8noLCQvD6TtsLft+F49ZtWyw+IQFGRKP1wJvjtH9XT4+MvPanHbZh03qPDjjux3Hzek0Pl1eUOcMJ6bUmi45xrWN7UHc46gMuhYUF4OnttmfXdtuNcXPwzQNSpI/g8VXVVEN5wluE8cI/BzyyTHhV5eXySAuL5tn7GHd70JcH9m23veiPcHix9P6edsHwFW2VOQQekKtfO+AAIePSonsCQcHph5yc2XKT6eIXQGgxTWtrixTNv98qgbICg2qDA/iVO33Gx8GIEFbVNTUov9XS09MQP2EN8ISaW9ogwJ5ZUkoahFG7tbS1SkFRkU4iXxo8lbk5OZYYE22xEWGWBQWycsUKC4OgrIA1zy3vo2hTBRi6q6vTMqFIOPddX98EYdimEZoYH2/NGIRdEIJcP+fOJNaRkzPLCuHlxGEwcSPHzNQ0S4Ni4G6iwaEhPYTb0tJkfRBeSxYusPmFeRYNxcYtv1mZM4UXt9nLSwVbDKFeKgXWPxMe4gCs2Tq2Ee2aASUZmxBvjS3N1q4pVViP8DgjYPXmzp5jBXPnqo3xxAMCKQXtHh4aseHhUZVNRVMLgZcIgbJsyUJLSYy3SLQhMS4W14uh5N+0kvnzhF/u3BzLys5G+kZY00+0RlLf2GI9sPjnzZtvqWgnjQdtVCA9KGN8mNbtvMXALuEaW3RkhOVBueSxT+CpEN/0tDQtyA9BeHE9jOt9eblzZfRweqwbQm8UHk5dfb089nlF+ZaCe3zOqh19Ugm+YIfEJyZaW1u7jAJO+XKait4hp9DYHzQGKI3iYuClo/zZ4OEk9G0MH5RGPyQnxIFnxqyyotwqUe9Afz8UcqaU/5tvHrTsrGw0ggYVi/F2mqFIoKGpZ3pqWbNm2vLFiywF7YlEwuTEBBhwxVCqczUbwPVBClDRjbhAMefPzbUc8F0cjINE4JaZnqF4Po/E8eYr/wAQAeZniIAX0mXfHj1l/79//r398+/+YP/8r7+3f/ndJ3bq9FnUH287oLDnok+ViQId/MvpdPJMNsZDfEyslBPvy1NDYPvwj5rgKaOD2SdzoRzmgC/ioKwS0G+Z6ekaG8Mwfoah2GmUsj/qQO+EpESbD8WflAQ6gNFSkhNs9crltn//Hps/b548OgIVfbAtSxnDujklm5mRbtmZGeCRSPUR15gWgJbkEcqBsTF4l8g7JWtwpMwYBD41MM56wDecNqSnxOm+xtZ2GwfPRmCccP2MMz9TEITDrx1eSwVFIPOQCakwYjGQOFDHYN3SLY+OjtLi5NjomBMEP7jHlVgDR4MHf7ScudjsGDXCojAYuAje0d4u7+HevfsYgJ9iIDJ8Yp998ZXV1dZq+2s/PDhVjbxhkALcIhBOBqYk4Q8YlIKPUypcEOYOKG4yeAqLbxBlX7l6zf47Bve/otzfIXzz1SFrg2AZAz4ciNpWAYFNkREJpRFO1FFsGAcH/rgQzhZxGodrRj19vVAuM6BUUzXotD5ABJGIipwDirgS5UEok6ewfnv6h+zClav2f/3u9/bfIGz+27/83g4fPizlT4HF6RQ10SuHuxiJB9vJiZxwFBoexs0NuInA5lMRk3ZJEJzxXCtEeooIMiMX1TesW2Orli/Vg9IZaalWDO+Ym1FKK6utG/hwvY2bDUoQHxsbrb4h8g4PF14O3h1U6Lw+h69yst28jXjtdhMAfyjdWVAMXFNog3Km59wHz6oOOHAtqLiI1j48B/RDL5RIF/BsaX9ih48d0yMK7Lvf/+GPdvHCBeuHZT86PGjjUHBSkggRqI8bHsK4Qxz04R83tixbusSWLSqxBvDSp3/8wv47yjl0+DgUyxN4damWCGHnWuCAuLPXuRmDm3I4ZcX1qETgGI573AoQgSOFONfXhobH4GH0ymtns0nDsGdhFgW6hgM7lq3ZBNIJ+OlxB9LIVfcCcDz6wG3Y4zDmxjglCN7LBL9t37zB/uHD92z96pVQQjHCXDlQYPiMcNAAvMohATowTjh5wYfANfHi7j30I9pLXiOnE2t63/5W+d7+Aa090liIR7tZH/0j5suE4bQefLYEdI4GDyoWZU6BN/7FW/gXTyNobAHPqIho9EM6vLkYjNVB11Ym9IBn5KshKPZe0JmygF7r7/7wqf3L7/9o//33n9qfDx+xBhg6w8BxCEqV9QWoGAJCUI+8XkDlxAV6LlI2Q2izk6mYyBYtuB4EY6RnZGjABg+eV4MbMmRI/5kKsDs8mR6Ebk2tccBzjWkMaWixctGbazlZsGZp5WcjzIFlt2blCtu9favlQLCxVA54tyXVDQ6hoyAxgIDh9cwbYhwPHABg/JmwKGkpZ2dlwVrMkbW/cd0G275lq7wxgsrzxoXKVYQ7lwVIpqdyADyjeY1rXwC7J/D9QRV8zjPkBc4cvOkzM7XpI3tWluWgjQVz82zD2vW2efMmS4Xw4VqI2yatRsko8Ae0r3hc6Q4P/zkSrUfgmmt+nE7Vlm54lvGwqBMTIVhxTeNj3rwii4V3zPWE+qYn2pnGzQ75eXlquxPUruzp4O4EUiiomcroAuoRiRT8E3fOpAnxCVYEHLg+WFZRAyXRrt1dnN7LnTsHqV3LHM9ACcAzzMqcpT6bC89+LrzKkuL5tm3zFijeFfCaYtXrfCxcbQdfsEtkJOAYBa92fmGuffD2m/b+m2/a/IIiG4FCuXHjjn3++Td2+vQ56wZPsjaQkYgqEFe/HWwGyxRdESU6K7B/aNogPTIwvYJ+mJU4MKNXCP69WPGRLqcDIpmcHn1GWgp4f5P940dv228/ft/+8eP37LcfvmvvHdxvq5YtgVGSoHocsDROMRIr4oUjg+JdMp9nHBBnF4QT+Q6nU2gCmN4/J4/RC+OUvW+QEM8wjOtIEIfKmrMu3ODg6vF7chqAUMrr/WlaFEdSlWOX49VXZDz4IPwRwd2A3JCSiXGUA55gmI1xlI/xvGH1atuycaOMINd+1PQSFH6tQCq/NqAxxM5jJwLomnMNaBxezg3uXntcag8e3LeqqirtdEuH208FRUH4PDjWd2fuj1NlZAzaYnwmZxzio+1pt924cwfWew+UU4KETCqUFD2T5KQUTdssXbLE3nv3DXv33bfs/XfftA/ee9M+fP8te++t/RCguaqDUoeMy8V4PvPEqUKuNdEqHRga0TQAX+XC3USR8Gy4zTUOZa8F836Isj987y2v3LftHz56197Yv9syZqa7MtE2UkO/IovfIq+FGtDOw6LgfPaM23P7tJbCrbZ82JU0CnACy5mhra8JGMCJwGXD2jX2kdr3Do5va13sNx+8bft277BZmVDCyKLnmfDnfp04JDpCycNGWCFxFF8hBcVDj1G0QP080gPuHxzWrj9uPeaiOGnN53xy83MR32hXb96UB8OpNXqCFEKs0dVFQeJCoEYfCxd8fJxAcQqbf5PuhqfwFKN7TBMVxanG2ZaWkSklef/+I23YKJpXaHGJCdpUQiEXHxdrCbExlgXlyfW936DP2G8fIXyMvvvN++/YpvVr0dfxTqCjJopGijvWqfoANLY6Ozv1mhy+QeGdtw7a+++9Z9u2bZc3fOXKFauuqUYbKICZzbWSfU3lEgcFTxoPDPEVXsMwqMZsdGIEnsWEpqS4fT8qMlp8NoPKioMKPOpoFGi71lTQXxp3uuvTWbUJmFr3kI5t4LRpdma6FebNsQII4AIoZxpqKaBTNGgUwaqQlkYNA1vvyvX+VI4KFl6iiCICNUvJIB0xFpcRQXcHwZ1S2cfHRavvhoYG1G7fs5sA3w/0D1o9vODmphbNkNCP9HxJVwZAG24YiCfoNIHzMYzZSTALp3S5Jscy2e9REVwzc/nUm7qYod22NLiS0P7Vq5aDHw5CXhy0D945CH540/4RXuXBfbthyGS7/F4ZIXAwXXL/7MFnWFqGZOZMeBkLFy6UN9MHwUtmmztnrjZNcBrr1eCYUfyAHy6qkvm4Dft+WY1dvf3Qvv72hF2CMJiAAuQ6wfo1qzQAw8MjtTDOxVPOL9OiysrO1LZ0roFxcbudu/3CXP0UImT+vsEBhfDIMItA3hEIj/KqShyHbPbsLG1jZzuIPwdHY0MjvEIIPAxwPjjMVy8NQLhwPpvtJ5AGYXygVwIGog7XvlBx7UI87vG5omx4e3ExcVZVWQUB2I2yI9WWIU7nAV96AFLmQJhTZ/QGJ0ZHrbW5BdfxsPxm6SHGpMQk6+vtR+iTZykhifYJJ0/QOZFL0ctL9pXHakiSCGWfnT3bOrt7rApCYgL3w+E1TEAg1tTX25dfH7KrMDj0SiL8cRp03vx51tPfY5euXRGO84uKoNA5dejNCbmiVasPAeFJuxd9QaIggun4fkW90scTxowj6D1xjmT4YRrHa9wKXABPhrtDb9+5bUnJibjORzr62QC4D2nwHmaBH3u7u+F1d1lyaproRWOCGxu6uju1IM9Rxzwklyx7oQXBJ4UzqZ2iXLP59uhxe4qyMiDwi+cX2JrVSy0Pgr8XBlOnFtUdviyHApkos7yMtGTgm2ZNrS1W3VBv47g/IzrC+I6QhpYneq4vLS1Nm0zIP7iLI3KLV1gqsAMePrFcEmGoKO/HA2XwYtyYdIAYlkHlSc8Sl86L8e97eVQ+6YyAmMBdxjOoI1wEjuRnx9MuhmU4/lNi9Qf/SJO01GStgfL5Jj6XxnT0TpmrsrLaDh/+1m7dum3DGIceNup3t9kBVFAdfN+h2z04zKlZjn8ove6eLq3zsR7KoGjvuUeNxanxaBYHwzMrKxO8PG6tLS26l5mRoRkAPlfHR2S4I5TTp64x+HcNCgHAUfE1BQ4GKiFukli0eKGVlCywRQsXWEFhASyXWHX0yzrb4wMBb3O9iHP2FAZfgWn/j//6f9r/+c//aoePHLWOJ202H+Xt273TCgshkMCQnCKhBb9k8WK7c/uWffHFV/DgbulhzzPnLtjvP/nMzp6/ZCNQVAQyH0Utn91gmVeRlg/rnjp7zs6eOwPFlm7Lli2CVRumNwEsWlhsBSj/zPlz9uWfj9j1O/fsLqz2706dtd//4TM9MwPDzbUDJ5y641HjSULYtZAvEGWgdAiDIuKzJAvmF+uB0EOHvrUbN+/pGZFjx76z+/fuuw0gKtgt3i8pKYE1nGnngOfX33Aw37M79x7akaMn7dNPP9fgHufcOwQQ6+E6DL0xn7YUcQqId2tlwBHoJcCT49x/OJTvN0eP2qkLF+1hebldunoN9Dli5RXllgTrPpqL5cQlNlZv8eAi8xP0RwY8pzmwOHnPCTG1/KXA/p8YH0XbRl3bPKAiIM7Ok2IExYvuIB3iPTqoAgyTuPhE4cB7bRD8VN6c9qT3p/oR0tPQj8uX4zzM/vztUTtx8qy23V+5dkvPXH35zTdWVVstT4abErjNWtNQqhdAVFAtvUbyDncEHgZ9rl6/pWegeF1dXS36ZfCZMklT5iHOTrmxgHQYSXwbChfu+QjD2YuX7P7jMj0ScfjoCW24WLFsqYwepufUHJUI+4j0oDJxytshJXr4hsA0UvNSAfkc3dyaqOKoR1g2fvx0Kk80d4HpJyfd662oEEgNV7PPU2O6R2C5bCf5TG11BSre3QvqN0B6WqpmOLiOeOrUGY3JB4/K7OKlK3bs+HFtdOFD4Xp7P9v/jN68K5tY8I8NcDtaS+0Exh/Hy607D+woxgyfeZw9e7YeReGOUDE72wGcRS/gQS+4ZP58y5s7x27fvG2HMI74HCRlxfHvTuv1T1fBH4ODbg2KfBGCALzmb5IIAD2P6KgYPfRKK8WHlwovjRb8YAQNYxDzAVhueY6Fd8En8vlwH6f8+BDf2lUr7eD+vTgu14K+FnNhwUXHROl1LRzsVZWVVl1VY6Vl5Zpe5HTXyhUrLT83V1N2bU9h+UP4cpjS5X9Y+hgK6pG2n3KB/QCfAUL5MRGw84FWDKyupJQUbZbgmxT4tgL3luQaTY2tWL5CuxbZtvb2p1ZRUaa1kOUQSlzUZgOpcFn+8PCQrVuzBpZkBry2KHgvSVq/KC0vU9ncmcbNE5zKI9UWcbs+vBVagFxYplKgRU+lUYn0ZaVlVltXCw8iyVYuXyYFxjUtbiCoBp6F+VDcC0vgWVEdPdNuuEePyyHAJuEBrIDlniy86UVx9yJ383GXGnEtLS3Vs0QbgO/m9RssWesVVO4YtDBVGxpb7OmTJ7Zt80ZbvWK5XsMjT5pm7MsA0f39A3qDAAXHmlUrQAdO+05o3bK+rk67uPiaIAp7lsPpw3L1S6QeOOXbGeBYS2lQCLY0N6MtE7Zj61YrksEC7w/8piOEEa3i6KhYpGtVOXzbRVl5hXZpcecZBSb5hm+S4MPhfDiarwPiOpUQRjmR6Ke4+DjrHxhUn9PaJ2/x8QMq7S1o/0q0n+tzzE+PmGsqK5YvsdQUTkETj0TxKbfj800YpWWVoC+9ddB3/VrbvHEd0iSI3+ipcrqrE/zGN4nwVUSiKOjBvid/cwfgCvAXp30pRKdPm3PTC/mJsw3c4MIdqhT6ek1UELBcCmLSizxaU1NjQwP9tnTRQq3pSUHiHpU3d+C1t7dZCfqoCEYip9NaWpqtDYE7VheAT7nJhaXynX188JwzHCuXLYb3lIrocD3jx1kCer58i0M56Ehem4BSXLt2ja1evUpjogfGaW1NrcXHxeiltny2DWSBQVFnj0srYAhHaSMEjbt79x6Ib3NgJO3euQMKqEhTfDRWGoDzk9ZmGbXFRYUWxalfjiPNOvTJwKhEP5by4W3UR0N62dJlejzDvSaNLCDqhwDwi3qbuc/cfxkgatBq2l3DGFD3IBgbW9swmOj+c6okDIwTg8GeYFkZqZYGa5WCQTuGUD4NJVnAcNvb2loxMOs1RUbLOBmCOw+KKW9ujsVE8lUqM+x+Wa39v/4//7vlwNN7762DSNuhZzVYR+6c2bYA3hIXbClnKQzH4AURL24GqK5p0C4gCiAKtrzc2ZqvjoEy5gp7e3uXmJ1TUHwLhCxZ4MhXOJVCYFD5LKdQhMDi5g/uEmxugdCC0KNw4zM/tALppXS2d1guzvMw+MkUDJz+4PRIDfDowiCmQuDaT2FBrrZGUxjyNS98yLGiotqyMrOsGIOTcoOe4yDyl5ZWafv8kpL52uJLW5xc1w3lUV1bD+HRbIND/dq1x+3u8/P5RgQIFrSDO7JGIJi6+nrs08++kdD/L//j/2ArlpRoHU9rcC/pcoc/FA6EPAUzFQK967RUvmkBCqq5zWrqaiAYZltu7hzPa5gBhdavh3LJSyULSuCteAKZNIXyrKyqtX7QlDsI01JTVBHzsT7yBT2iPpTBxw7qGtCuwQHt/MyCt1KYP0dGD9d9nIKqtx4YC0XwzGbRmxHOALSJ3k9rWxuMgUbxFneTcp1y7pxsrYclQhFSqXI9kW8x4RTSgvkFUjrkYb5eiq9nopBvaGjVLrHYuHjLycq0AuDBT3NItKMMvjaIb/KgQURLX5t7QFM643zNFd/RyEX+BVAUcTCw6KX4RoHwBfDZNr5BhOup9BhmwnvRlLGS+akcyNFAPLdcs//5HGMB+nzWzEzcQK8BMT5OwLXI1pZWKG9uNJmtfuAGqGY+1Aveo1HmpqTBSxD+lRD4NGcWFBW4rf+ohHlII75Jw/HZoJu+zs6SIqYBQoO2B/n5ADD5uyB/riUkJtoYED1+6hy832/1PN661Sutr7sT/d+nzVkcA3noC9KEzeS45avAWpqbbDa8a45tKmjJmdER9CcfO2i0jo5O4SVZkTcHfZqjGQtu3ngZL/+a4Vf8RV3HCWz8CDcsBA0iLoxq2zalLCw5N1q5zABrHUcOAhZBj4iMNjY+KQHMqQh6cpGw2MKgPDiQw+BB3Sursv/3//5/wKOaa//P//Kf4YnF2CisR1p70VRiGBTEhpYl8cCwnlq057v7+L41DpxoWNacStCUjPDgbkKGcQkaPodE4IDgPPoocOd222jk0dsxgCv/6JFwQwKnvTg46S1QANNk5PZdWt5KSRrhn8KagncMg4y04GYOKibTtI9T2BP4nYR25YAkHiIZ6uQ9TfEBT8aTpCyWgZOSxH8E7eNzWsSFSl0bLlgAcSV9UXcZhOTvf/+ZlPR/hoJKS4oTjpRPrwLSAcXLQ+AVcabARJSj27NxraFJyFHoKhPi0Q7+0WCR8sEN4cN7oBungLhBRzTTPw0e5nDAM+ENvqJHzg0UpLG2k3tpmIteAsskr6kMxLIun3gsg8p0DLThwj5fPMp1T/d9Mif4mEbTWrgij/Cei3f9Qry4iYh4E2fl575zVEFscFt9o3IQOGXucERu4EFe4e5F4hfJfvXvBYHwRl5/ujJiBmmDPsS51yovONCZyubbJJAH9KRZKN7TPeCCEz24Dty4vkbaqRTVwbaSxxymvMN0oyiHwG858Q6xdhg43EZBRxqV7HNO63GLP2tkOUwzDn5mO5iH+FHBfXf6vP3p0BFbvWqVffTuQUuIjRCvRmCMk5baecm6kM/nZ8N4pHfvz2YwcDyrX9CfHM8aD8wPr1vjGamUwp2EwIPAePlVAZgIg4BsyWcoosAV0aBENKQnp9mi4fVEhkEIgWG1BRg5/N1HLnAAIAJMxrl7ejcJcTF60DQa+Tn0HJ9xkJMtJ3CAtY9jODQF0yRCScXD8iJzakwoB8t1g4v1MsRGhSttAiysSCamUMNgU9lMg8ScfuJA8SrFgXkRj5tRGMgSvhi8FF7cNRZOpYWyElA/H9QNo4BA0EK7Bpwb2qSP8uEY6W3/prVIhcr5fkkY4MD0FF3+lBuIghuu7aoT8RR8tLpdapePeBEfPmiZBOuer5aikGIC3uZLWJta2vRWBK4h9MB6XbqY0y9xqlp1fS+42oC6+ojnFGTsN5KSCpO0puJmSQroX061qC0sAnl8Ougcke7BbbViClcC09EKVt/hnA8aJ4AnSLNI8gwEHrFguaQLBammDqf4ygssFIF4EW8+QEz+ioYwY9miOfsFgXzp4+sLOgaek29JX36kMTEuGl438otv2N9eOcQZaclbrIvlMz+BadivwlO0dnmnA+8Qb/Uz2yPCMZ2jmQsBUPmqxxmCXHfllPDUZgkkoPJnvcRJih31M45HTqlKMTAty2ZZyEMc9UZ9VeDwJ53E24iLhWGVEB8HTz1gFBI3lsFzH38qFqZHEtwm/2PsPoNSgjyIRxmJsbGiJdM43mH9xM/RXWWQlh6OSCQcWVcEmJH8oJ1/6BfHK+QdwvN0CoFPl18l0EpzgQwtweHxEgc2j0wjJhPjIIBZaScpL69BPe0aUmIEMjTLYTzPPWHLwR8fG2Vx0VFiYDKrLC4WybyoeBJHnSufExoMbiC7o6rw0umP6RmpQGCCQCDzSyHhztSg1UBia70/Ck0KAC+BK5cJEdQOtg8XxJkIK41XHhHkff25LE7wKbn7cSdeAP2mcPbS80pl8yQoDsqLO5zu3r1nf/rT1/b48SNbsniRLV++xNUtJfj9wGQeigBX75TA4DkD6nZCJhgcfkw31fd+eq+8KRxUnjtO9R/opr4jsGzRDUf0s/qOIejPcZX71QK9RzMfb/4JWK/6BD+6YCTueeldRKA/yGvy+nFO4FECnv3tpWFJAT7z6sFxKhfjvSDwC3sFOFoirWgBzBVQzLTgykEalqs8iJqKByje4RcARHhH0YiB516csvtJ/LIQfOWh/kNf+P3t18cS/PKYX9TFkWmjOHZj+HYWKCTckAfHMvzi+eOfI7Aev++FmXeDXSbPF3XgV3eJT0BW8NrLGIIp+JVO8f004BO2o6tLW5OTE5NsxbJlml4Qg/rc/asH0EFSKwAcxnzjBN+oXVpebtxqvnjxQq2/ydMT/ShmQxCCHwekwLxznnGalK/3qqyu1qMe84sKjS8HCMFPByEF9TcEGUz447w0F7k5haCt04Bp8vhXDi8qKJqV2iAxOgrajWgaiGtftDjp7dHidRZniJAh+HFAnh9+nUfp1BXXarlmxA8ockfu1IwCk9DrCsHfFEIK6m8IVFA+cBGabC3himNIQQUDiPGCgqIAQBC1Jt0F4txUDW8yy7Q8IQjBjwC+ouKfNpDgemq2g/wXUlA/GXC6NQR/I5DMDfC1gHEh5fQDQPqISp2aCNcQClJMmtwj24ZYNwR/GyC7+SuDz2ZwwxP4EN781BiGYgopp58GQqP8bwxidnC2nhtBCLH1vwFIN5KNa05UUFxp5kNXIKjzRxlCEIK/Dch7Fw+S90K89veAkIL6iSCkmL4PKAheEl6g2l+6H4IQ/FjgG0DSULCJGHQjBD8hhBRUCH4m4Cuc4PAy+Ev3QxCCvxaClBNCiNv+fhBSUCEIQQhCEIKfJYQUVAhCEIIQhOBnCGb/f5IZ+tuk6WyvAAAAAElFTkSuQmCC;imageBorder=default;" vertex="1" parent="1">
          <mxGeometry x="80" y="120" width="424" height="268" as="geometry" />
        </mxCell>
        <mxCell id="kYoeIwyWDaKB8z9w35wY-3" value="COHESIÓN" style="text;html=1;align=center;verticalAlign=middle;whiteSpace=wrap;rounded=0;" vertex="1" parent="1">
          <mxGeometry x="80" y="450" width="60" height="30" as="geometry" />
        </mxCell>
      </root>
    </mxGraphModel>
  </diagram>
  <diagram id="oK6yg59jQYYg9IeYF_9Y" name="Single Responsibility Principle (SRP)">
    <mxGraphModel dx="744" dy="775" grid="1" gridSize="10" guides="1" tooltips="1" connect="1" arrows="1" fold="1" page="1" pageScale="1" pageWidth="850" pageHeight="1100" math="0" shadow="0">
      <root>
        <mxCell id="0" />
        <mxCell id="1" parent="0" />
        <mxCell id="OFzc3OPZqzDHeK13Cowj-1" value="&lt;h1 style=&quot;margin-top: 0px;&quot;&gt;Single Responsability Principle&lt;/h1&gt;&lt;p&gt;Este principio establece que una clase o función debe tener una sola responsabilidad. En otras palabras, cada clase o función debe hacer una sola cosa y hacerla bien.&lt;/p&gt;" style="text;html=1;whiteSpace=wrap;overflow=hidden;rounded=0;" vertex="1" parent="1">
          <mxGeometry x="120" y="120" width="460" height="110" as="geometry" />
        </mxCell>
        <mxCell id="OFzc3OPZqzDHeK13Cowj-4" value="&lt;pre style=&quot;white-space: pre-wrap; margin: 0px 0px 4px; padding: 10px; box-sizing: border-box; border: 1px solid var(--cib-color-stroke-neutral-primary); background: var(--cib-color-syntax-background-surface); border-radius: var(--cib-border-radius-large); color: rgb(17, 17, 17); font-size: 16px; font-style: normal; font-variant-ligatures: normal; font-variant-caps: normal; font-weight: 400; letter-spacing: normal; orphans: 2; text-align: left; text-indent: 0px; text-transform: none; widows: 2; word-spacing: 0px; -webkit-text-stroke-width: 0px; text-decoration-thickness: initial; text-decoration-style: initial; text-decoration-color: initial;&quot;&gt;&lt;code class=&quot;language-javascript&quot; style=&quot;white-space: pre-wrap; font-size: var(--cib-type-body1-font-size); line-height: var(--cib-type-body1-line-height); font-weight: var(--cib-type-body1-font-weight); font-variation-settings: var(--cib-type-body1-font-variation-settings);&quot;&gt;&lt;span class=&quot;hljs-keyword&quot; style=&quot;color: var(--cib-color-syntax-red); font-variation-settings: var(--cib-type-subtitle1-font-variation-settings);&quot;&gt;class&lt;/span&gt; &lt;span class=&quot;hljs-title class_&quot; style=&quot;color: var(--cib-color-syntax-purple); font-variation-settings: var(--cib-type-subtitle1-font-variation-settings);&quot;&gt;UserManager&lt;/span&gt; {&#xa;  &lt;span class=&quot;hljs-title function_&quot; style=&quot;color: var(--cib-color-syntax-purple); font-variation-settings: var(--cib-type-subtitle1-font-variation-settings);&quot;&gt;createUser&lt;/span&gt;(&lt;span class=&quot;hljs-params&quot; style=&quot;font-variation-settings: var(--cib-type-subtitle1-font-variation-settings);&quot;&gt;userData&lt;/span&gt;) {&#xa;    &lt;span class=&quot;hljs-comment&quot; style=&quot;color: var(--cib-color-syntax-gray); font-variation-settings: var(--cib-type-subtitle1-font-variation-settings);&quot;&gt;// Lógica para crear un usuario&lt;/span&gt;&#xa;  }&#xa;}&#xa;&#xa;&lt;span class=&quot;hljs-keyword&quot; style=&quot;color: var(--cib-color-syntax-red); font-variation-settings: var(--cib-type-subtitle1-font-variation-settings);&quot;&gt;class&lt;/span&gt; &lt;span class=&quot;hljs-title class_&quot; style=&quot;color: var(--cib-color-syntax-purple); font-variation-settings: var(--cib-type-subtitle1-font-variation-settings);&quot;&gt;EmailService&lt;/span&gt; {&#xa;  &lt;span class=&quot;hljs-title function_&quot; style=&quot;color: var(--cib-color-syntax-purple); font-variation-settings: var(--cib-type-subtitle1-font-variation-settings);&quot;&gt;sendEmail&lt;/span&gt;(&lt;span class=&quot;hljs-params&quot; style=&quot;font-variation-settings: var(--cib-type-subtitle1-font-variation-settings);&quot;&gt;emailData&lt;/span&gt;) {&#xa;    &lt;span class=&quot;hljs-comment&quot; style=&quot;color: var(--cib-color-syntax-gray); font-variation-settings: var(--cib-type-subtitle1-font-variation-settings);&quot;&gt;// Lógica para enviar un correo electrónico&lt;/span&gt;&#xa;  }&#xa;}&lt;/code&gt;&lt;/pre&gt;" style="text;whiteSpace=wrap;html=1;strokeColor=default;" vertex="1" parent="1">
          <mxGeometry x="115" y="220" width="470" height="260" as="geometry" />
        </mxCell>
        <mxCell id="OFzc3OPZqzDHeK13Cowj-5" value="" style="sketch=0;html=1;aspect=fixed;strokeColor=none;shadow=0;align=center;fillColor=#2D9C5E;verticalAlign=top;labelPosition=center;verticalLabelPosition=bottom;shape=mxgraph.gcp2.check" vertex="1" parent="1">
          <mxGeometry x="600" y="280" width="100" height="80" as="geometry" />
        </mxCell>
        <mxCell id="OFzc3OPZqzDHeK13Cowj-6" value="&lt;pre style=&quot;white-space: pre-wrap; margin: 0px 0px 4px; padding: 10px; box-sizing: border-box; border: 1px solid var(--cib-color-stroke-neutral-primary); background: var(--cib-color-syntax-background-surface); border-radius: var(--cib-border-radius-large); color: rgb(17, 17, 17); font-size: 16px; font-style: normal; font-variant-ligatures: normal; font-variant-caps: normal; font-weight: 400; letter-spacing: normal; orphans: 2; text-align: left; text-indent: 0px; text-transform: none; widows: 2; word-spacing: 0px; -webkit-text-stroke-width: 0px; text-decoration-thickness: initial; text-decoration-style: initial; text-decoration-color: initial;&quot;&gt;&lt;code class=&quot;language-javascript&quot; style=&quot;white-space: pre-wrap; font-size: var(--cib-type-body1-font-size); line-height: var(--cib-type-body1-line-height); font-weight: var(--cib-type-body1-font-weight); font-variation-settings: var(--cib-type-body1-font-variation-settings);&quot;&gt;&lt;span class=&quot;hljs-keyword&quot; style=&quot;color: var(--cib-color-syntax-red); font-variation-settings: var(--cib-type-subtitle1-font-variation-settings);&quot;&gt;class&lt;/span&gt; &lt;span class=&quot;hljs-title class_&quot; style=&quot;color: var(--cib-color-syntax-purple); font-variation-settings: var(--cib-type-subtitle1-font-variation-settings);&quot;&gt;UserAndEmailManager&lt;/span&gt; {&#xa;  &lt;span class=&quot;hljs-title function_&quot; style=&quot;color: var(--cib-color-syntax-purple); font-variation-settings: var(--cib-type-subtitle1-font-variation-settings);&quot;&gt;createUser&lt;/span&gt;(&lt;span class=&quot;hljs-params&quot; style=&quot;font-variation-settings: var(--cib-type-subtitle1-font-variation-settings);&quot;&gt;userData&lt;/span&gt;) {&#xa;    &lt;span class=&quot;hljs-comment&quot; style=&quot;color: var(--cib-color-syntax-gray); font-variation-settings: var(--cib-type-subtitle1-font-variation-settings);&quot;&gt;// Lógica para crear un usuario&lt;/span&gt;&#xa;  }&#xa;&#xa;  &lt;span class=&quot;hljs-title function_&quot; style=&quot;color: var(--cib-color-syntax-purple); font-variation-settings: var(--cib-type-subtitle1-font-variation-settings);&quot;&gt;sendEmail&lt;/span&gt;(&lt;span class=&quot;hljs-params&quot; style=&quot;font-variation-settings: var(--cib-type-subtitle1-font-variation-settings);&quot;&gt;emailData&lt;/span&gt;) {&#xa;    &lt;span class=&quot;hljs-comment&quot; style=&quot;color: var(--cib-color-syntax-gray); font-variation-settings: var(--cib-type-subtitle1-font-variation-settings);&quot;&gt;// Lógica para enviar un correo electrónico&lt;/span&gt;&#xa;  }&#xa;}&lt;/code&gt;&lt;/pre&gt;" style="text;whiteSpace=wrap;html=1;strokeColor=default;" vertex="1" parent="1">
          <mxGeometry x="115" y="530" width="470" height="220" as="geometry" />
        </mxCell>
        <mxCell id="OFzc3OPZqzDHeK13Cowj-7" value="" style="shape=mxgraph.mockup.markup.redX;fillColor=#ff0000;html=1;shadow=0;whiteSpace=wrap;strokeColor=none;" vertex="1" parent="1">
          <mxGeometry x="610" y="570" width="110" height="80" as="geometry" />
        </mxCell>
        <mxCell id="OFzc3OPZqzDHeK13Cowj-8" value="&lt;pre style=&quot;white-space: pre-wrap; margin: 0px 0px 4px; padding: 10px; box-sizing: border-box; border: 1px solid var(--cib-color-stroke-neutral-primary); background: var(--cib-color-syntax-background-surface); border-radius: var(--cib-border-radius-large); color: rgb(17, 17, 17); font-size: 16px; font-style: normal; font-variant-ligatures: normal; font-variant-caps: normal; font-weight: 400; letter-spacing: normal; orphans: 2; text-align: left; text-indent: 0px; text-transform: none; widows: 2; word-spacing: 0px; -webkit-text-stroke-width: 0px; text-decoration-thickness: initial; text-decoration-style: initial; text-decoration-color: initial;&quot;&gt;&lt;code class=&quot;language-javascript&quot; style=&quot;white-space: pre-wrap; font-size: var(--cib-type-body1-font-size); line-height: var(--cib-type-body1-line-height); font-weight: var(--cib-type-body1-font-weight); font-variation-settings: var(--cib-type-body1-font-variation-settings);&quot;&gt;&lt;span class=&quot;hljs-keyword&quot; style=&quot;color: var(--cib-color-syntax-red); font-variation-settings: var(--cib-type-subtitle1-font-variation-settings);&quot;&gt;function&lt;/span&gt; &lt;span class=&quot;hljs-title function_&quot; style=&quot;color: var(--cib-color-syntax-purple); font-variation-settings: var(--cib-type-subtitle1-font-variation-settings);&quot;&gt;processOrder&lt;/span&gt;(&lt;span class=&quot;hljs-params&quot; style=&quot;font-variation-settings: var(--cib-type-subtitle1-font-variation-settings);&quot;&gt;orderData&lt;/span&gt;) {&#xa;  &lt;span class=&quot;hljs-comment&quot; style=&quot;color: var(--cib-color-syntax-gray); font-variation-settings: var(--cib-type-subtitle1-font-variation-settings);&quot;&gt;// Lógica para procesar el pedido&lt;/span&gt;&#xa;  &lt;span class=&quot;hljs-comment&quot; style=&quot;color: var(--cib-color-syntax-gray); font-variation-settings: var(--cib-type-subtitle1-font-variation-settings);&quot;&gt;// ...&lt;/span&gt;&#xa;  &lt;span class=&quot;hljs-comment&quot; style=&quot;color: var(--cib-color-syntax-gray); font-variation-settings: var(--cib-type-subtitle1-font-variation-settings);&quot;&gt;// Lógica para enviar una notificación por correo electrónico&lt;/span&gt;&#xa;  &lt;span class=&quot;hljs-comment&quot; style=&quot;color: var(--cib-color-syntax-gray); font-variation-settings: var(--cib-type-subtitle1-font-variation-settings);&quot;&gt;// ...&lt;/span&gt;&#xa;}&lt;/code&gt;&lt;/pre&gt;" style="text;whiteSpace=wrap;html=1;strokeColor=default;" vertex="1" parent="1">
          <mxGeometry x="115" y="780" width="465" height="160" as="geometry" />
        </mxCell>
        <mxCell id="OFzc3OPZqzDHeK13Cowj-9" value="" style="shape=mxgraph.mockup.markup.redX;fillColor=#ff0000;html=1;shadow=0;whiteSpace=wrap;strokeColor=none;" vertex="1" parent="1">
          <mxGeometry x="600" y="830" width="110" height="80" as="geometry" />
        </mxCell>
      </root>
    </mxGraphModel>
  </diagram>
</mxfile>
